M48
; DRILL file {KiCad (5.1.6)-1} date 09/04/20 19:51:01
; FORMAT={-:-/ absolute / inch / decimal}
; #@! TF.CreationDate,2020-09-04T19:51:01+05:30
; #@! TF.GenerationSoftware,Kicad,Pcbnew,(5.1.6)-1
; #@! TF.FileFunction,Plated,1,2,PTH
FMAT,2
INCH
T1C0.0217
T2C0.0300
T3C0.0315
T4C0.0354
T5C0.0394
T6C0.0461
T7C0.0591
%
G90
G05
T1
X6.65Y-4.85
X6.7Y-4.85
X6.75Y-4.85
T2
X6.15Y-4.1
X6.15Y-4.2
X6.15Y-4.3
X6.15Y-4.4
X6.45Y-4.1
X6.45Y-4.2
X6.45Y-4.3
X6.45Y-4.4
T3
X6.6Y-4.1
X6.6Y-4.4
X6.4Y-4.5516
X6.4Y-4.65
X6.95Y-4.1
X6.95Y-4.4
X6.7Y-3.95
X7.0Y-3.95
X7.05Y-4.6
X7.05Y-4.9
X6.75Y-4.1
X6.75Y-4.4
X6.25Y-3.95
X6.55Y-3.95
X6.8Y-4.55
X6.8787Y-4.55
X5.8Y-3.95
X6.1Y-3.95
T4
X6.2031Y-4.85
X6.3016Y-4.85
X6.4Y-4.85
T5
X6.5Y-2.55
X6.5Y-2.65
X5.65Y-2.55
X5.65Y-2.65
T6
X5.9Y-4.5
T7
X5.1126Y-4.5
T0
M30
