%TF.GenerationSoftware,KiCad,Pcbnew,(5.1.6)-1*%
%TF.CreationDate,2020-09-04T19:50:29+05:30*%
%TF.ProjectId,555_badge,3535355f-6261-4646-9765-2e6b69636164,v01*%
%TF.SameCoordinates,Original*%
%TF.FileFunction,Copper,L2,Bot*%
%TF.FilePolarity,Positive*%
%FSLAX46Y46*%
G04 Gerber Fmt 4.6, Leading zero omitted, Abs format (unit mm)*
G04 Created by KiCad (PCBNEW (5.1.6)-1) date 2020-09-04 19:50:29*
%MOMM*%
%LPD*%
G01*
G04 APERTURE LIST*
%TA.AperFunction,ComponentPad*%
%ADD10R,2.170000X2.170000*%
%TD*%
%TA.AperFunction,ComponentPad*%
%ADD11C,2.500000*%
%TD*%
%TA.AperFunction,ComponentPad*%
%ADD12R,1.600000X1.600000*%
%TD*%
%TA.AperFunction,ComponentPad*%
%ADD13C,1.600000*%
%TD*%
%TA.AperFunction,ComponentPad*%
%ADD14C,2.000000*%
%TD*%
%TA.AperFunction,ComponentPad*%
%ADD15R,2.000000X2.000000*%
%TD*%
%TA.AperFunction,ComponentPad*%
%ADD16O,1.000000X1.500000*%
%TD*%
%TA.AperFunction,ComponentPad*%
%ADD17R,1.000000X1.500000*%
%TD*%
%TA.AperFunction,ComponentPad*%
%ADD18O,1.600000X1.600000*%
%TD*%
%TA.AperFunction,ComponentPad*%
%ADD19R,1.900000X1.900000*%
%TD*%
%TA.AperFunction,ComponentPad*%
%ADD20C,1.900000*%
%TD*%
%TA.AperFunction,ComponentPad*%
%ADD21C,1.524000*%
%TD*%
%TA.AperFunction,Conductor*%
%ADD22C,0.762000*%
%TD*%
%TA.AperFunction,Conductor*%
%ADD23C,0.254000*%
%TD*%
G04 APERTURE END LIST*
D10*
%TO.P,BAT1,Neg*%
%TO.N,GND*%
X149860000Y-114300000D03*
D11*
%TO.P,BAT1,Pos*%
%TO.N,Net-(BAT1-PadPos)*%
X129860000Y-114300000D03*
%TD*%
D12*
%TO.P,C1,1*%
%TO.N,Net-(C1-Pad1)*%
X172720000Y-115570000D03*
D13*
%TO.P,C1,2*%
%TO.N,GND*%
X174720000Y-115570000D03*
%TD*%
D12*
%TO.P,C2,1*%
%TO.N,Net-(C2-Pad1)*%
X162560000Y-118110000D03*
D13*
%TO.P,C2,2*%
%TO.N,GND*%
X162560000Y-115610000D03*
%TD*%
D14*
%TO.P,D1,2*%
%TO.N,Net-(D1-Pad2)*%
X143510000Y-64770000D03*
D15*
%TO.P,D1,1*%
%TO.N,Net-(D1-Pad1)*%
X143510000Y-67310000D03*
%TD*%
%TO.P,D2,1*%
%TO.N,Net-(D1-Pad1)*%
X165100000Y-67310000D03*
D14*
%TO.P,D2,2*%
%TO.N,Net-(D2-Pad2)*%
X165100000Y-64770000D03*
%TD*%
D16*
%TO.P,Q1,2*%
%TO.N,Net-(Q1-Pad2)*%
X170180000Y-123190000D03*
%TO.P,Q1,3*%
%TO.N,Net-(D1-Pad1)*%
X171450000Y-123190000D03*
D17*
%TO.P,Q1,1*%
%TO.N,GND*%
X168910000Y-123190000D03*
%TD*%
D13*
%TO.P,R1,1*%
%TO.N,VCC*%
X177800000Y-100330000D03*
D18*
%TO.P,R1,2*%
%TO.N,Net-(R1-Pad2)*%
X170180000Y-100330000D03*
%TD*%
%TO.P,R2,2*%
%TO.N,Net-(C1-Pad1)*%
X158750000Y-100330000D03*
D13*
%TO.P,R2,1*%
%TO.N,Net-(R1-Pad2)*%
X166370000Y-100330000D03*
%TD*%
D18*
%TO.P,R3,2*%
%TO.N,Net-(R3-Pad2)*%
X167640000Y-111760000D03*
D13*
%TO.P,R3,1*%
%TO.N,Net-(C2-Pad1)*%
X167640000Y-104140000D03*
%TD*%
%TO.P,R4,1*%
%TO.N,GND*%
X171450000Y-111760000D03*
D18*
%TO.P,R4,2*%
%TO.N,Net-(C2-Pad1)*%
X171450000Y-104140000D03*
%TD*%
D13*
%TO.P,R5,1*%
%TO.N,Net-(Q1-Pad2)*%
X179070000Y-116840000D03*
D18*
%TO.P,R5,2*%
%TO.N,Net-(C2-Pad1)*%
X179070000Y-124460000D03*
%TD*%
%TO.P,R6,2*%
%TO.N,VCC*%
X154940000Y-100330000D03*
D13*
%TO.P,R6,1*%
%TO.N,Net-(D1-Pad2)*%
X147320000Y-100330000D03*
%TD*%
%TO.P,R7,1*%
%TO.N,VCC*%
X176530000Y-111760000D03*
D18*
%TO.P,R7,2*%
%TO.N,Net-(D2-Pad2)*%
X176530000Y-104140000D03*
%TD*%
D19*
%TO.P,S1,1*%
%TO.N,Net-(S1-Pad1)*%
X162560000Y-123190000D03*
D20*
%TO.P,S1,2*%
%TO.N,VCC*%
X160060000Y-123190000D03*
%TO.P,S1,3*%
%TO.N,Net-(BAT1-PadPos)*%
X157560000Y-123190000D03*
%TD*%
D21*
%TO.P,U1,1*%
%TO.N,GND*%
X163830000Y-111760000D03*
%TO.P,U1,2*%
%TO.N,Net-(C1-Pad1)*%
X163830000Y-109220000D03*
%TO.P,U1,3*%
%TO.N,Net-(R3-Pad2)*%
X163830000Y-106680000D03*
%TO.P,U1,4*%
%TO.N,VCC*%
X163830000Y-104140000D03*
%TO.P,U1,5*%
%TO.N,Net-(U1-Pad5)*%
X156210000Y-104140000D03*
%TO.P,U1,6*%
%TO.N,Net-(C1-Pad1)*%
X156210000Y-106680000D03*
%TO.P,U1,7*%
%TO.N,Net-(U1-Pad7)*%
X156210000Y-109220000D03*
%TO.P,U1,8*%
%TO.N,VCC*%
X156210000Y-111760000D03*
%TD*%
D22*
%TO.N,GND*%
X174720000Y-115030000D02*
X174720000Y-115570000D01*
X168910000Y-122511370D02*
X168910000Y-123190000D01*
X174720000Y-115570000D02*
X174720000Y-116701370D01*
%TO.N,Net-(C1-Pad1)*%
X161290000Y-106680000D02*
X163830000Y-109220000D01*
X156210000Y-106680000D02*
X161290000Y-106680000D01*
X158750000Y-104140000D02*
X158750000Y-100330000D01*
X156210000Y-106680000D02*
X158750000Y-104140000D01*
%TO.N,Net-(C2-Pad1)*%
X167640000Y-104140000D02*
X171450000Y-104140000D01*
%TO.N,Net-(D1-Pad2)*%
X144924213Y-64770000D02*
X147320000Y-67165787D01*
X147320000Y-67165787D02*
X147320000Y-100330000D01*
X143510000Y-64770000D02*
X144924213Y-64770000D01*
%TO.N,Net-(D2-Pad2)*%
X176418999Y-104028999D02*
X176530000Y-104140000D01*
X176418999Y-74674786D02*
X176418999Y-104028999D01*
X166514213Y-64770000D02*
X176418999Y-74674786D01*
X165100000Y-64770000D02*
X166514213Y-64770000D01*
%TO.N,Net-(Q1-Pad2)*%
X172520360Y-124521010D02*
X179070000Y-117971370D01*
X171002231Y-124521010D02*
X172520360Y-124521010D01*
X179070000Y-117971370D02*
X179070000Y-116840000D01*
X170180000Y-123698779D02*
X171002231Y-124521010D01*
X170180000Y-123190000D02*
X170180000Y-123698779D01*
%TO.N,Net-(R3-Pad2)*%
X167640000Y-110490000D02*
X167640000Y-111760000D01*
X163830000Y-106680000D02*
X167640000Y-110490000D01*
%TD*%
D23*
%TO.N,GND*%
G36*
X180454301Y-126606300D02*
G01*
X127393700Y-126606300D01*
X127393700Y-123058908D01*
X156229000Y-123058908D01*
X156229000Y-123321092D01*
X156280150Y-123578238D01*
X156380483Y-123820465D01*
X156526145Y-124038463D01*
X156711537Y-124223855D01*
X156929535Y-124369517D01*
X157171762Y-124469850D01*
X157428908Y-124521000D01*
X157691092Y-124521000D01*
X157948238Y-124469850D01*
X158190465Y-124369517D01*
X158408463Y-124223855D01*
X158593855Y-124038463D01*
X158739517Y-123820465D01*
X158810000Y-123650303D01*
X158880483Y-123820465D01*
X159026145Y-124038463D01*
X159211537Y-124223855D01*
X159429535Y-124369517D01*
X159671762Y-124469850D01*
X159928908Y-124521000D01*
X160191092Y-124521000D01*
X160448238Y-124469850D01*
X160690465Y-124369517D01*
X160908463Y-124223855D01*
X161093855Y-124038463D01*
X161227157Y-123838963D01*
X161227157Y-124140000D01*
X161234513Y-124214689D01*
X161256299Y-124286508D01*
X161291678Y-124352696D01*
X161339289Y-124410711D01*
X161397304Y-124458322D01*
X161463492Y-124493701D01*
X161535311Y-124515487D01*
X161610000Y-124522843D01*
X163510000Y-124522843D01*
X163584689Y-124515487D01*
X163656508Y-124493701D01*
X163722696Y-124458322D01*
X163780711Y-124410711D01*
X163828322Y-124352696D01*
X163863701Y-124286508D01*
X163885487Y-124214689D01*
X163892843Y-124140000D01*
X163892843Y-123940000D01*
X167771928Y-123940000D01*
X167784188Y-124064482D01*
X167820498Y-124184180D01*
X167879463Y-124294494D01*
X167958815Y-124391185D01*
X168055506Y-124470537D01*
X168165820Y-124529502D01*
X168285518Y-124565812D01*
X168410000Y-124578072D01*
X168624250Y-124575000D01*
X168783000Y-124416250D01*
X168783000Y-123317000D01*
X167933750Y-123317000D01*
X167775000Y-123475750D01*
X167771928Y-123940000D01*
X163892843Y-123940000D01*
X163892843Y-122440000D01*
X167771928Y-122440000D01*
X167775000Y-122904250D01*
X167933750Y-123063000D01*
X168783000Y-123063000D01*
X168783000Y-121963750D01*
X169037000Y-121963750D01*
X169037000Y-123063000D01*
X169057000Y-123063000D01*
X169057000Y-123317000D01*
X169037000Y-123317000D01*
X169037000Y-124416250D01*
X169195750Y-124575000D01*
X169410000Y-124578072D01*
X169534482Y-124565812D01*
X169654180Y-124529502D01*
X169764494Y-124470537D01*
X169824710Y-124421119D01*
X170436951Y-125033361D01*
X170460809Y-125062432D01*
X170576839Y-125157655D01*
X170709216Y-125228412D01*
X170852853Y-125271984D01*
X170964805Y-125283010D01*
X170964807Y-125283010D01*
X171002230Y-125286696D01*
X171039653Y-125283010D01*
X172482937Y-125283010D01*
X172520360Y-125286696D01*
X172557783Y-125283010D01*
X172557786Y-125283010D01*
X172669738Y-125271984D01*
X172813375Y-125228412D01*
X172945752Y-125157655D01*
X173061782Y-125062432D01*
X173085644Y-125033356D01*
X173775318Y-124343682D01*
X177889000Y-124343682D01*
X177889000Y-124576318D01*
X177934386Y-124804485D01*
X178023412Y-125019413D01*
X178152658Y-125212843D01*
X178317157Y-125377342D01*
X178510587Y-125506588D01*
X178725515Y-125595614D01*
X178953682Y-125641000D01*
X179186318Y-125641000D01*
X179414485Y-125595614D01*
X179629413Y-125506588D01*
X179822843Y-125377342D01*
X179987342Y-125212843D01*
X180116588Y-125019413D01*
X180205614Y-124804485D01*
X180251000Y-124576318D01*
X180251000Y-124343682D01*
X180205614Y-124115515D01*
X180116588Y-123900587D01*
X179987342Y-123707157D01*
X179822843Y-123542658D01*
X179629413Y-123413412D01*
X179414485Y-123324386D01*
X179186318Y-123279000D01*
X178953682Y-123279000D01*
X178725515Y-123324386D01*
X178510587Y-123413412D01*
X178317157Y-123542658D01*
X178152658Y-123707157D01*
X178023412Y-123900587D01*
X177934386Y-124115515D01*
X177889000Y-124343682D01*
X173775318Y-124343682D01*
X179582347Y-118536653D01*
X179611422Y-118512792D01*
X179671857Y-118439151D01*
X179706645Y-118396763D01*
X179777401Y-118264386D01*
X179777402Y-118264385D01*
X179820974Y-118120748D01*
X179832000Y-118008796D01*
X179832000Y-118008793D01*
X179835686Y-117971370D01*
X179832000Y-117933947D01*
X179832000Y-117748185D01*
X179987342Y-117592843D01*
X180116588Y-117399413D01*
X180205614Y-117184485D01*
X180251000Y-116956318D01*
X180251000Y-116723682D01*
X180205614Y-116495515D01*
X180116588Y-116280587D01*
X179987342Y-116087157D01*
X179822843Y-115922658D01*
X179629413Y-115793412D01*
X179414485Y-115704386D01*
X179186318Y-115659000D01*
X178953682Y-115659000D01*
X178725515Y-115704386D01*
X178510587Y-115793412D01*
X178317157Y-115922658D01*
X178152658Y-116087157D01*
X178023412Y-116280587D01*
X177934386Y-116495515D01*
X177889000Y-116723682D01*
X177889000Y-116956318D01*
X177934386Y-117184485D01*
X178023412Y-117399413D01*
X178152658Y-117592843D01*
X178261778Y-117701963D01*
X172303977Y-123659763D01*
X172318252Y-123612706D01*
X172331000Y-123483273D01*
X172331000Y-122896727D01*
X172318252Y-122767294D01*
X172267875Y-122601225D01*
X172186068Y-122448175D01*
X172075975Y-122314025D01*
X171941825Y-122203932D01*
X171788775Y-122122125D01*
X171622706Y-122071748D01*
X171450000Y-122054738D01*
X171277295Y-122071748D01*
X171111226Y-122122125D01*
X170958176Y-122203932D01*
X170824026Y-122314025D01*
X170815001Y-122325023D01*
X170805975Y-122314025D01*
X170671825Y-122203932D01*
X170518775Y-122122125D01*
X170352706Y-122071748D01*
X170180000Y-122054738D01*
X170007295Y-122071748D01*
X169943523Y-122091093D01*
X169940537Y-122085506D01*
X169861185Y-121988815D01*
X169764494Y-121909463D01*
X169654180Y-121850498D01*
X169534482Y-121814188D01*
X169410000Y-121801928D01*
X169195750Y-121805000D01*
X169037000Y-121963750D01*
X168783000Y-121963750D01*
X168624250Y-121805000D01*
X168410000Y-121801928D01*
X168285518Y-121814188D01*
X168165820Y-121850498D01*
X168055506Y-121909463D01*
X167958815Y-121988815D01*
X167879463Y-122085506D01*
X167820498Y-122195820D01*
X167784188Y-122315518D01*
X167771928Y-122440000D01*
X163892843Y-122440000D01*
X163892843Y-122240000D01*
X163885487Y-122165311D01*
X163863701Y-122093492D01*
X163828322Y-122027304D01*
X163780711Y-121969289D01*
X163722696Y-121921678D01*
X163656508Y-121886299D01*
X163584689Y-121864513D01*
X163510000Y-121857157D01*
X161610000Y-121857157D01*
X161535311Y-121864513D01*
X161463492Y-121886299D01*
X161397304Y-121921678D01*
X161339289Y-121969289D01*
X161291678Y-122027304D01*
X161256299Y-122093492D01*
X161234513Y-122165311D01*
X161227157Y-122240000D01*
X161227157Y-122541037D01*
X161093855Y-122341537D01*
X160908463Y-122156145D01*
X160690465Y-122010483D01*
X160448238Y-121910150D01*
X160191092Y-121859000D01*
X159928908Y-121859000D01*
X159671762Y-121910150D01*
X159429535Y-122010483D01*
X159211537Y-122156145D01*
X159026145Y-122341537D01*
X158880483Y-122559535D01*
X158810000Y-122729697D01*
X158739517Y-122559535D01*
X158593855Y-122341537D01*
X158408463Y-122156145D01*
X158190465Y-122010483D01*
X157948238Y-121910150D01*
X157691092Y-121859000D01*
X157428908Y-121859000D01*
X157171762Y-121910150D01*
X156929535Y-122010483D01*
X156711537Y-122156145D01*
X156526145Y-122341537D01*
X156380483Y-122559535D01*
X156280150Y-122801762D01*
X156229000Y-123058908D01*
X127393700Y-123058908D01*
X127393700Y-117310000D01*
X161377157Y-117310000D01*
X161377157Y-118910000D01*
X161384513Y-118984689D01*
X161406299Y-119056508D01*
X161441678Y-119122696D01*
X161489289Y-119180711D01*
X161547304Y-119228322D01*
X161613492Y-119263701D01*
X161685311Y-119285487D01*
X161760000Y-119292843D01*
X163360000Y-119292843D01*
X163434689Y-119285487D01*
X163506508Y-119263701D01*
X163572696Y-119228322D01*
X163630711Y-119180711D01*
X163678322Y-119122696D01*
X163713701Y-119056508D01*
X163735487Y-118984689D01*
X163742843Y-118910000D01*
X163742843Y-117310000D01*
X163735487Y-117235311D01*
X163713701Y-117163492D01*
X163678322Y-117097304D01*
X163630711Y-117039289D01*
X163572696Y-116991678D01*
X163506508Y-116956299D01*
X163434689Y-116934513D01*
X163360000Y-116927157D01*
X163138391Y-116927157D01*
X163176292Y-116913603D01*
X163301514Y-116846671D01*
X163373097Y-116602702D01*
X162560000Y-115789605D01*
X161746903Y-116602702D01*
X161818486Y-116846671D01*
X161988585Y-116927157D01*
X161760000Y-116927157D01*
X161685311Y-116934513D01*
X161613492Y-116956299D01*
X161547304Y-116991678D01*
X161489289Y-117039289D01*
X161441678Y-117097304D01*
X161406299Y-117163492D01*
X161384513Y-117235311D01*
X161377157Y-117310000D01*
X127393700Y-117310000D01*
X127393700Y-114139360D01*
X128229000Y-114139360D01*
X128229000Y-114460640D01*
X128291678Y-114775745D01*
X128414626Y-115072568D01*
X128593119Y-115339702D01*
X128820298Y-115566881D01*
X129087432Y-115745374D01*
X129384255Y-115868322D01*
X129699360Y-115931000D01*
X130020640Y-115931000D01*
X130335745Y-115868322D01*
X130632568Y-115745374D01*
X130899702Y-115566881D01*
X131081583Y-115385000D01*
X148136928Y-115385000D01*
X148149188Y-115509482D01*
X148185498Y-115629180D01*
X148244463Y-115739494D01*
X148323815Y-115836185D01*
X148420506Y-115915537D01*
X148530820Y-115974502D01*
X148650518Y-116010812D01*
X148775000Y-116023072D01*
X149574250Y-116020000D01*
X149733000Y-115861250D01*
X149733000Y-114427000D01*
X149987000Y-114427000D01*
X149987000Y-115861250D01*
X150145750Y-116020000D01*
X150945000Y-116023072D01*
X151069482Y-116010812D01*
X151189180Y-115974502D01*
X151299494Y-115915537D01*
X151396185Y-115836185D01*
X151475537Y-115739494D01*
X151507064Y-115680512D01*
X161119783Y-115680512D01*
X161161213Y-115960130D01*
X161256397Y-116226292D01*
X161323329Y-116351514D01*
X161567298Y-116423097D01*
X162380395Y-115610000D01*
X162739605Y-115610000D01*
X163552702Y-116423097D01*
X163796671Y-116351514D01*
X163917571Y-116096004D01*
X163986300Y-115821816D01*
X164000217Y-115539488D01*
X163958787Y-115259870D01*
X163863603Y-114993708D01*
X163796671Y-114868486D01*
X163552702Y-114796903D01*
X162739605Y-115610000D01*
X162380395Y-115610000D01*
X161567298Y-114796903D01*
X161323329Y-114868486D01*
X161202429Y-115123996D01*
X161133700Y-115398184D01*
X161119783Y-115680512D01*
X151507064Y-115680512D01*
X151534502Y-115629180D01*
X151570812Y-115509482D01*
X151583072Y-115385000D01*
X151580122Y-114617298D01*
X161746903Y-114617298D01*
X162560000Y-115430395D01*
X163220395Y-114770000D01*
X171537157Y-114770000D01*
X171537157Y-116370000D01*
X171544513Y-116444689D01*
X171566299Y-116516508D01*
X171601678Y-116582696D01*
X171649289Y-116640711D01*
X171707304Y-116688322D01*
X171773492Y-116723701D01*
X171845311Y-116745487D01*
X171920000Y-116752843D01*
X173520000Y-116752843D01*
X173594689Y-116745487D01*
X173666508Y-116723701D01*
X173732696Y-116688322D01*
X173769649Y-116657996D01*
X173790630Y-116678977D01*
X173906903Y-116562704D01*
X173978486Y-116806671D01*
X174233996Y-116927571D01*
X174508184Y-116996300D01*
X174790512Y-117010217D01*
X175070130Y-116968787D01*
X175336292Y-116873603D01*
X175461514Y-116806671D01*
X175533097Y-116562702D01*
X174720000Y-115749605D01*
X174705858Y-115763748D01*
X174526253Y-115584143D01*
X174540395Y-115570000D01*
X174899605Y-115570000D01*
X175712702Y-116383097D01*
X175956671Y-116311514D01*
X176077571Y-116056004D01*
X176146300Y-115781816D01*
X176160217Y-115499488D01*
X176118787Y-115219870D01*
X176023603Y-114953708D01*
X175956671Y-114828486D01*
X175712702Y-114756903D01*
X174899605Y-115570000D01*
X174540395Y-115570000D01*
X174526253Y-115555858D01*
X174705858Y-115376253D01*
X174720000Y-115390395D01*
X175533097Y-114577298D01*
X175461514Y-114333329D01*
X175206004Y-114212429D01*
X174931816Y-114143700D01*
X174649488Y-114129783D01*
X174369870Y-114171213D01*
X174103708Y-114266397D01*
X173978486Y-114333329D01*
X173906903Y-114577296D01*
X173790630Y-114461023D01*
X173769649Y-114482004D01*
X173732696Y-114451678D01*
X173666508Y-114416299D01*
X173594689Y-114394513D01*
X173520000Y-114387157D01*
X171920000Y-114387157D01*
X171845311Y-114394513D01*
X171773492Y-114416299D01*
X171707304Y-114451678D01*
X171649289Y-114499289D01*
X171601678Y-114557304D01*
X171566299Y-114623492D01*
X171544513Y-114695311D01*
X171537157Y-114770000D01*
X163220395Y-114770000D01*
X163373097Y-114617298D01*
X163301514Y-114373329D01*
X163046004Y-114252429D01*
X162771816Y-114183700D01*
X162489488Y-114169783D01*
X162209870Y-114211213D01*
X161943708Y-114306397D01*
X161818486Y-114373329D01*
X161746903Y-114617298D01*
X151580122Y-114617298D01*
X151580000Y-114585750D01*
X151421250Y-114427000D01*
X149987000Y-114427000D01*
X149733000Y-114427000D01*
X148298750Y-114427000D01*
X148140000Y-114585750D01*
X148136928Y-115385000D01*
X131081583Y-115385000D01*
X131126881Y-115339702D01*
X131305374Y-115072568D01*
X131428322Y-114775745D01*
X131491000Y-114460640D01*
X131491000Y-114139360D01*
X131428322Y-113824255D01*
X131305374Y-113527432D01*
X131126881Y-113260298D01*
X131081583Y-113215000D01*
X148136928Y-113215000D01*
X148140000Y-114014250D01*
X148298750Y-114173000D01*
X149733000Y-114173000D01*
X149733000Y-112738750D01*
X149987000Y-112738750D01*
X149987000Y-114173000D01*
X151421250Y-114173000D01*
X151580000Y-114014250D01*
X151583072Y-113215000D01*
X151570812Y-113090518D01*
X151534502Y-112970820D01*
X151475537Y-112860506D01*
X151396185Y-112763815D01*
X151299494Y-112684463D01*
X151189180Y-112625498D01*
X151069482Y-112589188D01*
X150945000Y-112576928D01*
X150145750Y-112580000D01*
X149987000Y-112738750D01*
X149733000Y-112738750D01*
X149574250Y-112580000D01*
X148775000Y-112576928D01*
X148650518Y-112589188D01*
X148530820Y-112625498D01*
X148420506Y-112684463D01*
X148323815Y-112763815D01*
X148244463Y-112860506D01*
X148185498Y-112970820D01*
X148149188Y-113090518D01*
X148136928Y-113215000D01*
X131081583Y-113215000D01*
X130899702Y-113033119D01*
X130632568Y-112854626D01*
X130335745Y-112731678D01*
X130020640Y-112669000D01*
X129699360Y-112669000D01*
X129384255Y-112731678D01*
X129087432Y-112854626D01*
X128820298Y-113033119D01*
X128593119Y-113260298D01*
X128414626Y-113527432D01*
X128291678Y-113824255D01*
X128229000Y-114139360D01*
X127393700Y-114139360D01*
X127393700Y-111647424D01*
X155067000Y-111647424D01*
X155067000Y-111872576D01*
X155110925Y-112093401D01*
X155197087Y-112301413D01*
X155322174Y-112488620D01*
X155481380Y-112647826D01*
X155668587Y-112772913D01*
X155876599Y-112859075D01*
X156097424Y-112903000D01*
X156322576Y-112903000D01*
X156543401Y-112859075D01*
X156751413Y-112772913D01*
X156822274Y-112725565D01*
X163044040Y-112725565D01*
X163111020Y-112965656D01*
X163360048Y-113082756D01*
X163627135Y-113149023D01*
X163902017Y-113161910D01*
X164174133Y-113120922D01*
X164433023Y-113027636D01*
X164548980Y-112965656D01*
X164615960Y-112725565D01*
X163830000Y-111939605D01*
X163044040Y-112725565D01*
X156822274Y-112725565D01*
X156938620Y-112647826D01*
X157097826Y-112488620D01*
X157222913Y-112301413D01*
X157309075Y-112093401D01*
X157353000Y-111872576D01*
X157353000Y-111832017D01*
X162428090Y-111832017D01*
X162469078Y-112104133D01*
X162562364Y-112363023D01*
X162624344Y-112478980D01*
X162864435Y-112545960D01*
X163650395Y-111760000D01*
X164009605Y-111760000D01*
X164795565Y-112545960D01*
X165035656Y-112478980D01*
X165152756Y-112229952D01*
X165219023Y-111962865D01*
X165231910Y-111687983D01*
X165190922Y-111415867D01*
X165097636Y-111156977D01*
X165035656Y-111041020D01*
X164795565Y-110974040D01*
X164009605Y-111760000D01*
X163650395Y-111760000D01*
X162864435Y-110974040D01*
X162624344Y-111041020D01*
X162507244Y-111290048D01*
X162440977Y-111557135D01*
X162428090Y-111832017D01*
X157353000Y-111832017D01*
X157353000Y-111647424D01*
X157309075Y-111426599D01*
X157222913Y-111218587D01*
X157097826Y-111031380D01*
X156938620Y-110872174D01*
X156751413Y-110747087D01*
X156543401Y-110660925D01*
X156322576Y-110617000D01*
X156097424Y-110617000D01*
X155876599Y-110660925D01*
X155668587Y-110747087D01*
X155481380Y-110872174D01*
X155322174Y-111031380D01*
X155197087Y-111218587D01*
X155110925Y-111426599D01*
X155067000Y-111647424D01*
X127393700Y-111647424D01*
X127393700Y-109107424D01*
X155067000Y-109107424D01*
X155067000Y-109332576D01*
X155110925Y-109553401D01*
X155197087Y-109761413D01*
X155322174Y-109948620D01*
X155481380Y-110107826D01*
X155668587Y-110232913D01*
X155876599Y-110319075D01*
X156097424Y-110363000D01*
X156322576Y-110363000D01*
X156543401Y-110319075D01*
X156751413Y-110232913D01*
X156938620Y-110107826D01*
X157097826Y-109948620D01*
X157222913Y-109761413D01*
X157309075Y-109553401D01*
X157353000Y-109332576D01*
X157353000Y-109107424D01*
X157309075Y-108886599D01*
X157222913Y-108678587D01*
X157097826Y-108491380D01*
X156938620Y-108332174D01*
X156751413Y-108207087D01*
X156543401Y-108120925D01*
X156322576Y-108077000D01*
X156097424Y-108077000D01*
X155876599Y-108120925D01*
X155668587Y-108207087D01*
X155481380Y-108332174D01*
X155322174Y-108491380D01*
X155197087Y-108678587D01*
X155110925Y-108886599D01*
X155067000Y-109107424D01*
X127393700Y-109107424D01*
X127393700Y-104027424D01*
X155067000Y-104027424D01*
X155067000Y-104252576D01*
X155110925Y-104473401D01*
X155197087Y-104681413D01*
X155322174Y-104868620D01*
X155481380Y-105027826D01*
X155668587Y-105152913D01*
X155876599Y-105239075D01*
X156097424Y-105283000D01*
X156322576Y-105283000D01*
X156543401Y-105239075D01*
X156594433Y-105217937D01*
X156275370Y-105537000D01*
X156097424Y-105537000D01*
X155876599Y-105580925D01*
X155668587Y-105667087D01*
X155481380Y-105792174D01*
X155322174Y-105951380D01*
X155197087Y-106138587D01*
X155110925Y-106346599D01*
X155067000Y-106567424D01*
X155067000Y-106792576D01*
X155110925Y-107013401D01*
X155197087Y-107221413D01*
X155322174Y-107408620D01*
X155481380Y-107567826D01*
X155668587Y-107692913D01*
X155876599Y-107779075D01*
X156097424Y-107823000D01*
X156322576Y-107823000D01*
X156543401Y-107779075D01*
X156751413Y-107692913D01*
X156938620Y-107567826D01*
X157064446Y-107442000D01*
X160974370Y-107442000D01*
X162687000Y-109154631D01*
X162687000Y-109332576D01*
X162730925Y-109553401D01*
X162817087Y-109761413D01*
X162942174Y-109948620D01*
X163101380Y-110107826D01*
X163288587Y-110232913D01*
X163496599Y-110319075D01*
X163717424Y-110363000D01*
X163725386Y-110363000D01*
X163485867Y-110399078D01*
X163226977Y-110492364D01*
X163111020Y-110554344D01*
X163044040Y-110794435D01*
X163830000Y-111580395D01*
X164615960Y-110794435D01*
X164548980Y-110554344D01*
X164299952Y-110437244D01*
X164032865Y-110370977D01*
X163862714Y-110363000D01*
X163942576Y-110363000D01*
X164163401Y-110319075D01*
X164371413Y-110232913D01*
X164558620Y-110107826D01*
X164717826Y-109948620D01*
X164842913Y-109761413D01*
X164929075Y-109553401D01*
X164973000Y-109332576D01*
X164973000Y-109107424D01*
X164929075Y-108886599D01*
X164907936Y-108835566D01*
X166878000Y-110805630D01*
X166878000Y-110851815D01*
X166722658Y-111007157D01*
X166593412Y-111200587D01*
X166504386Y-111415515D01*
X166459000Y-111643682D01*
X166459000Y-111876318D01*
X166504386Y-112104485D01*
X166593412Y-112319413D01*
X166722658Y-112512843D01*
X166887157Y-112677342D01*
X167080587Y-112806588D01*
X167295515Y-112895614D01*
X167523682Y-112941000D01*
X167756318Y-112941000D01*
X167984485Y-112895614D01*
X168199413Y-112806588D01*
X168280058Y-112752702D01*
X170636903Y-112752702D01*
X170708486Y-112996671D01*
X170963996Y-113117571D01*
X171238184Y-113186300D01*
X171520512Y-113200217D01*
X171800130Y-113158787D01*
X172066292Y-113063603D01*
X172191514Y-112996671D01*
X172263097Y-112752702D01*
X171450000Y-111939605D01*
X170636903Y-112752702D01*
X168280058Y-112752702D01*
X168392843Y-112677342D01*
X168557342Y-112512843D01*
X168686588Y-112319413D01*
X168775614Y-112104485D01*
X168821000Y-111876318D01*
X168821000Y-111830512D01*
X170009783Y-111830512D01*
X170051213Y-112110130D01*
X170146397Y-112376292D01*
X170213329Y-112501514D01*
X170457298Y-112573097D01*
X171270395Y-111760000D01*
X171629605Y-111760000D01*
X172442702Y-112573097D01*
X172686671Y-112501514D01*
X172807571Y-112246004D01*
X172876300Y-111971816D01*
X172890217Y-111689488D01*
X172883431Y-111643682D01*
X175349000Y-111643682D01*
X175349000Y-111876318D01*
X175394386Y-112104485D01*
X175483412Y-112319413D01*
X175612658Y-112512843D01*
X175777157Y-112677342D01*
X175970587Y-112806588D01*
X176185515Y-112895614D01*
X176413682Y-112941000D01*
X176646318Y-112941000D01*
X176874485Y-112895614D01*
X177089413Y-112806588D01*
X177282843Y-112677342D01*
X177447342Y-112512843D01*
X177576588Y-112319413D01*
X177665614Y-112104485D01*
X177711000Y-111876318D01*
X177711000Y-111643682D01*
X177665614Y-111415515D01*
X177576588Y-111200587D01*
X177447342Y-111007157D01*
X177282843Y-110842658D01*
X177089413Y-110713412D01*
X176874485Y-110624386D01*
X176646318Y-110579000D01*
X176413682Y-110579000D01*
X176185515Y-110624386D01*
X175970587Y-110713412D01*
X175777157Y-110842658D01*
X175612658Y-111007157D01*
X175483412Y-111200587D01*
X175394386Y-111415515D01*
X175349000Y-111643682D01*
X172883431Y-111643682D01*
X172848787Y-111409870D01*
X172753603Y-111143708D01*
X172686671Y-111018486D01*
X172442702Y-110946903D01*
X171629605Y-111760000D01*
X171270395Y-111760000D01*
X170457298Y-110946903D01*
X170213329Y-111018486D01*
X170092429Y-111273996D01*
X170023700Y-111548184D01*
X170009783Y-111830512D01*
X168821000Y-111830512D01*
X168821000Y-111643682D01*
X168775614Y-111415515D01*
X168686588Y-111200587D01*
X168557342Y-111007157D01*
X168402000Y-110851815D01*
X168402000Y-110767298D01*
X170636903Y-110767298D01*
X171450000Y-111580395D01*
X172263097Y-110767298D01*
X172191514Y-110523329D01*
X171936004Y-110402429D01*
X171661816Y-110333700D01*
X171379488Y-110319783D01*
X171099870Y-110361213D01*
X170833708Y-110456397D01*
X170708486Y-110523329D01*
X170636903Y-110767298D01*
X168402000Y-110767298D01*
X168402000Y-110527423D01*
X168405686Y-110490000D01*
X168396731Y-110399078D01*
X168390974Y-110340622D01*
X168347402Y-110196985D01*
X168276646Y-110064609D01*
X168276645Y-110064607D01*
X168241857Y-110022219D01*
X168181422Y-109948578D01*
X168152347Y-109924717D01*
X164973000Y-106745370D01*
X164973000Y-106567424D01*
X164929075Y-106346599D01*
X164842913Y-106138587D01*
X164717826Y-105951380D01*
X164558620Y-105792174D01*
X164371413Y-105667087D01*
X164163401Y-105580925D01*
X163942576Y-105537000D01*
X163717424Y-105537000D01*
X163496599Y-105580925D01*
X163288587Y-105667087D01*
X163101380Y-105792174D01*
X162942174Y-105951380D01*
X162817087Y-106138587D01*
X162730925Y-106346599D01*
X162687000Y-106567424D01*
X162687000Y-106792576D01*
X162730925Y-107013401D01*
X162752063Y-107064433D01*
X161855284Y-106167654D01*
X161831422Y-106138578D01*
X161715392Y-106043355D01*
X161583015Y-105972598D01*
X161439378Y-105929026D01*
X161327426Y-105918000D01*
X161327423Y-105918000D01*
X161290000Y-105914314D01*
X161252577Y-105918000D01*
X158049631Y-105918000D01*
X159262353Y-104705278D01*
X159291422Y-104681422D01*
X159386645Y-104565392D01*
X159457402Y-104433015D01*
X159500974Y-104289378D01*
X159512000Y-104177426D01*
X159512000Y-104177424D01*
X159515686Y-104140001D01*
X159512000Y-104102578D01*
X159512000Y-104027424D01*
X162687000Y-104027424D01*
X162687000Y-104252576D01*
X162730925Y-104473401D01*
X162817087Y-104681413D01*
X162942174Y-104868620D01*
X163101380Y-105027826D01*
X163288587Y-105152913D01*
X163496599Y-105239075D01*
X163717424Y-105283000D01*
X163942576Y-105283000D01*
X164163401Y-105239075D01*
X164371413Y-105152913D01*
X164558620Y-105027826D01*
X164717826Y-104868620D01*
X164842913Y-104681413D01*
X164929075Y-104473401D01*
X164973000Y-104252576D01*
X164973000Y-104027424D01*
X164972256Y-104023682D01*
X166459000Y-104023682D01*
X166459000Y-104256318D01*
X166504386Y-104484485D01*
X166593412Y-104699413D01*
X166722658Y-104892843D01*
X166887157Y-105057342D01*
X167080587Y-105186588D01*
X167295515Y-105275614D01*
X167523682Y-105321000D01*
X167756318Y-105321000D01*
X167984485Y-105275614D01*
X168199413Y-105186588D01*
X168392843Y-105057342D01*
X168548185Y-104902000D01*
X170541815Y-104902000D01*
X170697157Y-105057342D01*
X170890587Y-105186588D01*
X171105515Y-105275614D01*
X171333682Y-105321000D01*
X171566318Y-105321000D01*
X171794485Y-105275614D01*
X172009413Y-105186588D01*
X172202843Y-105057342D01*
X172367342Y-104892843D01*
X172496588Y-104699413D01*
X172585614Y-104484485D01*
X172631000Y-104256318D01*
X172631000Y-104023682D01*
X172585614Y-103795515D01*
X172496588Y-103580587D01*
X172367342Y-103387157D01*
X172202843Y-103222658D01*
X172009413Y-103093412D01*
X171794485Y-103004386D01*
X171566318Y-102959000D01*
X171333682Y-102959000D01*
X171105515Y-103004386D01*
X170890587Y-103093412D01*
X170697157Y-103222658D01*
X170541815Y-103378000D01*
X168548185Y-103378000D01*
X168392843Y-103222658D01*
X168199413Y-103093412D01*
X167984485Y-103004386D01*
X167756318Y-102959000D01*
X167523682Y-102959000D01*
X167295515Y-103004386D01*
X167080587Y-103093412D01*
X166887157Y-103222658D01*
X166722658Y-103387157D01*
X166593412Y-103580587D01*
X166504386Y-103795515D01*
X166459000Y-104023682D01*
X164972256Y-104023682D01*
X164929075Y-103806599D01*
X164842913Y-103598587D01*
X164717826Y-103411380D01*
X164558620Y-103252174D01*
X164371413Y-103127087D01*
X164163401Y-103040925D01*
X163942576Y-102997000D01*
X163717424Y-102997000D01*
X163496599Y-103040925D01*
X163288587Y-103127087D01*
X163101380Y-103252174D01*
X162942174Y-103411380D01*
X162817087Y-103598587D01*
X162730925Y-103806599D01*
X162687000Y-104027424D01*
X159512000Y-104027424D01*
X159512000Y-101238185D01*
X159667342Y-101082843D01*
X159796588Y-100889413D01*
X159885614Y-100674485D01*
X159931000Y-100446318D01*
X159931000Y-100213682D01*
X165189000Y-100213682D01*
X165189000Y-100446318D01*
X165234386Y-100674485D01*
X165323412Y-100889413D01*
X165452658Y-101082843D01*
X165617157Y-101247342D01*
X165810587Y-101376588D01*
X166025515Y-101465614D01*
X166253682Y-101511000D01*
X166486318Y-101511000D01*
X166714485Y-101465614D01*
X166929413Y-101376588D01*
X167122843Y-101247342D01*
X167287342Y-101082843D01*
X167416588Y-100889413D01*
X167505614Y-100674485D01*
X167551000Y-100446318D01*
X167551000Y-100213682D01*
X168999000Y-100213682D01*
X168999000Y-100446318D01*
X169044386Y-100674485D01*
X169133412Y-100889413D01*
X169262658Y-101082843D01*
X169427157Y-101247342D01*
X169620587Y-101376588D01*
X169835515Y-101465614D01*
X170063682Y-101511000D01*
X170296318Y-101511000D01*
X170524485Y-101465614D01*
X170739413Y-101376588D01*
X170932843Y-101247342D01*
X171097342Y-101082843D01*
X171226588Y-100889413D01*
X171315614Y-100674485D01*
X171361000Y-100446318D01*
X171361000Y-100213682D01*
X171315614Y-99985515D01*
X171226588Y-99770587D01*
X171097342Y-99577157D01*
X170932843Y-99412658D01*
X170739413Y-99283412D01*
X170524485Y-99194386D01*
X170296318Y-99149000D01*
X170063682Y-99149000D01*
X169835515Y-99194386D01*
X169620587Y-99283412D01*
X169427157Y-99412658D01*
X169262658Y-99577157D01*
X169133412Y-99770587D01*
X169044386Y-99985515D01*
X168999000Y-100213682D01*
X167551000Y-100213682D01*
X167505614Y-99985515D01*
X167416588Y-99770587D01*
X167287342Y-99577157D01*
X167122843Y-99412658D01*
X166929413Y-99283412D01*
X166714485Y-99194386D01*
X166486318Y-99149000D01*
X166253682Y-99149000D01*
X166025515Y-99194386D01*
X165810587Y-99283412D01*
X165617157Y-99412658D01*
X165452658Y-99577157D01*
X165323412Y-99770587D01*
X165234386Y-99985515D01*
X165189000Y-100213682D01*
X159931000Y-100213682D01*
X159885614Y-99985515D01*
X159796588Y-99770587D01*
X159667342Y-99577157D01*
X159502843Y-99412658D01*
X159309413Y-99283412D01*
X159094485Y-99194386D01*
X158866318Y-99149000D01*
X158633682Y-99149000D01*
X158405515Y-99194386D01*
X158190587Y-99283412D01*
X157997157Y-99412658D01*
X157832658Y-99577157D01*
X157703412Y-99770587D01*
X157614386Y-99985515D01*
X157569000Y-100213682D01*
X157569000Y-100446318D01*
X157614386Y-100674485D01*
X157703412Y-100889413D01*
X157832658Y-101082843D01*
X157988001Y-101238186D01*
X157988000Y-103824369D01*
X157287937Y-104524432D01*
X157309075Y-104473401D01*
X157353000Y-104252576D01*
X157353000Y-104027424D01*
X157309075Y-103806599D01*
X157222913Y-103598587D01*
X157097826Y-103411380D01*
X156938620Y-103252174D01*
X156751413Y-103127087D01*
X156543401Y-103040925D01*
X156322576Y-102997000D01*
X156097424Y-102997000D01*
X155876599Y-103040925D01*
X155668587Y-103127087D01*
X155481380Y-103252174D01*
X155322174Y-103411380D01*
X155197087Y-103598587D01*
X155110925Y-103806599D01*
X155067000Y-104027424D01*
X127393700Y-104027424D01*
X127393700Y-66310000D01*
X142127157Y-66310000D01*
X142127157Y-68310000D01*
X142134513Y-68384689D01*
X142156299Y-68456508D01*
X142191678Y-68522696D01*
X142239289Y-68580711D01*
X142297304Y-68628322D01*
X142363492Y-68663701D01*
X142435311Y-68685487D01*
X142510000Y-68692843D01*
X144510000Y-68692843D01*
X144584689Y-68685487D01*
X144656508Y-68663701D01*
X144722696Y-68628322D01*
X144780711Y-68580711D01*
X144828322Y-68522696D01*
X144863701Y-68456508D01*
X144885487Y-68384689D01*
X144892843Y-68310000D01*
X144892843Y-66310000D01*
X144885487Y-66235311D01*
X144863701Y-66163492D01*
X144828322Y-66097304D01*
X144780711Y-66039289D01*
X144722696Y-65991678D01*
X144656508Y-65956299D01*
X144584689Y-65934513D01*
X144510000Y-65927157D01*
X144263926Y-65927157D01*
X144390336Y-65842693D01*
X144582693Y-65650336D01*
X144640462Y-65563879D01*
X146558000Y-67481418D01*
X146558001Y-99421814D01*
X146402658Y-99577157D01*
X146273412Y-99770587D01*
X146184386Y-99985515D01*
X146139000Y-100213682D01*
X146139000Y-100446318D01*
X146184386Y-100674485D01*
X146273412Y-100889413D01*
X146402658Y-101082843D01*
X146567157Y-101247342D01*
X146760587Y-101376588D01*
X146975515Y-101465614D01*
X147203682Y-101511000D01*
X147436318Y-101511000D01*
X147664485Y-101465614D01*
X147879413Y-101376588D01*
X148072843Y-101247342D01*
X148237342Y-101082843D01*
X148366588Y-100889413D01*
X148455614Y-100674485D01*
X148501000Y-100446318D01*
X148501000Y-100213682D01*
X153759000Y-100213682D01*
X153759000Y-100446318D01*
X153804386Y-100674485D01*
X153893412Y-100889413D01*
X154022658Y-101082843D01*
X154187157Y-101247342D01*
X154380587Y-101376588D01*
X154595515Y-101465614D01*
X154823682Y-101511000D01*
X155056318Y-101511000D01*
X155284485Y-101465614D01*
X155499413Y-101376588D01*
X155692843Y-101247342D01*
X155857342Y-101082843D01*
X155986588Y-100889413D01*
X156075614Y-100674485D01*
X156121000Y-100446318D01*
X156121000Y-100213682D01*
X156075614Y-99985515D01*
X155986588Y-99770587D01*
X155857342Y-99577157D01*
X155692843Y-99412658D01*
X155499413Y-99283412D01*
X155284485Y-99194386D01*
X155056318Y-99149000D01*
X154823682Y-99149000D01*
X154595515Y-99194386D01*
X154380587Y-99283412D01*
X154187157Y-99412658D01*
X154022658Y-99577157D01*
X153893412Y-99770587D01*
X153804386Y-99985515D01*
X153759000Y-100213682D01*
X148501000Y-100213682D01*
X148455614Y-99985515D01*
X148366588Y-99770587D01*
X148237342Y-99577157D01*
X148082000Y-99421815D01*
X148082000Y-67203209D01*
X148085686Y-67165786D01*
X148082000Y-67128361D01*
X148070974Y-67016409D01*
X148027402Y-66872772D01*
X147956645Y-66740395D01*
X147861422Y-66624365D01*
X147832353Y-66600509D01*
X147541844Y-66310000D01*
X163717157Y-66310000D01*
X163717157Y-68310000D01*
X163724513Y-68384689D01*
X163746299Y-68456508D01*
X163781678Y-68522696D01*
X163829289Y-68580711D01*
X163887304Y-68628322D01*
X163953492Y-68663701D01*
X164025311Y-68685487D01*
X164100000Y-68692843D01*
X166100000Y-68692843D01*
X166174689Y-68685487D01*
X166246508Y-68663701D01*
X166312696Y-68628322D01*
X166370711Y-68580711D01*
X166418322Y-68522696D01*
X166453701Y-68456508D01*
X166475487Y-68384689D01*
X166482843Y-68310000D01*
X166482843Y-66310000D01*
X166475487Y-66235311D01*
X166453701Y-66163492D01*
X166418322Y-66097304D01*
X166370711Y-66039289D01*
X166312696Y-65991678D01*
X166246508Y-65956299D01*
X166174689Y-65934513D01*
X166100000Y-65927157D01*
X165853926Y-65927157D01*
X165980336Y-65842693D01*
X166172693Y-65650336D01*
X166230462Y-65563879D01*
X175656999Y-74990416D01*
X175657000Y-103342815D01*
X175612658Y-103387157D01*
X175483412Y-103580587D01*
X175394386Y-103795515D01*
X175349000Y-104023682D01*
X175349000Y-104256318D01*
X175394386Y-104484485D01*
X175483412Y-104699413D01*
X175612658Y-104892843D01*
X175777157Y-105057342D01*
X175970587Y-105186588D01*
X176185515Y-105275614D01*
X176413682Y-105321000D01*
X176646318Y-105321000D01*
X176874485Y-105275614D01*
X177089413Y-105186588D01*
X177282843Y-105057342D01*
X177447342Y-104892843D01*
X177576588Y-104699413D01*
X177665614Y-104484485D01*
X177711000Y-104256318D01*
X177711000Y-104023682D01*
X177665614Y-103795515D01*
X177576588Y-103580587D01*
X177447342Y-103387157D01*
X177282843Y-103222658D01*
X177180999Y-103154608D01*
X177180999Y-101336773D01*
X177240587Y-101376588D01*
X177455515Y-101465614D01*
X177683682Y-101511000D01*
X177916318Y-101511000D01*
X178144485Y-101465614D01*
X178359413Y-101376588D01*
X178552843Y-101247342D01*
X178717342Y-101082843D01*
X178846588Y-100889413D01*
X178935614Y-100674485D01*
X178981000Y-100446318D01*
X178981000Y-100213682D01*
X178935614Y-99985515D01*
X178846588Y-99770587D01*
X178717342Y-99577157D01*
X178552843Y-99412658D01*
X178359413Y-99283412D01*
X178144485Y-99194386D01*
X177916318Y-99149000D01*
X177683682Y-99149000D01*
X177455515Y-99194386D01*
X177240587Y-99283412D01*
X177180999Y-99323227D01*
X177180999Y-74712209D01*
X177184685Y-74674786D01*
X177180999Y-74637360D01*
X177169973Y-74525408D01*
X177126401Y-74381771D01*
X177055645Y-74249395D01*
X177055644Y-74249393D01*
X177020856Y-74207005D01*
X176960421Y-74133364D01*
X176931346Y-74109503D01*
X167079497Y-64257654D01*
X167055635Y-64228578D01*
X166939605Y-64133355D01*
X166807228Y-64062598D01*
X166663591Y-64019026D01*
X166551639Y-64008000D01*
X166551636Y-64008000D01*
X166514213Y-64004314D01*
X166476790Y-64008000D01*
X166251762Y-64008000D01*
X166172693Y-63889664D01*
X165980336Y-63697307D01*
X165754149Y-63546174D01*
X165502823Y-63442071D01*
X165236017Y-63389000D01*
X164963983Y-63389000D01*
X164697177Y-63442071D01*
X164445851Y-63546174D01*
X164219664Y-63697307D01*
X164027307Y-63889664D01*
X163876174Y-64115851D01*
X163772071Y-64367177D01*
X163719000Y-64633983D01*
X163719000Y-64906017D01*
X163772071Y-65172823D01*
X163876174Y-65424149D01*
X164027307Y-65650336D01*
X164219664Y-65842693D01*
X164346074Y-65927157D01*
X164100000Y-65927157D01*
X164025311Y-65934513D01*
X163953492Y-65956299D01*
X163887304Y-65991678D01*
X163829289Y-66039289D01*
X163781678Y-66097304D01*
X163746299Y-66163492D01*
X163724513Y-66235311D01*
X163717157Y-66310000D01*
X147541844Y-66310000D01*
X145489497Y-64257654D01*
X145465635Y-64228578D01*
X145349605Y-64133355D01*
X145217228Y-64062598D01*
X145073591Y-64019026D01*
X144961639Y-64008000D01*
X144961636Y-64008000D01*
X144924213Y-64004314D01*
X144886790Y-64008000D01*
X144661762Y-64008000D01*
X144582693Y-63889664D01*
X144390336Y-63697307D01*
X144164149Y-63546174D01*
X143912823Y-63442071D01*
X143646017Y-63389000D01*
X143373983Y-63389000D01*
X143107177Y-63442071D01*
X142855851Y-63546174D01*
X142629664Y-63697307D01*
X142437307Y-63889664D01*
X142286174Y-64115851D01*
X142182071Y-64367177D01*
X142129000Y-64633983D01*
X142129000Y-64906017D01*
X142182071Y-65172823D01*
X142286174Y-65424149D01*
X142437307Y-65650336D01*
X142629664Y-65842693D01*
X142756074Y-65927157D01*
X142510000Y-65927157D01*
X142435311Y-65934513D01*
X142363492Y-65956299D01*
X142297304Y-65991678D01*
X142239289Y-66039289D01*
X142191678Y-66097304D01*
X142156299Y-66163492D01*
X142134513Y-66235311D01*
X142127157Y-66310000D01*
X127393700Y-66310000D01*
X127393700Y-45970285D01*
X146279287Y-45970285D01*
X146281778Y-46005849D01*
X146283775Y-46041508D01*
X146284655Y-46046935D01*
X146347242Y-46416758D01*
X146356591Y-46451155D01*
X146365477Y-46485751D01*
X146367394Y-46490903D01*
X146500620Y-46841527D01*
X146516469Y-46873447D01*
X146531910Y-46905666D01*
X146534791Y-46910348D01*
X146733584Y-47228416D01*
X146755326Y-47256643D01*
X146776735Y-47285255D01*
X146780471Y-47289288D01*
X147037257Y-47562686D01*
X147064067Y-47586152D01*
X147090628Y-47610063D01*
X147095076Y-47613294D01*
X147400075Y-47831608D01*
X147430974Y-47849444D01*
X147461630Y-47867714D01*
X147466616Y-47870017D01*
X147466621Y-47870020D01*
X147466626Y-47870022D01*
X147808215Y-48024935D01*
X147841964Y-48036421D01*
X147875612Y-48048399D01*
X147880952Y-48049689D01*
X147880954Y-48049690D01*
X147880956Y-48049690D01*
X148233824Y-48132420D01*
X148258821Y-48140003D01*
X148316667Y-48145700D01*
X158909416Y-48145700D01*
X158922367Y-48149709D01*
X159001170Y-48157990D01*
X159006839Y-48157990D01*
X159033437Y-48157804D01*
X159051780Y-48155876D01*
X159070216Y-48155876D01*
X159075854Y-48155284D01*
X159445328Y-48113841D01*
X159481386Y-48106177D01*
X159517418Y-48099042D01*
X159522824Y-48097369D01*
X159522834Y-48097367D01*
X159522843Y-48097363D01*
X159877221Y-47984949D01*
X159911095Y-47970431D01*
X159945064Y-47956429D01*
X159950042Y-47953738D01*
X159950051Y-47953734D01*
X159950058Y-47953729D01*
X160275854Y-47774621D01*
X160306208Y-47753838D01*
X160336865Y-47733469D01*
X160341234Y-47729855D01*
X160626041Y-47490873D01*
X160651782Y-47464588D01*
X160677898Y-47438653D01*
X160681476Y-47434266D01*
X160681481Y-47434261D01*
X160681485Y-47434256D01*
X160914447Y-47144510D01*
X160934591Y-47113726D01*
X160955173Y-47083212D01*
X160957835Y-47078206D01*
X161130083Y-46748725D01*
X161143857Y-46714633D01*
X161158128Y-46680683D01*
X161159767Y-46675256D01*
X161264739Y-46318591D01*
X161271639Y-46282419D01*
X161279032Y-46246401D01*
X161279586Y-46240759D01*
X161313283Y-45870499D01*
X161313026Y-45833702D01*
X161313283Y-45796905D01*
X161312730Y-45791262D01*
X161273867Y-45421508D01*
X161266464Y-45385442D01*
X161259572Y-45349316D01*
X161257934Y-45343889D01*
X161147992Y-44988725D01*
X161133732Y-44954802D01*
X161119948Y-44920686D01*
X161117286Y-44915680D01*
X161117286Y-44915679D01*
X161117283Y-44915675D01*
X160940455Y-44588635D01*
X160919855Y-44558094D01*
X160899728Y-44527337D01*
X160896145Y-44522943D01*
X160659156Y-44236474D01*
X160633040Y-44210540D01*
X160607300Y-44184255D01*
X160602938Y-44180646D01*
X160602932Y-44180640D01*
X160602925Y-44180636D01*
X160314815Y-43945658D01*
X160284150Y-43925284D01*
X160253803Y-43904505D01*
X160248821Y-43901811D01*
X160248817Y-43901808D01*
X160248813Y-43901806D01*
X159920544Y-43727263D01*
X159886495Y-43713229D01*
X159852702Y-43698745D01*
X159847286Y-43697068D01*
X159491363Y-43589608D01*
X159455242Y-43582456D01*
X159419272Y-43574811D01*
X159413636Y-43574218D01*
X159413634Y-43574218D01*
X159043618Y-43537938D01*
X158964381Y-43537938D01*
X158912047Y-43548300D01*
X148868755Y-43548300D01*
X148866688Y-43548039D01*
X148848813Y-43547541D01*
X148831081Y-43545177D01*
X148825586Y-43545025D01*
X148450586Y-43537205D01*
X148415069Y-43539941D01*
X148379396Y-43542189D01*
X148373976Y-43543107D01*
X148344541Y-43548300D01*
X148316667Y-43548300D01*
X148258821Y-43553997D01*
X148184609Y-43576510D01*
X148184593Y-43576519D01*
X148004599Y-43608274D01*
X147970295Y-43617856D01*
X147935734Y-43626990D01*
X147930595Y-43628943D01*
X147580911Y-43764614D01*
X147549066Y-43780704D01*
X147516992Y-43796351D01*
X147512331Y-43799265D01*
X147195658Y-44000273D01*
X147167568Y-44022223D01*
X147139120Y-44043821D01*
X147135114Y-44047584D01*
X146863515Y-44306273D01*
X146840203Y-44333285D01*
X146816513Y-44359973D01*
X146813314Y-44364443D01*
X146597134Y-44670959D01*
X146579533Y-44701949D01*
X146561457Y-44732765D01*
X146559187Y-44737772D01*
X146406660Y-45080440D01*
X146395405Y-45114285D01*
X146383668Y-45147998D01*
X146382414Y-45153350D01*
X146299349Y-45519117D01*
X146294889Y-45554447D01*
X146289916Y-45589855D01*
X146289725Y-45595349D01*
X146279287Y-45970285D01*
X127393700Y-45970285D01*
X127393700Y-42049700D01*
X180454300Y-42049700D01*
X180454301Y-126606300D01*
G37*
X180454301Y-126606300D02*
X127393700Y-126606300D01*
X127393700Y-123058908D01*
X156229000Y-123058908D01*
X156229000Y-123321092D01*
X156280150Y-123578238D01*
X156380483Y-123820465D01*
X156526145Y-124038463D01*
X156711537Y-124223855D01*
X156929535Y-124369517D01*
X157171762Y-124469850D01*
X157428908Y-124521000D01*
X157691092Y-124521000D01*
X157948238Y-124469850D01*
X158190465Y-124369517D01*
X158408463Y-124223855D01*
X158593855Y-124038463D01*
X158739517Y-123820465D01*
X158810000Y-123650303D01*
X158880483Y-123820465D01*
X159026145Y-124038463D01*
X159211537Y-124223855D01*
X159429535Y-124369517D01*
X159671762Y-124469850D01*
X159928908Y-124521000D01*
X160191092Y-124521000D01*
X160448238Y-124469850D01*
X160690465Y-124369517D01*
X160908463Y-124223855D01*
X161093855Y-124038463D01*
X161227157Y-123838963D01*
X161227157Y-124140000D01*
X161234513Y-124214689D01*
X161256299Y-124286508D01*
X161291678Y-124352696D01*
X161339289Y-124410711D01*
X161397304Y-124458322D01*
X161463492Y-124493701D01*
X161535311Y-124515487D01*
X161610000Y-124522843D01*
X163510000Y-124522843D01*
X163584689Y-124515487D01*
X163656508Y-124493701D01*
X163722696Y-124458322D01*
X163780711Y-124410711D01*
X163828322Y-124352696D01*
X163863701Y-124286508D01*
X163885487Y-124214689D01*
X163892843Y-124140000D01*
X163892843Y-123940000D01*
X167771928Y-123940000D01*
X167784188Y-124064482D01*
X167820498Y-124184180D01*
X167879463Y-124294494D01*
X167958815Y-124391185D01*
X168055506Y-124470537D01*
X168165820Y-124529502D01*
X168285518Y-124565812D01*
X168410000Y-124578072D01*
X168624250Y-124575000D01*
X168783000Y-124416250D01*
X168783000Y-123317000D01*
X167933750Y-123317000D01*
X167775000Y-123475750D01*
X167771928Y-123940000D01*
X163892843Y-123940000D01*
X163892843Y-122440000D01*
X167771928Y-122440000D01*
X167775000Y-122904250D01*
X167933750Y-123063000D01*
X168783000Y-123063000D01*
X168783000Y-121963750D01*
X169037000Y-121963750D01*
X169037000Y-123063000D01*
X169057000Y-123063000D01*
X169057000Y-123317000D01*
X169037000Y-123317000D01*
X169037000Y-124416250D01*
X169195750Y-124575000D01*
X169410000Y-124578072D01*
X169534482Y-124565812D01*
X169654180Y-124529502D01*
X169764494Y-124470537D01*
X169824710Y-124421119D01*
X170436951Y-125033361D01*
X170460809Y-125062432D01*
X170576839Y-125157655D01*
X170709216Y-125228412D01*
X170852853Y-125271984D01*
X170964805Y-125283010D01*
X170964807Y-125283010D01*
X171002230Y-125286696D01*
X171039653Y-125283010D01*
X172482937Y-125283010D01*
X172520360Y-125286696D01*
X172557783Y-125283010D01*
X172557786Y-125283010D01*
X172669738Y-125271984D01*
X172813375Y-125228412D01*
X172945752Y-125157655D01*
X173061782Y-125062432D01*
X173085644Y-125033356D01*
X173775318Y-124343682D01*
X177889000Y-124343682D01*
X177889000Y-124576318D01*
X177934386Y-124804485D01*
X178023412Y-125019413D01*
X178152658Y-125212843D01*
X178317157Y-125377342D01*
X178510587Y-125506588D01*
X178725515Y-125595614D01*
X178953682Y-125641000D01*
X179186318Y-125641000D01*
X179414485Y-125595614D01*
X179629413Y-125506588D01*
X179822843Y-125377342D01*
X179987342Y-125212843D01*
X180116588Y-125019413D01*
X180205614Y-124804485D01*
X180251000Y-124576318D01*
X180251000Y-124343682D01*
X180205614Y-124115515D01*
X180116588Y-123900587D01*
X179987342Y-123707157D01*
X179822843Y-123542658D01*
X179629413Y-123413412D01*
X179414485Y-123324386D01*
X179186318Y-123279000D01*
X178953682Y-123279000D01*
X178725515Y-123324386D01*
X178510587Y-123413412D01*
X178317157Y-123542658D01*
X178152658Y-123707157D01*
X178023412Y-123900587D01*
X177934386Y-124115515D01*
X177889000Y-124343682D01*
X173775318Y-124343682D01*
X179582347Y-118536653D01*
X179611422Y-118512792D01*
X179671857Y-118439151D01*
X179706645Y-118396763D01*
X179777401Y-118264386D01*
X179777402Y-118264385D01*
X179820974Y-118120748D01*
X179832000Y-118008796D01*
X179832000Y-118008793D01*
X179835686Y-117971370D01*
X179832000Y-117933947D01*
X179832000Y-117748185D01*
X179987342Y-117592843D01*
X180116588Y-117399413D01*
X180205614Y-117184485D01*
X180251000Y-116956318D01*
X180251000Y-116723682D01*
X180205614Y-116495515D01*
X180116588Y-116280587D01*
X179987342Y-116087157D01*
X179822843Y-115922658D01*
X179629413Y-115793412D01*
X179414485Y-115704386D01*
X179186318Y-115659000D01*
X178953682Y-115659000D01*
X178725515Y-115704386D01*
X178510587Y-115793412D01*
X178317157Y-115922658D01*
X178152658Y-116087157D01*
X178023412Y-116280587D01*
X177934386Y-116495515D01*
X177889000Y-116723682D01*
X177889000Y-116956318D01*
X177934386Y-117184485D01*
X178023412Y-117399413D01*
X178152658Y-117592843D01*
X178261778Y-117701963D01*
X172303977Y-123659763D01*
X172318252Y-123612706D01*
X172331000Y-123483273D01*
X172331000Y-122896727D01*
X172318252Y-122767294D01*
X172267875Y-122601225D01*
X172186068Y-122448175D01*
X172075975Y-122314025D01*
X171941825Y-122203932D01*
X171788775Y-122122125D01*
X171622706Y-122071748D01*
X171450000Y-122054738D01*
X171277295Y-122071748D01*
X171111226Y-122122125D01*
X170958176Y-122203932D01*
X170824026Y-122314025D01*
X170815001Y-122325023D01*
X170805975Y-122314025D01*
X170671825Y-122203932D01*
X170518775Y-122122125D01*
X170352706Y-122071748D01*
X170180000Y-122054738D01*
X170007295Y-122071748D01*
X169943523Y-122091093D01*
X169940537Y-122085506D01*
X169861185Y-121988815D01*
X169764494Y-121909463D01*
X169654180Y-121850498D01*
X169534482Y-121814188D01*
X169410000Y-121801928D01*
X169195750Y-121805000D01*
X169037000Y-121963750D01*
X168783000Y-121963750D01*
X168624250Y-121805000D01*
X168410000Y-121801928D01*
X168285518Y-121814188D01*
X168165820Y-121850498D01*
X168055506Y-121909463D01*
X167958815Y-121988815D01*
X167879463Y-122085506D01*
X167820498Y-122195820D01*
X167784188Y-122315518D01*
X167771928Y-122440000D01*
X163892843Y-122440000D01*
X163892843Y-122240000D01*
X163885487Y-122165311D01*
X163863701Y-122093492D01*
X163828322Y-122027304D01*
X163780711Y-121969289D01*
X163722696Y-121921678D01*
X163656508Y-121886299D01*
X163584689Y-121864513D01*
X163510000Y-121857157D01*
X161610000Y-121857157D01*
X161535311Y-121864513D01*
X161463492Y-121886299D01*
X161397304Y-121921678D01*
X161339289Y-121969289D01*
X161291678Y-122027304D01*
X161256299Y-122093492D01*
X161234513Y-122165311D01*
X161227157Y-122240000D01*
X161227157Y-122541037D01*
X161093855Y-122341537D01*
X160908463Y-122156145D01*
X160690465Y-122010483D01*
X160448238Y-121910150D01*
X160191092Y-121859000D01*
X159928908Y-121859000D01*
X159671762Y-121910150D01*
X159429535Y-122010483D01*
X159211537Y-122156145D01*
X159026145Y-122341537D01*
X158880483Y-122559535D01*
X158810000Y-122729697D01*
X158739517Y-122559535D01*
X158593855Y-122341537D01*
X158408463Y-122156145D01*
X158190465Y-122010483D01*
X157948238Y-121910150D01*
X157691092Y-121859000D01*
X157428908Y-121859000D01*
X157171762Y-121910150D01*
X156929535Y-122010483D01*
X156711537Y-122156145D01*
X156526145Y-122341537D01*
X156380483Y-122559535D01*
X156280150Y-122801762D01*
X156229000Y-123058908D01*
X127393700Y-123058908D01*
X127393700Y-117310000D01*
X161377157Y-117310000D01*
X161377157Y-118910000D01*
X161384513Y-118984689D01*
X161406299Y-119056508D01*
X161441678Y-119122696D01*
X161489289Y-119180711D01*
X161547304Y-119228322D01*
X161613492Y-119263701D01*
X161685311Y-119285487D01*
X161760000Y-119292843D01*
X163360000Y-119292843D01*
X163434689Y-119285487D01*
X163506508Y-119263701D01*
X163572696Y-119228322D01*
X163630711Y-119180711D01*
X163678322Y-119122696D01*
X163713701Y-119056508D01*
X163735487Y-118984689D01*
X163742843Y-118910000D01*
X163742843Y-117310000D01*
X163735487Y-117235311D01*
X163713701Y-117163492D01*
X163678322Y-117097304D01*
X163630711Y-117039289D01*
X163572696Y-116991678D01*
X163506508Y-116956299D01*
X163434689Y-116934513D01*
X163360000Y-116927157D01*
X163138391Y-116927157D01*
X163176292Y-116913603D01*
X163301514Y-116846671D01*
X163373097Y-116602702D01*
X162560000Y-115789605D01*
X161746903Y-116602702D01*
X161818486Y-116846671D01*
X161988585Y-116927157D01*
X161760000Y-116927157D01*
X161685311Y-116934513D01*
X161613492Y-116956299D01*
X161547304Y-116991678D01*
X161489289Y-117039289D01*
X161441678Y-117097304D01*
X161406299Y-117163492D01*
X161384513Y-117235311D01*
X161377157Y-117310000D01*
X127393700Y-117310000D01*
X127393700Y-114139360D01*
X128229000Y-114139360D01*
X128229000Y-114460640D01*
X128291678Y-114775745D01*
X128414626Y-115072568D01*
X128593119Y-115339702D01*
X128820298Y-115566881D01*
X129087432Y-115745374D01*
X129384255Y-115868322D01*
X129699360Y-115931000D01*
X130020640Y-115931000D01*
X130335745Y-115868322D01*
X130632568Y-115745374D01*
X130899702Y-115566881D01*
X131081583Y-115385000D01*
X148136928Y-115385000D01*
X148149188Y-115509482D01*
X148185498Y-115629180D01*
X148244463Y-115739494D01*
X148323815Y-115836185D01*
X148420506Y-115915537D01*
X148530820Y-115974502D01*
X148650518Y-116010812D01*
X148775000Y-116023072D01*
X149574250Y-116020000D01*
X149733000Y-115861250D01*
X149733000Y-114427000D01*
X149987000Y-114427000D01*
X149987000Y-115861250D01*
X150145750Y-116020000D01*
X150945000Y-116023072D01*
X151069482Y-116010812D01*
X151189180Y-115974502D01*
X151299494Y-115915537D01*
X151396185Y-115836185D01*
X151475537Y-115739494D01*
X151507064Y-115680512D01*
X161119783Y-115680512D01*
X161161213Y-115960130D01*
X161256397Y-116226292D01*
X161323329Y-116351514D01*
X161567298Y-116423097D01*
X162380395Y-115610000D01*
X162739605Y-115610000D01*
X163552702Y-116423097D01*
X163796671Y-116351514D01*
X163917571Y-116096004D01*
X163986300Y-115821816D01*
X164000217Y-115539488D01*
X163958787Y-115259870D01*
X163863603Y-114993708D01*
X163796671Y-114868486D01*
X163552702Y-114796903D01*
X162739605Y-115610000D01*
X162380395Y-115610000D01*
X161567298Y-114796903D01*
X161323329Y-114868486D01*
X161202429Y-115123996D01*
X161133700Y-115398184D01*
X161119783Y-115680512D01*
X151507064Y-115680512D01*
X151534502Y-115629180D01*
X151570812Y-115509482D01*
X151583072Y-115385000D01*
X151580122Y-114617298D01*
X161746903Y-114617298D01*
X162560000Y-115430395D01*
X163220395Y-114770000D01*
X171537157Y-114770000D01*
X171537157Y-116370000D01*
X171544513Y-116444689D01*
X171566299Y-116516508D01*
X171601678Y-116582696D01*
X171649289Y-116640711D01*
X171707304Y-116688322D01*
X171773492Y-116723701D01*
X171845311Y-116745487D01*
X171920000Y-116752843D01*
X173520000Y-116752843D01*
X173594689Y-116745487D01*
X173666508Y-116723701D01*
X173732696Y-116688322D01*
X173769649Y-116657996D01*
X173790630Y-116678977D01*
X173906903Y-116562704D01*
X173978486Y-116806671D01*
X174233996Y-116927571D01*
X174508184Y-116996300D01*
X174790512Y-117010217D01*
X175070130Y-116968787D01*
X175336292Y-116873603D01*
X175461514Y-116806671D01*
X175533097Y-116562702D01*
X174720000Y-115749605D01*
X174705858Y-115763748D01*
X174526253Y-115584143D01*
X174540395Y-115570000D01*
X174899605Y-115570000D01*
X175712702Y-116383097D01*
X175956671Y-116311514D01*
X176077571Y-116056004D01*
X176146300Y-115781816D01*
X176160217Y-115499488D01*
X176118787Y-115219870D01*
X176023603Y-114953708D01*
X175956671Y-114828486D01*
X175712702Y-114756903D01*
X174899605Y-115570000D01*
X174540395Y-115570000D01*
X174526253Y-115555858D01*
X174705858Y-115376253D01*
X174720000Y-115390395D01*
X175533097Y-114577298D01*
X175461514Y-114333329D01*
X175206004Y-114212429D01*
X174931816Y-114143700D01*
X174649488Y-114129783D01*
X174369870Y-114171213D01*
X174103708Y-114266397D01*
X173978486Y-114333329D01*
X173906903Y-114577296D01*
X173790630Y-114461023D01*
X173769649Y-114482004D01*
X173732696Y-114451678D01*
X173666508Y-114416299D01*
X173594689Y-114394513D01*
X173520000Y-114387157D01*
X171920000Y-114387157D01*
X171845311Y-114394513D01*
X171773492Y-114416299D01*
X171707304Y-114451678D01*
X171649289Y-114499289D01*
X171601678Y-114557304D01*
X171566299Y-114623492D01*
X171544513Y-114695311D01*
X171537157Y-114770000D01*
X163220395Y-114770000D01*
X163373097Y-114617298D01*
X163301514Y-114373329D01*
X163046004Y-114252429D01*
X162771816Y-114183700D01*
X162489488Y-114169783D01*
X162209870Y-114211213D01*
X161943708Y-114306397D01*
X161818486Y-114373329D01*
X161746903Y-114617298D01*
X151580122Y-114617298D01*
X151580000Y-114585750D01*
X151421250Y-114427000D01*
X149987000Y-114427000D01*
X149733000Y-114427000D01*
X148298750Y-114427000D01*
X148140000Y-114585750D01*
X148136928Y-115385000D01*
X131081583Y-115385000D01*
X131126881Y-115339702D01*
X131305374Y-115072568D01*
X131428322Y-114775745D01*
X131491000Y-114460640D01*
X131491000Y-114139360D01*
X131428322Y-113824255D01*
X131305374Y-113527432D01*
X131126881Y-113260298D01*
X131081583Y-113215000D01*
X148136928Y-113215000D01*
X148140000Y-114014250D01*
X148298750Y-114173000D01*
X149733000Y-114173000D01*
X149733000Y-112738750D01*
X149987000Y-112738750D01*
X149987000Y-114173000D01*
X151421250Y-114173000D01*
X151580000Y-114014250D01*
X151583072Y-113215000D01*
X151570812Y-113090518D01*
X151534502Y-112970820D01*
X151475537Y-112860506D01*
X151396185Y-112763815D01*
X151299494Y-112684463D01*
X151189180Y-112625498D01*
X151069482Y-112589188D01*
X150945000Y-112576928D01*
X150145750Y-112580000D01*
X149987000Y-112738750D01*
X149733000Y-112738750D01*
X149574250Y-112580000D01*
X148775000Y-112576928D01*
X148650518Y-112589188D01*
X148530820Y-112625498D01*
X148420506Y-112684463D01*
X148323815Y-112763815D01*
X148244463Y-112860506D01*
X148185498Y-112970820D01*
X148149188Y-113090518D01*
X148136928Y-113215000D01*
X131081583Y-113215000D01*
X130899702Y-113033119D01*
X130632568Y-112854626D01*
X130335745Y-112731678D01*
X130020640Y-112669000D01*
X129699360Y-112669000D01*
X129384255Y-112731678D01*
X129087432Y-112854626D01*
X128820298Y-113033119D01*
X128593119Y-113260298D01*
X128414626Y-113527432D01*
X128291678Y-113824255D01*
X128229000Y-114139360D01*
X127393700Y-114139360D01*
X127393700Y-111647424D01*
X155067000Y-111647424D01*
X155067000Y-111872576D01*
X155110925Y-112093401D01*
X155197087Y-112301413D01*
X155322174Y-112488620D01*
X155481380Y-112647826D01*
X155668587Y-112772913D01*
X155876599Y-112859075D01*
X156097424Y-112903000D01*
X156322576Y-112903000D01*
X156543401Y-112859075D01*
X156751413Y-112772913D01*
X156822274Y-112725565D01*
X163044040Y-112725565D01*
X163111020Y-112965656D01*
X163360048Y-113082756D01*
X163627135Y-113149023D01*
X163902017Y-113161910D01*
X164174133Y-113120922D01*
X164433023Y-113027636D01*
X164548980Y-112965656D01*
X164615960Y-112725565D01*
X163830000Y-111939605D01*
X163044040Y-112725565D01*
X156822274Y-112725565D01*
X156938620Y-112647826D01*
X157097826Y-112488620D01*
X157222913Y-112301413D01*
X157309075Y-112093401D01*
X157353000Y-111872576D01*
X157353000Y-111832017D01*
X162428090Y-111832017D01*
X162469078Y-112104133D01*
X162562364Y-112363023D01*
X162624344Y-112478980D01*
X162864435Y-112545960D01*
X163650395Y-111760000D01*
X164009605Y-111760000D01*
X164795565Y-112545960D01*
X165035656Y-112478980D01*
X165152756Y-112229952D01*
X165219023Y-111962865D01*
X165231910Y-111687983D01*
X165190922Y-111415867D01*
X165097636Y-111156977D01*
X165035656Y-111041020D01*
X164795565Y-110974040D01*
X164009605Y-111760000D01*
X163650395Y-111760000D01*
X162864435Y-110974040D01*
X162624344Y-111041020D01*
X162507244Y-111290048D01*
X162440977Y-111557135D01*
X162428090Y-111832017D01*
X157353000Y-111832017D01*
X157353000Y-111647424D01*
X157309075Y-111426599D01*
X157222913Y-111218587D01*
X157097826Y-111031380D01*
X156938620Y-110872174D01*
X156751413Y-110747087D01*
X156543401Y-110660925D01*
X156322576Y-110617000D01*
X156097424Y-110617000D01*
X155876599Y-110660925D01*
X155668587Y-110747087D01*
X155481380Y-110872174D01*
X155322174Y-111031380D01*
X155197087Y-111218587D01*
X155110925Y-111426599D01*
X155067000Y-111647424D01*
X127393700Y-111647424D01*
X127393700Y-109107424D01*
X155067000Y-109107424D01*
X155067000Y-109332576D01*
X155110925Y-109553401D01*
X155197087Y-109761413D01*
X155322174Y-109948620D01*
X155481380Y-110107826D01*
X155668587Y-110232913D01*
X155876599Y-110319075D01*
X156097424Y-110363000D01*
X156322576Y-110363000D01*
X156543401Y-110319075D01*
X156751413Y-110232913D01*
X156938620Y-110107826D01*
X157097826Y-109948620D01*
X157222913Y-109761413D01*
X157309075Y-109553401D01*
X157353000Y-109332576D01*
X157353000Y-109107424D01*
X157309075Y-108886599D01*
X157222913Y-108678587D01*
X157097826Y-108491380D01*
X156938620Y-108332174D01*
X156751413Y-108207087D01*
X156543401Y-108120925D01*
X156322576Y-108077000D01*
X156097424Y-108077000D01*
X155876599Y-108120925D01*
X155668587Y-108207087D01*
X155481380Y-108332174D01*
X155322174Y-108491380D01*
X155197087Y-108678587D01*
X155110925Y-108886599D01*
X155067000Y-109107424D01*
X127393700Y-109107424D01*
X127393700Y-104027424D01*
X155067000Y-104027424D01*
X155067000Y-104252576D01*
X155110925Y-104473401D01*
X155197087Y-104681413D01*
X155322174Y-104868620D01*
X155481380Y-105027826D01*
X155668587Y-105152913D01*
X155876599Y-105239075D01*
X156097424Y-105283000D01*
X156322576Y-105283000D01*
X156543401Y-105239075D01*
X156594433Y-105217937D01*
X156275370Y-105537000D01*
X156097424Y-105537000D01*
X155876599Y-105580925D01*
X155668587Y-105667087D01*
X155481380Y-105792174D01*
X155322174Y-105951380D01*
X155197087Y-106138587D01*
X155110925Y-106346599D01*
X155067000Y-106567424D01*
X155067000Y-106792576D01*
X155110925Y-107013401D01*
X155197087Y-107221413D01*
X155322174Y-107408620D01*
X155481380Y-107567826D01*
X155668587Y-107692913D01*
X155876599Y-107779075D01*
X156097424Y-107823000D01*
X156322576Y-107823000D01*
X156543401Y-107779075D01*
X156751413Y-107692913D01*
X156938620Y-107567826D01*
X157064446Y-107442000D01*
X160974370Y-107442000D01*
X162687000Y-109154631D01*
X162687000Y-109332576D01*
X162730925Y-109553401D01*
X162817087Y-109761413D01*
X162942174Y-109948620D01*
X163101380Y-110107826D01*
X163288587Y-110232913D01*
X163496599Y-110319075D01*
X163717424Y-110363000D01*
X163725386Y-110363000D01*
X163485867Y-110399078D01*
X163226977Y-110492364D01*
X163111020Y-110554344D01*
X163044040Y-110794435D01*
X163830000Y-111580395D01*
X164615960Y-110794435D01*
X164548980Y-110554344D01*
X164299952Y-110437244D01*
X164032865Y-110370977D01*
X163862714Y-110363000D01*
X163942576Y-110363000D01*
X164163401Y-110319075D01*
X164371413Y-110232913D01*
X164558620Y-110107826D01*
X164717826Y-109948620D01*
X164842913Y-109761413D01*
X164929075Y-109553401D01*
X164973000Y-109332576D01*
X164973000Y-109107424D01*
X164929075Y-108886599D01*
X164907936Y-108835566D01*
X166878000Y-110805630D01*
X166878000Y-110851815D01*
X166722658Y-111007157D01*
X166593412Y-111200587D01*
X166504386Y-111415515D01*
X166459000Y-111643682D01*
X166459000Y-111876318D01*
X166504386Y-112104485D01*
X166593412Y-112319413D01*
X166722658Y-112512843D01*
X166887157Y-112677342D01*
X167080587Y-112806588D01*
X167295515Y-112895614D01*
X167523682Y-112941000D01*
X167756318Y-112941000D01*
X167984485Y-112895614D01*
X168199413Y-112806588D01*
X168280058Y-112752702D01*
X170636903Y-112752702D01*
X170708486Y-112996671D01*
X170963996Y-113117571D01*
X171238184Y-113186300D01*
X171520512Y-113200217D01*
X171800130Y-113158787D01*
X172066292Y-113063603D01*
X172191514Y-112996671D01*
X172263097Y-112752702D01*
X171450000Y-111939605D01*
X170636903Y-112752702D01*
X168280058Y-112752702D01*
X168392843Y-112677342D01*
X168557342Y-112512843D01*
X168686588Y-112319413D01*
X168775614Y-112104485D01*
X168821000Y-111876318D01*
X168821000Y-111830512D01*
X170009783Y-111830512D01*
X170051213Y-112110130D01*
X170146397Y-112376292D01*
X170213329Y-112501514D01*
X170457298Y-112573097D01*
X171270395Y-111760000D01*
X171629605Y-111760000D01*
X172442702Y-112573097D01*
X172686671Y-112501514D01*
X172807571Y-112246004D01*
X172876300Y-111971816D01*
X172890217Y-111689488D01*
X172883431Y-111643682D01*
X175349000Y-111643682D01*
X175349000Y-111876318D01*
X175394386Y-112104485D01*
X175483412Y-112319413D01*
X175612658Y-112512843D01*
X175777157Y-112677342D01*
X175970587Y-112806588D01*
X176185515Y-112895614D01*
X176413682Y-112941000D01*
X176646318Y-112941000D01*
X176874485Y-112895614D01*
X177089413Y-112806588D01*
X177282843Y-112677342D01*
X177447342Y-112512843D01*
X177576588Y-112319413D01*
X177665614Y-112104485D01*
X177711000Y-111876318D01*
X177711000Y-111643682D01*
X177665614Y-111415515D01*
X177576588Y-111200587D01*
X177447342Y-111007157D01*
X177282843Y-110842658D01*
X177089413Y-110713412D01*
X176874485Y-110624386D01*
X176646318Y-110579000D01*
X176413682Y-110579000D01*
X176185515Y-110624386D01*
X175970587Y-110713412D01*
X175777157Y-110842658D01*
X175612658Y-111007157D01*
X175483412Y-111200587D01*
X175394386Y-111415515D01*
X175349000Y-111643682D01*
X172883431Y-111643682D01*
X172848787Y-111409870D01*
X172753603Y-111143708D01*
X172686671Y-111018486D01*
X172442702Y-110946903D01*
X171629605Y-111760000D01*
X171270395Y-111760000D01*
X170457298Y-110946903D01*
X170213329Y-111018486D01*
X170092429Y-111273996D01*
X170023700Y-111548184D01*
X170009783Y-111830512D01*
X168821000Y-111830512D01*
X168821000Y-111643682D01*
X168775614Y-111415515D01*
X168686588Y-111200587D01*
X168557342Y-111007157D01*
X168402000Y-110851815D01*
X168402000Y-110767298D01*
X170636903Y-110767298D01*
X171450000Y-111580395D01*
X172263097Y-110767298D01*
X172191514Y-110523329D01*
X171936004Y-110402429D01*
X171661816Y-110333700D01*
X171379488Y-110319783D01*
X171099870Y-110361213D01*
X170833708Y-110456397D01*
X170708486Y-110523329D01*
X170636903Y-110767298D01*
X168402000Y-110767298D01*
X168402000Y-110527423D01*
X168405686Y-110490000D01*
X168396731Y-110399078D01*
X168390974Y-110340622D01*
X168347402Y-110196985D01*
X168276646Y-110064609D01*
X168276645Y-110064607D01*
X168241857Y-110022219D01*
X168181422Y-109948578D01*
X168152347Y-109924717D01*
X164973000Y-106745370D01*
X164973000Y-106567424D01*
X164929075Y-106346599D01*
X164842913Y-106138587D01*
X164717826Y-105951380D01*
X164558620Y-105792174D01*
X164371413Y-105667087D01*
X164163401Y-105580925D01*
X163942576Y-105537000D01*
X163717424Y-105537000D01*
X163496599Y-105580925D01*
X163288587Y-105667087D01*
X163101380Y-105792174D01*
X162942174Y-105951380D01*
X162817087Y-106138587D01*
X162730925Y-106346599D01*
X162687000Y-106567424D01*
X162687000Y-106792576D01*
X162730925Y-107013401D01*
X162752063Y-107064433D01*
X161855284Y-106167654D01*
X161831422Y-106138578D01*
X161715392Y-106043355D01*
X161583015Y-105972598D01*
X161439378Y-105929026D01*
X161327426Y-105918000D01*
X161327423Y-105918000D01*
X161290000Y-105914314D01*
X161252577Y-105918000D01*
X158049631Y-105918000D01*
X159262353Y-104705278D01*
X159291422Y-104681422D01*
X159386645Y-104565392D01*
X159457402Y-104433015D01*
X159500974Y-104289378D01*
X159512000Y-104177426D01*
X159512000Y-104177424D01*
X159515686Y-104140001D01*
X159512000Y-104102578D01*
X159512000Y-104027424D01*
X162687000Y-104027424D01*
X162687000Y-104252576D01*
X162730925Y-104473401D01*
X162817087Y-104681413D01*
X162942174Y-104868620D01*
X163101380Y-105027826D01*
X163288587Y-105152913D01*
X163496599Y-105239075D01*
X163717424Y-105283000D01*
X163942576Y-105283000D01*
X164163401Y-105239075D01*
X164371413Y-105152913D01*
X164558620Y-105027826D01*
X164717826Y-104868620D01*
X164842913Y-104681413D01*
X164929075Y-104473401D01*
X164973000Y-104252576D01*
X164973000Y-104027424D01*
X164972256Y-104023682D01*
X166459000Y-104023682D01*
X166459000Y-104256318D01*
X166504386Y-104484485D01*
X166593412Y-104699413D01*
X166722658Y-104892843D01*
X166887157Y-105057342D01*
X167080587Y-105186588D01*
X167295515Y-105275614D01*
X167523682Y-105321000D01*
X167756318Y-105321000D01*
X167984485Y-105275614D01*
X168199413Y-105186588D01*
X168392843Y-105057342D01*
X168548185Y-104902000D01*
X170541815Y-104902000D01*
X170697157Y-105057342D01*
X170890587Y-105186588D01*
X171105515Y-105275614D01*
X171333682Y-105321000D01*
X171566318Y-105321000D01*
X171794485Y-105275614D01*
X172009413Y-105186588D01*
X172202843Y-105057342D01*
X172367342Y-104892843D01*
X172496588Y-104699413D01*
X172585614Y-104484485D01*
X172631000Y-104256318D01*
X172631000Y-104023682D01*
X172585614Y-103795515D01*
X172496588Y-103580587D01*
X172367342Y-103387157D01*
X172202843Y-103222658D01*
X172009413Y-103093412D01*
X171794485Y-103004386D01*
X171566318Y-102959000D01*
X171333682Y-102959000D01*
X171105515Y-103004386D01*
X170890587Y-103093412D01*
X170697157Y-103222658D01*
X170541815Y-103378000D01*
X168548185Y-103378000D01*
X168392843Y-103222658D01*
X168199413Y-103093412D01*
X167984485Y-103004386D01*
X167756318Y-102959000D01*
X167523682Y-102959000D01*
X167295515Y-103004386D01*
X167080587Y-103093412D01*
X166887157Y-103222658D01*
X166722658Y-103387157D01*
X166593412Y-103580587D01*
X166504386Y-103795515D01*
X166459000Y-104023682D01*
X164972256Y-104023682D01*
X164929075Y-103806599D01*
X164842913Y-103598587D01*
X164717826Y-103411380D01*
X164558620Y-103252174D01*
X164371413Y-103127087D01*
X164163401Y-103040925D01*
X163942576Y-102997000D01*
X163717424Y-102997000D01*
X163496599Y-103040925D01*
X163288587Y-103127087D01*
X163101380Y-103252174D01*
X162942174Y-103411380D01*
X162817087Y-103598587D01*
X162730925Y-103806599D01*
X162687000Y-104027424D01*
X159512000Y-104027424D01*
X159512000Y-101238185D01*
X159667342Y-101082843D01*
X159796588Y-100889413D01*
X159885614Y-100674485D01*
X159931000Y-100446318D01*
X159931000Y-100213682D01*
X165189000Y-100213682D01*
X165189000Y-100446318D01*
X165234386Y-100674485D01*
X165323412Y-100889413D01*
X165452658Y-101082843D01*
X165617157Y-101247342D01*
X165810587Y-101376588D01*
X166025515Y-101465614D01*
X166253682Y-101511000D01*
X166486318Y-101511000D01*
X166714485Y-101465614D01*
X166929413Y-101376588D01*
X167122843Y-101247342D01*
X167287342Y-101082843D01*
X167416588Y-100889413D01*
X167505614Y-100674485D01*
X167551000Y-100446318D01*
X167551000Y-100213682D01*
X168999000Y-100213682D01*
X168999000Y-100446318D01*
X169044386Y-100674485D01*
X169133412Y-100889413D01*
X169262658Y-101082843D01*
X169427157Y-101247342D01*
X169620587Y-101376588D01*
X169835515Y-101465614D01*
X170063682Y-101511000D01*
X170296318Y-101511000D01*
X170524485Y-101465614D01*
X170739413Y-101376588D01*
X170932843Y-101247342D01*
X171097342Y-101082843D01*
X171226588Y-100889413D01*
X171315614Y-100674485D01*
X171361000Y-100446318D01*
X171361000Y-100213682D01*
X171315614Y-99985515D01*
X171226588Y-99770587D01*
X171097342Y-99577157D01*
X170932843Y-99412658D01*
X170739413Y-99283412D01*
X170524485Y-99194386D01*
X170296318Y-99149000D01*
X170063682Y-99149000D01*
X169835515Y-99194386D01*
X169620587Y-99283412D01*
X169427157Y-99412658D01*
X169262658Y-99577157D01*
X169133412Y-99770587D01*
X169044386Y-99985515D01*
X168999000Y-100213682D01*
X167551000Y-100213682D01*
X167505614Y-99985515D01*
X167416588Y-99770587D01*
X167287342Y-99577157D01*
X167122843Y-99412658D01*
X166929413Y-99283412D01*
X166714485Y-99194386D01*
X166486318Y-99149000D01*
X166253682Y-99149000D01*
X166025515Y-99194386D01*
X165810587Y-99283412D01*
X165617157Y-99412658D01*
X165452658Y-99577157D01*
X165323412Y-99770587D01*
X165234386Y-99985515D01*
X165189000Y-100213682D01*
X159931000Y-100213682D01*
X159885614Y-99985515D01*
X159796588Y-99770587D01*
X159667342Y-99577157D01*
X159502843Y-99412658D01*
X159309413Y-99283412D01*
X159094485Y-99194386D01*
X158866318Y-99149000D01*
X158633682Y-99149000D01*
X158405515Y-99194386D01*
X158190587Y-99283412D01*
X157997157Y-99412658D01*
X157832658Y-99577157D01*
X157703412Y-99770587D01*
X157614386Y-99985515D01*
X157569000Y-100213682D01*
X157569000Y-100446318D01*
X157614386Y-100674485D01*
X157703412Y-100889413D01*
X157832658Y-101082843D01*
X157988001Y-101238186D01*
X157988000Y-103824369D01*
X157287937Y-104524432D01*
X157309075Y-104473401D01*
X157353000Y-104252576D01*
X157353000Y-104027424D01*
X157309075Y-103806599D01*
X157222913Y-103598587D01*
X157097826Y-103411380D01*
X156938620Y-103252174D01*
X156751413Y-103127087D01*
X156543401Y-103040925D01*
X156322576Y-102997000D01*
X156097424Y-102997000D01*
X155876599Y-103040925D01*
X155668587Y-103127087D01*
X155481380Y-103252174D01*
X155322174Y-103411380D01*
X155197087Y-103598587D01*
X155110925Y-103806599D01*
X155067000Y-104027424D01*
X127393700Y-104027424D01*
X127393700Y-66310000D01*
X142127157Y-66310000D01*
X142127157Y-68310000D01*
X142134513Y-68384689D01*
X142156299Y-68456508D01*
X142191678Y-68522696D01*
X142239289Y-68580711D01*
X142297304Y-68628322D01*
X142363492Y-68663701D01*
X142435311Y-68685487D01*
X142510000Y-68692843D01*
X144510000Y-68692843D01*
X144584689Y-68685487D01*
X144656508Y-68663701D01*
X144722696Y-68628322D01*
X144780711Y-68580711D01*
X144828322Y-68522696D01*
X144863701Y-68456508D01*
X144885487Y-68384689D01*
X144892843Y-68310000D01*
X144892843Y-66310000D01*
X144885487Y-66235311D01*
X144863701Y-66163492D01*
X144828322Y-66097304D01*
X144780711Y-66039289D01*
X144722696Y-65991678D01*
X144656508Y-65956299D01*
X144584689Y-65934513D01*
X144510000Y-65927157D01*
X144263926Y-65927157D01*
X144390336Y-65842693D01*
X144582693Y-65650336D01*
X144640462Y-65563879D01*
X146558000Y-67481418D01*
X146558001Y-99421814D01*
X146402658Y-99577157D01*
X146273412Y-99770587D01*
X146184386Y-99985515D01*
X146139000Y-100213682D01*
X146139000Y-100446318D01*
X146184386Y-100674485D01*
X146273412Y-100889413D01*
X146402658Y-101082843D01*
X146567157Y-101247342D01*
X146760587Y-101376588D01*
X146975515Y-101465614D01*
X147203682Y-101511000D01*
X147436318Y-101511000D01*
X147664485Y-101465614D01*
X147879413Y-101376588D01*
X148072843Y-101247342D01*
X148237342Y-101082843D01*
X148366588Y-100889413D01*
X148455614Y-100674485D01*
X148501000Y-100446318D01*
X148501000Y-100213682D01*
X153759000Y-100213682D01*
X153759000Y-100446318D01*
X153804386Y-100674485D01*
X153893412Y-100889413D01*
X154022658Y-101082843D01*
X154187157Y-101247342D01*
X154380587Y-101376588D01*
X154595515Y-101465614D01*
X154823682Y-101511000D01*
X155056318Y-101511000D01*
X155284485Y-101465614D01*
X155499413Y-101376588D01*
X155692843Y-101247342D01*
X155857342Y-101082843D01*
X155986588Y-100889413D01*
X156075614Y-100674485D01*
X156121000Y-100446318D01*
X156121000Y-100213682D01*
X156075614Y-99985515D01*
X155986588Y-99770587D01*
X155857342Y-99577157D01*
X155692843Y-99412658D01*
X155499413Y-99283412D01*
X155284485Y-99194386D01*
X155056318Y-99149000D01*
X154823682Y-99149000D01*
X154595515Y-99194386D01*
X154380587Y-99283412D01*
X154187157Y-99412658D01*
X154022658Y-99577157D01*
X153893412Y-99770587D01*
X153804386Y-99985515D01*
X153759000Y-100213682D01*
X148501000Y-100213682D01*
X148455614Y-99985515D01*
X148366588Y-99770587D01*
X148237342Y-99577157D01*
X148082000Y-99421815D01*
X148082000Y-67203209D01*
X148085686Y-67165786D01*
X148082000Y-67128361D01*
X148070974Y-67016409D01*
X148027402Y-66872772D01*
X147956645Y-66740395D01*
X147861422Y-66624365D01*
X147832353Y-66600509D01*
X147541844Y-66310000D01*
X163717157Y-66310000D01*
X163717157Y-68310000D01*
X163724513Y-68384689D01*
X163746299Y-68456508D01*
X163781678Y-68522696D01*
X163829289Y-68580711D01*
X163887304Y-68628322D01*
X163953492Y-68663701D01*
X164025311Y-68685487D01*
X164100000Y-68692843D01*
X166100000Y-68692843D01*
X166174689Y-68685487D01*
X166246508Y-68663701D01*
X166312696Y-68628322D01*
X166370711Y-68580711D01*
X166418322Y-68522696D01*
X166453701Y-68456508D01*
X166475487Y-68384689D01*
X166482843Y-68310000D01*
X166482843Y-66310000D01*
X166475487Y-66235311D01*
X166453701Y-66163492D01*
X166418322Y-66097304D01*
X166370711Y-66039289D01*
X166312696Y-65991678D01*
X166246508Y-65956299D01*
X166174689Y-65934513D01*
X166100000Y-65927157D01*
X165853926Y-65927157D01*
X165980336Y-65842693D01*
X166172693Y-65650336D01*
X166230462Y-65563879D01*
X175656999Y-74990416D01*
X175657000Y-103342815D01*
X175612658Y-103387157D01*
X175483412Y-103580587D01*
X175394386Y-103795515D01*
X175349000Y-104023682D01*
X175349000Y-104256318D01*
X175394386Y-104484485D01*
X175483412Y-104699413D01*
X175612658Y-104892843D01*
X175777157Y-105057342D01*
X175970587Y-105186588D01*
X176185515Y-105275614D01*
X176413682Y-105321000D01*
X176646318Y-105321000D01*
X176874485Y-105275614D01*
X177089413Y-105186588D01*
X177282843Y-105057342D01*
X177447342Y-104892843D01*
X177576588Y-104699413D01*
X177665614Y-104484485D01*
X177711000Y-104256318D01*
X177711000Y-104023682D01*
X177665614Y-103795515D01*
X177576588Y-103580587D01*
X177447342Y-103387157D01*
X177282843Y-103222658D01*
X177180999Y-103154608D01*
X177180999Y-101336773D01*
X177240587Y-101376588D01*
X177455515Y-101465614D01*
X177683682Y-101511000D01*
X177916318Y-101511000D01*
X178144485Y-101465614D01*
X178359413Y-101376588D01*
X178552843Y-101247342D01*
X178717342Y-101082843D01*
X178846588Y-100889413D01*
X178935614Y-100674485D01*
X178981000Y-100446318D01*
X178981000Y-100213682D01*
X178935614Y-99985515D01*
X178846588Y-99770587D01*
X178717342Y-99577157D01*
X178552843Y-99412658D01*
X178359413Y-99283412D01*
X178144485Y-99194386D01*
X177916318Y-99149000D01*
X177683682Y-99149000D01*
X177455515Y-99194386D01*
X177240587Y-99283412D01*
X177180999Y-99323227D01*
X177180999Y-74712209D01*
X177184685Y-74674786D01*
X177180999Y-74637360D01*
X177169973Y-74525408D01*
X177126401Y-74381771D01*
X177055645Y-74249395D01*
X177055644Y-74249393D01*
X177020856Y-74207005D01*
X176960421Y-74133364D01*
X176931346Y-74109503D01*
X167079497Y-64257654D01*
X167055635Y-64228578D01*
X166939605Y-64133355D01*
X166807228Y-64062598D01*
X166663591Y-64019026D01*
X166551639Y-64008000D01*
X166551636Y-64008000D01*
X166514213Y-64004314D01*
X166476790Y-64008000D01*
X166251762Y-64008000D01*
X166172693Y-63889664D01*
X165980336Y-63697307D01*
X165754149Y-63546174D01*
X165502823Y-63442071D01*
X165236017Y-63389000D01*
X164963983Y-63389000D01*
X164697177Y-63442071D01*
X164445851Y-63546174D01*
X164219664Y-63697307D01*
X164027307Y-63889664D01*
X163876174Y-64115851D01*
X163772071Y-64367177D01*
X163719000Y-64633983D01*
X163719000Y-64906017D01*
X163772071Y-65172823D01*
X163876174Y-65424149D01*
X164027307Y-65650336D01*
X164219664Y-65842693D01*
X164346074Y-65927157D01*
X164100000Y-65927157D01*
X164025311Y-65934513D01*
X163953492Y-65956299D01*
X163887304Y-65991678D01*
X163829289Y-66039289D01*
X163781678Y-66097304D01*
X163746299Y-66163492D01*
X163724513Y-66235311D01*
X163717157Y-66310000D01*
X147541844Y-66310000D01*
X145489497Y-64257654D01*
X145465635Y-64228578D01*
X145349605Y-64133355D01*
X145217228Y-64062598D01*
X145073591Y-64019026D01*
X144961639Y-64008000D01*
X144961636Y-64008000D01*
X144924213Y-64004314D01*
X144886790Y-64008000D01*
X144661762Y-64008000D01*
X144582693Y-63889664D01*
X144390336Y-63697307D01*
X144164149Y-63546174D01*
X143912823Y-63442071D01*
X143646017Y-63389000D01*
X143373983Y-63389000D01*
X143107177Y-63442071D01*
X142855851Y-63546174D01*
X142629664Y-63697307D01*
X142437307Y-63889664D01*
X142286174Y-64115851D01*
X142182071Y-64367177D01*
X142129000Y-64633983D01*
X142129000Y-64906017D01*
X142182071Y-65172823D01*
X142286174Y-65424149D01*
X142437307Y-65650336D01*
X142629664Y-65842693D01*
X142756074Y-65927157D01*
X142510000Y-65927157D01*
X142435311Y-65934513D01*
X142363492Y-65956299D01*
X142297304Y-65991678D01*
X142239289Y-66039289D01*
X142191678Y-66097304D01*
X142156299Y-66163492D01*
X142134513Y-66235311D01*
X142127157Y-66310000D01*
X127393700Y-66310000D01*
X127393700Y-45970285D01*
X146279287Y-45970285D01*
X146281778Y-46005849D01*
X146283775Y-46041508D01*
X146284655Y-46046935D01*
X146347242Y-46416758D01*
X146356591Y-46451155D01*
X146365477Y-46485751D01*
X146367394Y-46490903D01*
X146500620Y-46841527D01*
X146516469Y-46873447D01*
X146531910Y-46905666D01*
X146534791Y-46910348D01*
X146733584Y-47228416D01*
X146755326Y-47256643D01*
X146776735Y-47285255D01*
X146780471Y-47289288D01*
X147037257Y-47562686D01*
X147064067Y-47586152D01*
X147090628Y-47610063D01*
X147095076Y-47613294D01*
X147400075Y-47831608D01*
X147430974Y-47849444D01*
X147461630Y-47867714D01*
X147466616Y-47870017D01*
X147466621Y-47870020D01*
X147466626Y-47870022D01*
X147808215Y-48024935D01*
X147841964Y-48036421D01*
X147875612Y-48048399D01*
X147880952Y-48049689D01*
X147880954Y-48049690D01*
X147880956Y-48049690D01*
X148233824Y-48132420D01*
X148258821Y-48140003D01*
X148316667Y-48145700D01*
X158909416Y-48145700D01*
X158922367Y-48149709D01*
X159001170Y-48157990D01*
X159006839Y-48157990D01*
X159033437Y-48157804D01*
X159051780Y-48155876D01*
X159070216Y-48155876D01*
X159075854Y-48155284D01*
X159445328Y-48113841D01*
X159481386Y-48106177D01*
X159517418Y-48099042D01*
X159522824Y-48097369D01*
X159522834Y-48097367D01*
X159522843Y-48097363D01*
X159877221Y-47984949D01*
X159911095Y-47970431D01*
X159945064Y-47956429D01*
X159950042Y-47953738D01*
X159950051Y-47953734D01*
X159950058Y-47953729D01*
X160275854Y-47774621D01*
X160306208Y-47753838D01*
X160336865Y-47733469D01*
X160341234Y-47729855D01*
X160626041Y-47490873D01*
X160651782Y-47464588D01*
X160677898Y-47438653D01*
X160681476Y-47434266D01*
X160681481Y-47434261D01*
X160681485Y-47434256D01*
X160914447Y-47144510D01*
X160934591Y-47113726D01*
X160955173Y-47083212D01*
X160957835Y-47078206D01*
X161130083Y-46748725D01*
X161143857Y-46714633D01*
X161158128Y-46680683D01*
X161159767Y-46675256D01*
X161264739Y-46318591D01*
X161271639Y-46282419D01*
X161279032Y-46246401D01*
X161279586Y-46240759D01*
X161313283Y-45870499D01*
X161313026Y-45833702D01*
X161313283Y-45796905D01*
X161312730Y-45791262D01*
X161273867Y-45421508D01*
X161266464Y-45385442D01*
X161259572Y-45349316D01*
X161257934Y-45343889D01*
X161147992Y-44988725D01*
X161133732Y-44954802D01*
X161119948Y-44920686D01*
X161117286Y-44915680D01*
X161117286Y-44915679D01*
X161117283Y-44915675D01*
X160940455Y-44588635D01*
X160919855Y-44558094D01*
X160899728Y-44527337D01*
X160896145Y-44522943D01*
X160659156Y-44236474D01*
X160633040Y-44210540D01*
X160607300Y-44184255D01*
X160602938Y-44180646D01*
X160602932Y-44180640D01*
X160602925Y-44180636D01*
X160314815Y-43945658D01*
X160284150Y-43925284D01*
X160253803Y-43904505D01*
X160248821Y-43901811D01*
X160248817Y-43901808D01*
X160248813Y-43901806D01*
X159920544Y-43727263D01*
X159886495Y-43713229D01*
X159852702Y-43698745D01*
X159847286Y-43697068D01*
X159491363Y-43589608D01*
X159455242Y-43582456D01*
X159419272Y-43574811D01*
X159413636Y-43574218D01*
X159413634Y-43574218D01*
X159043618Y-43537938D01*
X158964381Y-43537938D01*
X158912047Y-43548300D01*
X148868755Y-43548300D01*
X148866688Y-43548039D01*
X148848813Y-43547541D01*
X148831081Y-43545177D01*
X148825586Y-43545025D01*
X148450586Y-43537205D01*
X148415069Y-43539941D01*
X148379396Y-43542189D01*
X148373976Y-43543107D01*
X148344541Y-43548300D01*
X148316667Y-43548300D01*
X148258821Y-43553997D01*
X148184609Y-43576510D01*
X148184593Y-43576519D01*
X148004599Y-43608274D01*
X147970295Y-43617856D01*
X147935734Y-43626990D01*
X147930595Y-43628943D01*
X147580911Y-43764614D01*
X147549066Y-43780704D01*
X147516992Y-43796351D01*
X147512331Y-43799265D01*
X147195658Y-44000273D01*
X147167568Y-44022223D01*
X147139120Y-44043821D01*
X147135114Y-44047584D01*
X146863515Y-44306273D01*
X146840203Y-44333285D01*
X146816513Y-44359973D01*
X146813314Y-44364443D01*
X146597134Y-44670959D01*
X146579533Y-44701949D01*
X146561457Y-44732765D01*
X146559187Y-44737772D01*
X146406660Y-45080440D01*
X146395405Y-45114285D01*
X146383668Y-45147998D01*
X146382414Y-45153350D01*
X146299349Y-45519117D01*
X146294889Y-45554447D01*
X146289916Y-45589855D01*
X146289725Y-45595349D01*
X146279287Y-45970285D01*
X127393700Y-45970285D01*
X127393700Y-42049700D01*
X180454300Y-42049700D01*
X180454301Y-126606300D01*
%TD*%
M02*
