%TF.GenerationSoftware,KiCad,Pcbnew,(5.1.6)-1*%
%TF.CreationDate,2020-09-04T19:50:29+05:30*%
%TF.ProjectId,555_badge,3535355f-6261-4646-9765-2e6b69636164,v01*%
%TF.SameCoordinates,Original*%
%TF.FileFunction,Copper,L1,Top*%
%TF.FilePolarity,Positive*%
%FSLAX46Y46*%
G04 Gerber Fmt 4.6, Leading zero omitted, Abs format (unit mm)*
G04 Created by KiCad (PCBNEW (5.1.6)-1) date 2020-09-04 19:50:29*
%MOMM*%
%LPD*%
G01*
G04 APERTURE LIST*
%TA.AperFunction,ComponentPad*%
%ADD10R,2.170000X2.170000*%
%TD*%
%TA.AperFunction,ComponentPad*%
%ADD11C,2.500000*%
%TD*%
%TA.AperFunction,ComponentPad*%
%ADD12R,1.600000X1.600000*%
%TD*%
%TA.AperFunction,ComponentPad*%
%ADD13C,1.600000*%
%TD*%
%TA.AperFunction,ComponentPad*%
%ADD14C,2.000000*%
%TD*%
%TA.AperFunction,ComponentPad*%
%ADD15R,2.000000X2.000000*%
%TD*%
%TA.AperFunction,ComponentPad*%
%ADD16O,1.000000X1.500000*%
%TD*%
%TA.AperFunction,ComponentPad*%
%ADD17R,1.000000X1.500000*%
%TD*%
%TA.AperFunction,ComponentPad*%
%ADD18O,1.600000X1.600000*%
%TD*%
%TA.AperFunction,ComponentPad*%
%ADD19R,1.900000X1.900000*%
%TD*%
%TA.AperFunction,ComponentPad*%
%ADD20C,1.900000*%
%TD*%
%TA.AperFunction,ComponentPad*%
%ADD21C,1.524000*%
%TD*%
%TA.AperFunction,Conductor*%
%ADD22C,0.762000*%
%TD*%
%TA.AperFunction,Conductor*%
%ADD23C,0.250000*%
%TD*%
%TA.AperFunction,Conductor*%
%ADD24C,0.254000*%
%TD*%
G04 APERTURE END LIST*
D10*
%TO.P,BAT1,Neg*%
%TO.N,GND*%
X149860000Y-114300000D03*
D11*
%TO.P,BAT1,Pos*%
%TO.N,Net-(BAT1-PadPos)*%
X129860000Y-114300000D03*
%TD*%
D12*
%TO.P,C1,1*%
%TO.N,Net-(C1-Pad1)*%
X172720000Y-115570000D03*
D13*
%TO.P,C1,2*%
%TO.N,GND*%
X174720000Y-115570000D03*
%TD*%
D12*
%TO.P,C2,1*%
%TO.N,Net-(C2-Pad1)*%
X162560000Y-118110000D03*
D13*
%TO.P,C2,2*%
%TO.N,GND*%
X162560000Y-115610000D03*
%TD*%
D14*
%TO.P,D1,2*%
%TO.N,Net-(D1-Pad2)*%
X143510000Y-64770000D03*
D15*
%TO.P,D1,1*%
%TO.N,Net-(D1-Pad1)*%
X143510000Y-67310000D03*
%TD*%
%TO.P,D2,1*%
%TO.N,Net-(D1-Pad1)*%
X165100000Y-67310000D03*
D14*
%TO.P,D2,2*%
%TO.N,Net-(D2-Pad2)*%
X165100000Y-64770000D03*
%TD*%
D16*
%TO.P,Q1,2*%
%TO.N,Net-(Q1-Pad2)*%
X170180000Y-123190000D03*
%TO.P,Q1,3*%
%TO.N,Net-(D1-Pad1)*%
X171450000Y-123190000D03*
D17*
%TO.P,Q1,1*%
%TO.N,GND*%
X168910000Y-123190000D03*
%TD*%
D13*
%TO.P,R1,1*%
%TO.N,VCC*%
X177800000Y-100330000D03*
D18*
%TO.P,R1,2*%
%TO.N,Net-(R1-Pad2)*%
X170180000Y-100330000D03*
%TD*%
%TO.P,R2,2*%
%TO.N,Net-(C1-Pad1)*%
X158750000Y-100330000D03*
D13*
%TO.P,R2,1*%
%TO.N,Net-(R1-Pad2)*%
X166370000Y-100330000D03*
%TD*%
D18*
%TO.P,R3,2*%
%TO.N,Net-(R3-Pad2)*%
X167640000Y-111760000D03*
D13*
%TO.P,R3,1*%
%TO.N,Net-(C2-Pad1)*%
X167640000Y-104140000D03*
%TD*%
%TO.P,R4,1*%
%TO.N,GND*%
X171450000Y-111760000D03*
D18*
%TO.P,R4,2*%
%TO.N,Net-(C2-Pad1)*%
X171450000Y-104140000D03*
%TD*%
D13*
%TO.P,R5,1*%
%TO.N,Net-(Q1-Pad2)*%
X179070000Y-116840000D03*
D18*
%TO.P,R5,2*%
%TO.N,Net-(C2-Pad1)*%
X179070000Y-124460000D03*
%TD*%
%TO.P,R6,2*%
%TO.N,VCC*%
X154940000Y-100330000D03*
D13*
%TO.P,R6,1*%
%TO.N,Net-(D1-Pad2)*%
X147320000Y-100330000D03*
%TD*%
%TO.P,R7,1*%
%TO.N,VCC*%
X176530000Y-111760000D03*
D18*
%TO.P,R7,2*%
%TO.N,Net-(D2-Pad2)*%
X176530000Y-104140000D03*
%TD*%
D19*
%TO.P,S1,1*%
%TO.N,Net-(S1-Pad1)*%
X162560000Y-123190000D03*
D20*
%TO.P,S1,2*%
%TO.N,VCC*%
X160060000Y-123190000D03*
%TO.P,S1,3*%
%TO.N,Net-(BAT1-PadPos)*%
X157560000Y-123190000D03*
%TD*%
D21*
%TO.P,U1,1*%
%TO.N,GND*%
X163830000Y-111760000D03*
%TO.P,U1,2*%
%TO.N,Net-(C1-Pad1)*%
X163830000Y-109220000D03*
%TO.P,U1,3*%
%TO.N,Net-(R3-Pad2)*%
X163830000Y-106680000D03*
%TO.P,U1,4*%
%TO.N,VCC*%
X163830000Y-104140000D03*
%TO.P,U1,5*%
%TO.N,Net-(U1-Pad5)*%
X156210000Y-104140000D03*
%TO.P,U1,6*%
%TO.N,Net-(C1-Pad1)*%
X156210000Y-106680000D03*
%TO.P,U1,7*%
%TO.N,Net-(U1-Pad7)*%
X156210000Y-109220000D03*
%TO.P,U1,8*%
%TO.N,VCC*%
X156210000Y-111760000D03*
%TD*%
D22*
%TO.N,Net-(BAT1-PadPos)*%
X138750000Y-123190000D02*
X157560000Y-123190000D01*
X129860000Y-114300000D02*
X138750000Y-123190000D01*
%TO.N,Net-(C1-Pad1)*%
X169406118Y-115570000D02*
X172720000Y-115570000D01*
X166258999Y-112422881D02*
X169406118Y-115570000D01*
X166258999Y-111648999D02*
X166258999Y-112422881D01*
X163830000Y-109220000D02*
X166258999Y-111648999D01*
%TO.N,Net-(C2-Pad1)*%
X172720000Y-118110000D02*
X179070000Y-124460000D01*
X162560000Y-118110000D02*
X172720000Y-118110000D01*
X174223882Y-118110000D02*
X172720000Y-118110000D01*
X176101001Y-116232881D02*
X174223882Y-118110000D01*
X176101001Y-114907119D02*
X176101001Y-116232881D01*
X173228000Y-112034118D02*
X176101001Y-114907119D01*
X173228000Y-105918000D02*
X173228000Y-112034118D01*
X171450000Y-104140000D02*
X173228000Y-105918000D01*
%TO.N,Net-(D1-Pad1)*%
X127593710Y-104816290D02*
X165100000Y-67310000D01*
X127593710Y-126406290D02*
X127593710Y-104816290D01*
X174666290Y-126406290D02*
X127593710Y-126406290D01*
X171450000Y-123190000D02*
X174666290Y-126406290D01*
X143510000Y-67310000D02*
X165100000Y-67310000D01*
%TO.N,VCC*%
X160060000Y-115610000D02*
X156210000Y-111760000D01*
X160060000Y-123190000D02*
X160060000Y-115610000D01*
X156210000Y-111760000D02*
X163830000Y-104140000D01*
X161401001Y-101711001D02*
X163830000Y-104140000D01*
X156321001Y-101711001D02*
X161401001Y-101711001D01*
X154940000Y-100330000D02*
X156321001Y-101711001D01*
X165211001Y-102758999D02*
X163830000Y-104140000D01*
X175371001Y-102758999D02*
X165211001Y-102758999D01*
X177800000Y-100330000D02*
X175371001Y-102758999D01*
X178599999Y-109690001D02*
X176530000Y-111760000D01*
X178599999Y-101129999D02*
X178599999Y-109690001D01*
X177800000Y-100330000D02*
X178599999Y-101129999D01*
X160528000Y-123190000D02*
X160060000Y-123190000D01*
D23*
%TO.N,Net-(R1-Pad2)*%
X166370000Y-100330000D02*
X170180000Y-100330000D01*
%TD*%
D24*
%TO.N,GND*%
G36*
X162486686Y-107087490D02*
G01*
X162591995Y-107341727D01*
X162744880Y-107570535D01*
X162939465Y-107765120D01*
X163168273Y-107918005D01*
X163245515Y-107950000D01*
X163168273Y-107981995D01*
X162939465Y-108134880D01*
X162744880Y-108329465D01*
X162591995Y-108558273D01*
X162486686Y-108812510D01*
X162433000Y-109082408D01*
X162433000Y-109357592D01*
X162486686Y-109627490D01*
X162591995Y-109881727D01*
X162744880Y-110110535D01*
X162939465Y-110305120D01*
X163168273Y-110458005D01*
X163239943Y-110487692D01*
X163226977Y-110492364D01*
X163111020Y-110554344D01*
X163044040Y-110794435D01*
X163830000Y-111580395D01*
X163844143Y-111566253D01*
X164023748Y-111745858D01*
X164009605Y-111760000D01*
X164795565Y-112545960D01*
X165035656Y-112478980D01*
X165152756Y-112229952D01*
X165202524Y-112029365D01*
X165242999Y-112069840D01*
X165242999Y-112372979D01*
X165238084Y-112422881D01*
X165257701Y-112622051D01*
X165305893Y-112780915D01*
X165315798Y-112813568D01*
X165410140Y-112990071D01*
X165537104Y-113144777D01*
X165575867Y-113176589D01*
X168652410Y-116253133D01*
X168684222Y-116291896D01*
X168838928Y-116418860D01*
X169015431Y-116513202D01*
X169147289Y-116553201D01*
X169206946Y-116571298D01*
X169226295Y-116573204D01*
X169356216Y-116586000D01*
X169356223Y-116586000D01*
X169406117Y-116590914D01*
X169456011Y-116586000D01*
X171321950Y-116586000D01*
X171330498Y-116614180D01*
X171389463Y-116724494D01*
X171468815Y-116821185D01*
X171565506Y-116900537D01*
X171675820Y-116959502D01*
X171795518Y-116995812D01*
X171920000Y-117008072D01*
X173520000Y-117008072D01*
X173644482Y-116995812D01*
X173764180Y-116959502D01*
X173874494Y-116900537D01*
X173971185Y-116821185D01*
X173981807Y-116808242D01*
X174054434Y-116842608D01*
X173803042Y-117094000D01*
X172769902Y-117094000D01*
X172720000Y-117089085D01*
X172670098Y-117094000D01*
X163958050Y-117094000D01*
X163949502Y-117065820D01*
X163890537Y-116955506D01*
X163811185Y-116858815D01*
X163714494Y-116779463D01*
X163604180Y-116720498D01*
X163484482Y-116684188D01*
X163360000Y-116671928D01*
X163352785Y-116671928D01*
X163373097Y-116602702D01*
X162560000Y-115789605D01*
X161746903Y-116602702D01*
X161767215Y-116671928D01*
X161760000Y-116671928D01*
X161635518Y-116684188D01*
X161515820Y-116720498D01*
X161405506Y-116779463D01*
X161308815Y-116858815D01*
X161229463Y-116955506D01*
X161170498Y-117065820D01*
X161134188Y-117185518D01*
X161121928Y-117310000D01*
X161121928Y-118910000D01*
X161134188Y-119034482D01*
X161170498Y-119154180D01*
X161229463Y-119264494D01*
X161308815Y-119361185D01*
X161405506Y-119440537D01*
X161515820Y-119499502D01*
X161635518Y-119535812D01*
X161760000Y-119548072D01*
X163360000Y-119548072D01*
X163484482Y-119535812D01*
X163604180Y-119499502D01*
X163714494Y-119440537D01*
X163811185Y-119361185D01*
X163890537Y-119264494D01*
X163949502Y-119154180D01*
X163958050Y-119126000D01*
X172299160Y-119126000D01*
X177635000Y-124461841D01*
X177635000Y-124601335D01*
X177690147Y-124878574D01*
X177798320Y-125139727D01*
X177955363Y-125374759D01*
X178155241Y-125574637D01*
X178390273Y-125731680D01*
X178651426Y-125839853D01*
X178928665Y-125895000D01*
X179211335Y-125895000D01*
X179488574Y-125839853D01*
X179749727Y-125731680D01*
X179984759Y-125574637D01*
X180184637Y-125374759D01*
X180200301Y-125351316D01*
X180200301Y-126352300D01*
X175681887Y-126352300D01*
X175667588Y-126207119D01*
X175609492Y-126015603D01*
X175609492Y-126015602D01*
X175576630Y-125954122D01*
X175515150Y-125839100D01*
X175388186Y-125684394D01*
X175349423Y-125652582D01*
X172585000Y-122888160D01*
X172585000Y-122884249D01*
X172568577Y-122717502D01*
X172503676Y-122503554D01*
X172398284Y-122306377D01*
X172256449Y-122133551D01*
X172083623Y-121991716D01*
X171886447Y-121886324D01*
X171672499Y-121821423D01*
X171450000Y-121799509D01*
X171227502Y-121821423D01*
X171013554Y-121886324D01*
X170816378Y-121991716D01*
X170815001Y-121992846D01*
X170813623Y-121991716D01*
X170616447Y-121886324D01*
X170402499Y-121821423D01*
X170180000Y-121799509D01*
X169957502Y-121821423D01*
X169743554Y-121886324D01*
X169732379Y-121892297D01*
X169654180Y-121850498D01*
X169534482Y-121814188D01*
X169410000Y-121801928D01*
X169195750Y-121805000D01*
X169037000Y-121963750D01*
X169037000Y-123063000D01*
X169045000Y-123063000D01*
X169045000Y-123317000D01*
X169037000Y-123317000D01*
X169037000Y-124416250D01*
X169195750Y-124575000D01*
X169410000Y-124578072D01*
X169534482Y-124565812D01*
X169654180Y-124529502D01*
X169732379Y-124487703D01*
X169743553Y-124493676D01*
X169957501Y-124558577D01*
X170180000Y-124580491D01*
X170402498Y-124558577D01*
X170616446Y-124493676D01*
X170813623Y-124388284D01*
X170815000Y-124387154D01*
X170816377Y-124388284D01*
X171013553Y-124493676D01*
X171227501Y-124558577D01*
X171398587Y-124575427D01*
X172213450Y-125390290D01*
X128609710Y-125390290D01*
X128609710Y-115715503D01*
X128658382Y-115764175D01*
X128967118Y-115970466D01*
X129310166Y-116112561D01*
X129674344Y-116185000D01*
X130045656Y-116185000D01*
X130264608Y-116141448D01*
X137996292Y-123873133D01*
X138028104Y-123911896D01*
X138066865Y-123943706D01*
X138182810Y-124038860D01*
X138359313Y-124133202D01*
X138550829Y-124191298D01*
X138750000Y-124210915D01*
X138799902Y-124206000D01*
X156334471Y-124206000D01*
X156549621Y-124421150D01*
X156809221Y-124594609D01*
X157097673Y-124714089D01*
X157403891Y-124775000D01*
X157716109Y-124775000D01*
X158022327Y-124714089D01*
X158310779Y-124594609D01*
X158570379Y-124421150D01*
X158791150Y-124200379D01*
X158810000Y-124172168D01*
X158828850Y-124200379D01*
X159049621Y-124421150D01*
X159309221Y-124594609D01*
X159597673Y-124714089D01*
X159903891Y-124775000D01*
X160216109Y-124775000D01*
X160522327Y-124714089D01*
X160810779Y-124594609D01*
X161048186Y-124435979D01*
X161079463Y-124494494D01*
X161158815Y-124591185D01*
X161255506Y-124670537D01*
X161365820Y-124729502D01*
X161485518Y-124765812D01*
X161610000Y-124778072D01*
X163510000Y-124778072D01*
X163634482Y-124765812D01*
X163754180Y-124729502D01*
X163864494Y-124670537D01*
X163961185Y-124591185D01*
X164040537Y-124494494D01*
X164099502Y-124384180D01*
X164135812Y-124264482D01*
X164148072Y-124140000D01*
X164148072Y-123940000D01*
X167771928Y-123940000D01*
X167784188Y-124064482D01*
X167820498Y-124184180D01*
X167879463Y-124294494D01*
X167958815Y-124391185D01*
X168055506Y-124470537D01*
X168165820Y-124529502D01*
X168285518Y-124565812D01*
X168410000Y-124578072D01*
X168624250Y-124575000D01*
X168783000Y-124416250D01*
X168783000Y-123317000D01*
X167933750Y-123317000D01*
X167775000Y-123475750D01*
X167771928Y-123940000D01*
X164148072Y-123940000D01*
X164148072Y-122440000D01*
X167771928Y-122440000D01*
X167775000Y-122904250D01*
X167933750Y-123063000D01*
X168783000Y-123063000D01*
X168783000Y-121963750D01*
X168624250Y-121805000D01*
X168410000Y-121801928D01*
X168285518Y-121814188D01*
X168165820Y-121850498D01*
X168055506Y-121909463D01*
X167958815Y-121988815D01*
X167879463Y-122085506D01*
X167820498Y-122195820D01*
X167784188Y-122315518D01*
X167771928Y-122440000D01*
X164148072Y-122440000D01*
X164148072Y-122240000D01*
X164135812Y-122115518D01*
X164099502Y-121995820D01*
X164040537Y-121885506D01*
X163961185Y-121788815D01*
X163864494Y-121709463D01*
X163754180Y-121650498D01*
X163634482Y-121614188D01*
X163510000Y-121601928D01*
X161610000Y-121601928D01*
X161485518Y-121614188D01*
X161365820Y-121650498D01*
X161255506Y-121709463D01*
X161158815Y-121788815D01*
X161079463Y-121885506D01*
X161076000Y-121891985D01*
X161076000Y-115680512D01*
X161119783Y-115680512D01*
X161161213Y-115960130D01*
X161256397Y-116226292D01*
X161323329Y-116351514D01*
X161567298Y-116423097D01*
X162380395Y-115610000D01*
X162739605Y-115610000D01*
X163552702Y-116423097D01*
X163796671Y-116351514D01*
X163917571Y-116096004D01*
X163986300Y-115821816D01*
X164000217Y-115539488D01*
X163958787Y-115259870D01*
X163863603Y-114993708D01*
X163796671Y-114868486D01*
X163552702Y-114796903D01*
X162739605Y-115610000D01*
X162380395Y-115610000D01*
X161567298Y-114796903D01*
X161323329Y-114868486D01*
X161202429Y-115123996D01*
X161133700Y-115398184D01*
X161119783Y-115680512D01*
X161076000Y-115680512D01*
X161076000Y-115659893D01*
X161080914Y-115609999D01*
X161076000Y-115560105D01*
X161076000Y-115560098D01*
X161061298Y-115410829D01*
X161003202Y-115219313D01*
X160908860Y-115042810D01*
X160781896Y-114888104D01*
X160743133Y-114856292D01*
X160504139Y-114617298D01*
X161746903Y-114617298D01*
X162560000Y-115430395D01*
X163373097Y-114617298D01*
X163301514Y-114373329D01*
X163046004Y-114252429D01*
X162771816Y-114183700D01*
X162489488Y-114169783D01*
X162209870Y-114211213D01*
X161943708Y-114306397D01*
X161818486Y-114373329D01*
X161746903Y-114617298D01*
X160504139Y-114617298D01*
X158612406Y-112725565D01*
X163044040Y-112725565D01*
X163111020Y-112965656D01*
X163360048Y-113082756D01*
X163627135Y-113149023D01*
X163902017Y-113161910D01*
X164174133Y-113120922D01*
X164433023Y-113027636D01*
X164548980Y-112965656D01*
X164615960Y-112725565D01*
X163830000Y-111939605D01*
X163044040Y-112725565D01*
X158612406Y-112725565D01*
X157718858Y-111832017D01*
X162428090Y-111832017D01*
X162469078Y-112104133D01*
X162562364Y-112363023D01*
X162624344Y-112478980D01*
X162864435Y-112545960D01*
X163650395Y-111760000D01*
X162864435Y-110974040D01*
X162624344Y-111041020D01*
X162507244Y-111290048D01*
X162440977Y-111557135D01*
X162428090Y-111832017D01*
X157718858Y-111832017D01*
X157646840Y-111760000D01*
X162458923Y-106947917D01*
X162486686Y-107087490D01*
G37*
X162486686Y-107087490D02*
X162591995Y-107341727D01*
X162744880Y-107570535D01*
X162939465Y-107765120D01*
X163168273Y-107918005D01*
X163245515Y-107950000D01*
X163168273Y-107981995D01*
X162939465Y-108134880D01*
X162744880Y-108329465D01*
X162591995Y-108558273D01*
X162486686Y-108812510D01*
X162433000Y-109082408D01*
X162433000Y-109357592D01*
X162486686Y-109627490D01*
X162591995Y-109881727D01*
X162744880Y-110110535D01*
X162939465Y-110305120D01*
X163168273Y-110458005D01*
X163239943Y-110487692D01*
X163226977Y-110492364D01*
X163111020Y-110554344D01*
X163044040Y-110794435D01*
X163830000Y-111580395D01*
X163844143Y-111566253D01*
X164023748Y-111745858D01*
X164009605Y-111760000D01*
X164795565Y-112545960D01*
X165035656Y-112478980D01*
X165152756Y-112229952D01*
X165202524Y-112029365D01*
X165242999Y-112069840D01*
X165242999Y-112372979D01*
X165238084Y-112422881D01*
X165257701Y-112622051D01*
X165305893Y-112780915D01*
X165315798Y-112813568D01*
X165410140Y-112990071D01*
X165537104Y-113144777D01*
X165575867Y-113176589D01*
X168652410Y-116253133D01*
X168684222Y-116291896D01*
X168838928Y-116418860D01*
X169015431Y-116513202D01*
X169147289Y-116553201D01*
X169206946Y-116571298D01*
X169226295Y-116573204D01*
X169356216Y-116586000D01*
X169356223Y-116586000D01*
X169406117Y-116590914D01*
X169456011Y-116586000D01*
X171321950Y-116586000D01*
X171330498Y-116614180D01*
X171389463Y-116724494D01*
X171468815Y-116821185D01*
X171565506Y-116900537D01*
X171675820Y-116959502D01*
X171795518Y-116995812D01*
X171920000Y-117008072D01*
X173520000Y-117008072D01*
X173644482Y-116995812D01*
X173764180Y-116959502D01*
X173874494Y-116900537D01*
X173971185Y-116821185D01*
X173981807Y-116808242D01*
X174054434Y-116842608D01*
X173803042Y-117094000D01*
X172769902Y-117094000D01*
X172720000Y-117089085D01*
X172670098Y-117094000D01*
X163958050Y-117094000D01*
X163949502Y-117065820D01*
X163890537Y-116955506D01*
X163811185Y-116858815D01*
X163714494Y-116779463D01*
X163604180Y-116720498D01*
X163484482Y-116684188D01*
X163360000Y-116671928D01*
X163352785Y-116671928D01*
X163373097Y-116602702D01*
X162560000Y-115789605D01*
X161746903Y-116602702D01*
X161767215Y-116671928D01*
X161760000Y-116671928D01*
X161635518Y-116684188D01*
X161515820Y-116720498D01*
X161405506Y-116779463D01*
X161308815Y-116858815D01*
X161229463Y-116955506D01*
X161170498Y-117065820D01*
X161134188Y-117185518D01*
X161121928Y-117310000D01*
X161121928Y-118910000D01*
X161134188Y-119034482D01*
X161170498Y-119154180D01*
X161229463Y-119264494D01*
X161308815Y-119361185D01*
X161405506Y-119440537D01*
X161515820Y-119499502D01*
X161635518Y-119535812D01*
X161760000Y-119548072D01*
X163360000Y-119548072D01*
X163484482Y-119535812D01*
X163604180Y-119499502D01*
X163714494Y-119440537D01*
X163811185Y-119361185D01*
X163890537Y-119264494D01*
X163949502Y-119154180D01*
X163958050Y-119126000D01*
X172299160Y-119126000D01*
X177635000Y-124461841D01*
X177635000Y-124601335D01*
X177690147Y-124878574D01*
X177798320Y-125139727D01*
X177955363Y-125374759D01*
X178155241Y-125574637D01*
X178390273Y-125731680D01*
X178651426Y-125839853D01*
X178928665Y-125895000D01*
X179211335Y-125895000D01*
X179488574Y-125839853D01*
X179749727Y-125731680D01*
X179984759Y-125574637D01*
X180184637Y-125374759D01*
X180200301Y-125351316D01*
X180200301Y-126352300D01*
X175681887Y-126352300D01*
X175667588Y-126207119D01*
X175609492Y-126015603D01*
X175609492Y-126015602D01*
X175576630Y-125954122D01*
X175515150Y-125839100D01*
X175388186Y-125684394D01*
X175349423Y-125652582D01*
X172585000Y-122888160D01*
X172585000Y-122884249D01*
X172568577Y-122717502D01*
X172503676Y-122503554D01*
X172398284Y-122306377D01*
X172256449Y-122133551D01*
X172083623Y-121991716D01*
X171886447Y-121886324D01*
X171672499Y-121821423D01*
X171450000Y-121799509D01*
X171227502Y-121821423D01*
X171013554Y-121886324D01*
X170816378Y-121991716D01*
X170815001Y-121992846D01*
X170813623Y-121991716D01*
X170616447Y-121886324D01*
X170402499Y-121821423D01*
X170180000Y-121799509D01*
X169957502Y-121821423D01*
X169743554Y-121886324D01*
X169732379Y-121892297D01*
X169654180Y-121850498D01*
X169534482Y-121814188D01*
X169410000Y-121801928D01*
X169195750Y-121805000D01*
X169037000Y-121963750D01*
X169037000Y-123063000D01*
X169045000Y-123063000D01*
X169045000Y-123317000D01*
X169037000Y-123317000D01*
X169037000Y-124416250D01*
X169195750Y-124575000D01*
X169410000Y-124578072D01*
X169534482Y-124565812D01*
X169654180Y-124529502D01*
X169732379Y-124487703D01*
X169743553Y-124493676D01*
X169957501Y-124558577D01*
X170180000Y-124580491D01*
X170402498Y-124558577D01*
X170616446Y-124493676D01*
X170813623Y-124388284D01*
X170815000Y-124387154D01*
X170816377Y-124388284D01*
X171013553Y-124493676D01*
X171227501Y-124558577D01*
X171398587Y-124575427D01*
X172213450Y-125390290D01*
X128609710Y-125390290D01*
X128609710Y-115715503D01*
X128658382Y-115764175D01*
X128967118Y-115970466D01*
X129310166Y-116112561D01*
X129674344Y-116185000D01*
X130045656Y-116185000D01*
X130264608Y-116141448D01*
X137996292Y-123873133D01*
X138028104Y-123911896D01*
X138066865Y-123943706D01*
X138182810Y-124038860D01*
X138359313Y-124133202D01*
X138550829Y-124191298D01*
X138750000Y-124210915D01*
X138799902Y-124206000D01*
X156334471Y-124206000D01*
X156549621Y-124421150D01*
X156809221Y-124594609D01*
X157097673Y-124714089D01*
X157403891Y-124775000D01*
X157716109Y-124775000D01*
X158022327Y-124714089D01*
X158310779Y-124594609D01*
X158570379Y-124421150D01*
X158791150Y-124200379D01*
X158810000Y-124172168D01*
X158828850Y-124200379D01*
X159049621Y-124421150D01*
X159309221Y-124594609D01*
X159597673Y-124714089D01*
X159903891Y-124775000D01*
X160216109Y-124775000D01*
X160522327Y-124714089D01*
X160810779Y-124594609D01*
X161048186Y-124435979D01*
X161079463Y-124494494D01*
X161158815Y-124591185D01*
X161255506Y-124670537D01*
X161365820Y-124729502D01*
X161485518Y-124765812D01*
X161610000Y-124778072D01*
X163510000Y-124778072D01*
X163634482Y-124765812D01*
X163754180Y-124729502D01*
X163864494Y-124670537D01*
X163961185Y-124591185D01*
X164040537Y-124494494D01*
X164099502Y-124384180D01*
X164135812Y-124264482D01*
X164148072Y-124140000D01*
X164148072Y-123940000D01*
X167771928Y-123940000D01*
X167784188Y-124064482D01*
X167820498Y-124184180D01*
X167879463Y-124294494D01*
X167958815Y-124391185D01*
X168055506Y-124470537D01*
X168165820Y-124529502D01*
X168285518Y-124565812D01*
X168410000Y-124578072D01*
X168624250Y-124575000D01*
X168783000Y-124416250D01*
X168783000Y-123317000D01*
X167933750Y-123317000D01*
X167775000Y-123475750D01*
X167771928Y-123940000D01*
X164148072Y-123940000D01*
X164148072Y-122440000D01*
X167771928Y-122440000D01*
X167775000Y-122904250D01*
X167933750Y-123063000D01*
X168783000Y-123063000D01*
X168783000Y-121963750D01*
X168624250Y-121805000D01*
X168410000Y-121801928D01*
X168285518Y-121814188D01*
X168165820Y-121850498D01*
X168055506Y-121909463D01*
X167958815Y-121988815D01*
X167879463Y-122085506D01*
X167820498Y-122195820D01*
X167784188Y-122315518D01*
X167771928Y-122440000D01*
X164148072Y-122440000D01*
X164148072Y-122240000D01*
X164135812Y-122115518D01*
X164099502Y-121995820D01*
X164040537Y-121885506D01*
X163961185Y-121788815D01*
X163864494Y-121709463D01*
X163754180Y-121650498D01*
X163634482Y-121614188D01*
X163510000Y-121601928D01*
X161610000Y-121601928D01*
X161485518Y-121614188D01*
X161365820Y-121650498D01*
X161255506Y-121709463D01*
X161158815Y-121788815D01*
X161079463Y-121885506D01*
X161076000Y-121891985D01*
X161076000Y-115680512D01*
X161119783Y-115680512D01*
X161161213Y-115960130D01*
X161256397Y-116226292D01*
X161323329Y-116351514D01*
X161567298Y-116423097D01*
X162380395Y-115610000D01*
X162739605Y-115610000D01*
X163552702Y-116423097D01*
X163796671Y-116351514D01*
X163917571Y-116096004D01*
X163986300Y-115821816D01*
X164000217Y-115539488D01*
X163958787Y-115259870D01*
X163863603Y-114993708D01*
X163796671Y-114868486D01*
X163552702Y-114796903D01*
X162739605Y-115610000D01*
X162380395Y-115610000D01*
X161567298Y-114796903D01*
X161323329Y-114868486D01*
X161202429Y-115123996D01*
X161133700Y-115398184D01*
X161119783Y-115680512D01*
X161076000Y-115680512D01*
X161076000Y-115659893D01*
X161080914Y-115609999D01*
X161076000Y-115560105D01*
X161076000Y-115560098D01*
X161061298Y-115410829D01*
X161003202Y-115219313D01*
X160908860Y-115042810D01*
X160781896Y-114888104D01*
X160743133Y-114856292D01*
X160504139Y-114617298D01*
X161746903Y-114617298D01*
X162560000Y-115430395D01*
X163373097Y-114617298D01*
X163301514Y-114373329D01*
X163046004Y-114252429D01*
X162771816Y-114183700D01*
X162489488Y-114169783D01*
X162209870Y-114211213D01*
X161943708Y-114306397D01*
X161818486Y-114373329D01*
X161746903Y-114617298D01*
X160504139Y-114617298D01*
X158612406Y-112725565D01*
X163044040Y-112725565D01*
X163111020Y-112965656D01*
X163360048Y-113082756D01*
X163627135Y-113149023D01*
X163902017Y-113161910D01*
X164174133Y-113120922D01*
X164433023Y-113027636D01*
X164548980Y-112965656D01*
X164615960Y-112725565D01*
X163830000Y-111939605D01*
X163044040Y-112725565D01*
X158612406Y-112725565D01*
X157718858Y-111832017D01*
X162428090Y-111832017D01*
X162469078Y-112104133D01*
X162562364Y-112363023D01*
X162624344Y-112478980D01*
X162864435Y-112545960D01*
X163650395Y-111760000D01*
X162864435Y-110974040D01*
X162624344Y-111041020D01*
X162507244Y-111290048D01*
X162440977Y-111557135D01*
X162428090Y-111832017D01*
X157718858Y-111832017D01*
X157646840Y-111760000D01*
X162458923Y-106947917D01*
X162486686Y-107087490D01*
G36*
X180200301Y-115948684D02*
G01*
X180184637Y-115925241D01*
X179984759Y-115725363D01*
X179749727Y-115568320D01*
X179488574Y-115460147D01*
X179211335Y-115405000D01*
X178928665Y-115405000D01*
X178651426Y-115460147D01*
X178390273Y-115568320D01*
X178155241Y-115725363D01*
X177955363Y-115925241D01*
X177798320Y-116160273D01*
X177690147Y-116421426D01*
X177635000Y-116698665D01*
X177635000Y-116981335D01*
X177690147Y-117258574D01*
X177798320Y-117519727D01*
X177955363Y-117754759D01*
X178155241Y-117954637D01*
X178390273Y-118111680D01*
X178651426Y-118219853D01*
X178928665Y-118275000D01*
X179211335Y-118275000D01*
X179488574Y-118219853D01*
X179749727Y-118111680D01*
X179984759Y-117954637D01*
X180184637Y-117754759D01*
X180200301Y-117731316D01*
X180200301Y-123568684D01*
X180184637Y-123545241D01*
X179984759Y-123345363D01*
X179749727Y-123188320D01*
X179488574Y-123080147D01*
X179211335Y-123025000D01*
X179071841Y-123025000D01*
X174908956Y-118862115D01*
X174945778Y-118831896D01*
X174977594Y-118793128D01*
X176784134Y-116986589D01*
X176822897Y-116954777D01*
X176949861Y-116800071D01*
X177044203Y-116623568D01*
X177102299Y-116432052D01*
X177117001Y-116282783D01*
X177121916Y-116232882D01*
X177117001Y-116182980D01*
X177117001Y-114957021D01*
X177121916Y-114907119D01*
X177102299Y-114707948D01*
X177077682Y-114626798D01*
X177044203Y-114516432D01*
X176949861Y-114339929D01*
X176822897Y-114185223D01*
X176784134Y-114153411D01*
X174244000Y-111613278D01*
X174244000Y-105967902D01*
X174248915Y-105918000D01*
X174229298Y-105718829D01*
X174171202Y-105527313D01*
X174147684Y-105483314D01*
X174076860Y-105350810D01*
X173949896Y-105196104D01*
X173911133Y-105164292D01*
X172885000Y-104138160D01*
X172885000Y-103998665D01*
X172840509Y-103774999D01*
X175139491Y-103774999D01*
X175095000Y-103998665D01*
X175095000Y-104281335D01*
X175150147Y-104558574D01*
X175258320Y-104819727D01*
X175415363Y-105054759D01*
X175615241Y-105254637D01*
X175850273Y-105411680D01*
X176111426Y-105519853D01*
X176388665Y-105575000D01*
X176671335Y-105575000D01*
X176948574Y-105519853D01*
X177209727Y-105411680D01*
X177444759Y-105254637D01*
X177583999Y-105115397D01*
X177584000Y-109269159D01*
X176528160Y-110325000D01*
X176388665Y-110325000D01*
X176111426Y-110380147D01*
X175850273Y-110488320D01*
X175615241Y-110645363D01*
X175415363Y-110845241D01*
X175258320Y-111080273D01*
X175150147Y-111341426D01*
X175095000Y-111618665D01*
X175095000Y-111901335D01*
X175150147Y-112178574D01*
X175258320Y-112439727D01*
X175415363Y-112674759D01*
X175615241Y-112874637D01*
X175850273Y-113031680D01*
X176111426Y-113139853D01*
X176388665Y-113195000D01*
X176671335Y-113195000D01*
X176948574Y-113139853D01*
X177209727Y-113031680D01*
X177444759Y-112874637D01*
X177644637Y-112674759D01*
X177801680Y-112439727D01*
X177909853Y-112178574D01*
X177965000Y-111901335D01*
X177965000Y-111761840D01*
X179283132Y-110443709D01*
X179321895Y-110411897D01*
X179448859Y-110257191D01*
X179543201Y-110080688D01*
X179601297Y-109889172D01*
X179615999Y-109739903D01*
X179620914Y-109690001D01*
X179615999Y-109640099D01*
X179615999Y-101179892D01*
X179620913Y-101129998D01*
X179615999Y-101080104D01*
X179615999Y-101080097D01*
X179601297Y-100930828D01*
X179543201Y-100739312D01*
X179448859Y-100562809D01*
X179321895Y-100408103D01*
X179283132Y-100376291D01*
X179235000Y-100328159D01*
X179235000Y-100188665D01*
X179179853Y-99911426D01*
X179071680Y-99650273D01*
X178914637Y-99415241D01*
X178714759Y-99215363D01*
X178479727Y-99058320D01*
X178218574Y-98950147D01*
X177941335Y-98895000D01*
X177658665Y-98895000D01*
X177381426Y-98950147D01*
X177120273Y-99058320D01*
X176885241Y-99215363D01*
X176685363Y-99415241D01*
X176528320Y-99650273D01*
X176420147Y-99911426D01*
X176365000Y-100188665D01*
X176365000Y-100328159D01*
X174950161Y-101742999D01*
X170431940Y-101742999D01*
X170598574Y-101709853D01*
X170859727Y-101601680D01*
X171094759Y-101444637D01*
X171294637Y-101244759D01*
X171451680Y-101009727D01*
X171559853Y-100748574D01*
X171615000Y-100471335D01*
X171615000Y-100188665D01*
X171559853Y-99911426D01*
X171451680Y-99650273D01*
X171294637Y-99415241D01*
X171094759Y-99215363D01*
X170859727Y-99058320D01*
X170598574Y-98950147D01*
X170321335Y-98895000D01*
X170038665Y-98895000D01*
X169761426Y-98950147D01*
X169500273Y-99058320D01*
X169265241Y-99215363D01*
X169065363Y-99415241D01*
X168961957Y-99570000D01*
X167588043Y-99570000D01*
X167484637Y-99415241D01*
X167284759Y-99215363D01*
X167049727Y-99058320D01*
X166788574Y-98950147D01*
X166511335Y-98895000D01*
X166228665Y-98895000D01*
X165951426Y-98950147D01*
X165690273Y-99058320D01*
X165455241Y-99215363D01*
X165255363Y-99415241D01*
X165098320Y-99650273D01*
X164990147Y-99911426D01*
X164935000Y-100188665D01*
X164935000Y-100471335D01*
X164990147Y-100748574D01*
X165098320Y-101009727D01*
X165255363Y-101244759D01*
X165455241Y-101444637D01*
X165690273Y-101601680D01*
X165951426Y-101709853D01*
X166118060Y-101742999D01*
X165260894Y-101742999D01*
X165211000Y-101738085D01*
X165161106Y-101742999D01*
X165161099Y-101742999D01*
X165031178Y-101755795D01*
X165011829Y-101757701D01*
X164953733Y-101775325D01*
X164820314Y-101815797D01*
X164643811Y-101910139D01*
X164489105Y-102037103D01*
X164457294Y-102075865D01*
X163830000Y-102703159D01*
X162154713Y-101027873D01*
X162122897Y-100989105D01*
X161968191Y-100862141D01*
X161791688Y-100767799D01*
X161600172Y-100709703D01*
X161450903Y-100695001D01*
X161401001Y-100690086D01*
X161351099Y-100695001D01*
X160140509Y-100695001D01*
X160185000Y-100471335D01*
X160185000Y-100188665D01*
X160129853Y-99911426D01*
X160021680Y-99650273D01*
X159864637Y-99415241D01*
X159664759Y-99215363D01*
X159429727Y-99058320D01*
X159168574Y-98950147D01*
X158891335Y-98895000D01*
X158608665Y-98895000D01*
X158331426Y-98950147D01*
X158070273Y-99058320D01*
X157835241Y-99215363D01*
X157635363Y-99415241D01*
X157478320Y-99650273D01*
X157370147Y-99911426D01*
X157315000Y-100188665D01*
X157315000Y-100471335D01*
X157359491Y-100695001D01*
X156741842Y-100695001D01*
X156375000Y-100328159D01*
X156375000Y-100188665D01*
X156319853Y-99911426D01*
X156211680Y-99650273D01*
X156054637Y-99415241D01*
X155854759Y-99215363D01*
X155619727Y-99058320D01*
X155358574Y-98950147D01*
X155081335Y-98895000D01*
X154798665Y-98895000D01*
X154521426Y-98950147D01*
X154260273Y-99058320D01*
X154025241Y-99215363D01*
X153825363Y-99415241D01*
X153668320Y-99650273D01*
X153560147Y-99911426D01*
X153505000Y-100188665D01*
X153505000Y-100471335D01*
X153560147Y-100748574D01*
X153668320Y-101009727D01*
X153825363Y-101244759D01*
X154025241Y-101444637D01*
X154260273Y-101601680D01*
X154521426Y-101709853D01*
X154798665Y-101765000D01*
X154938159Y-101765000D01*
X155567293Y-102394134D01*
X155599105Y-102432897D01*
X155753811Y-102559861D01*
X155930314Y-102654203D01*
X156063733Y-102694675D01*
X156121829Y-102712299D01*
X156141178Y-102714205D01*
X156271099Y-102727001D01*
X156271106Y-102727001D01*
X156321000Y-102731915D01*
X156370894Y-102727001D01*
X160980161Y-102727001D01*
X162393159Y-104140000D01*
X157581077Y-108952083D01*
X157553314Y-108812510D01*
X157448005Y-108558273D01*
X157295120Y-108329465D01*
X157100535Y-108134880D01*
X156871727Y-107981995D01*
X156794485Y-107950000D01*
X156871727Y-107918005D01*
X157100535Y-107765120D01*
X157295120Y-107570535D01*
X157448005Y-107341727D01*
X157553314Y-107087490D01*
X157607000Y-106817592D01*
X157607000Y-106542408D01*
X157553314Y-106272510D01*
X157448005Y-106018273D01*
X157295120Y-105789465D01*
X157100535Y-105594880D01*
X156871727Y-105441995D01*
X156794485Y-105410000D01*
X156871727Y-105378005D01*
X157100535Y-105225120D01*
X157295120Y-105030535D01*
X157448005Y-104801727D01*
X157553314Y-104547490D01*
X157607000Y-104277592D01*
X157607000Y-104002408D01*
X157553314Y-103732510D01*
X157448005Y-103478273D01*
X157295120Y-103249465D01*
X157100535Y-103054880D01*
X156871727Y-102901995D01*
X156617490Y-102796686D01*
X156347592Y-102743000D01*
X156072408Y-102743000D01*
X155802510Y-102796686D01*
X155548273Y-102901995D01*
X155319465Y-103054880D01*
X155124880Y-103249465D01*
X154971995Y-103478273D01*
X154866686Y-103732510D01*
X154813000Y-104002408D01*
X154813000Y-104277592D01*
X154866686Y-104547490D01*
X154971995Y-104801727D01*
X155124880Y-105030535D01*
X155319465Y-105225120D01*
X155548273Y-105378005D01*
X155625515Y-105410000D01*
X155548273Y-105441995D01*
X155319465Y-105594880D01*
X155124880Y-105789465D01*
X154971995Y-106018273D01*
X154866686Y-106272510D01*
X154813000Y-106542408D01*
X154813000Y-106817592D01*
X154866686Y-107087490D01*
X154971995Y-107341727D01*
X155124880Y-107570535D01*
X155319465Y-107765120D01*
X155548273Y-107918005D01*
X155625515Y-107950000D01*
X155548273Y-107981995D01*
X155319465Y-108134880D01*
X155124880Y-108329465D01*
X154971995Y-108558273D01*
X154866686Y-108812510D01*
X154813000Y-109082408D01*
X154813000Y-109357592D01*
X154866686Y-109627490D01*
X154971995Y-109881727D01*
X155124880Y-110110535D01*
X155319465Y-110305120D01*
X155548273Y-110458005D01*
X155625515Y-110490000D01*
X155548273Y-110521995D01*
X155319465Y-110674880D01*
X155124880Y-110869465D01*
X154971995Y-111098273D01*
X154866686Y-111352510D01*
X154813000Y-111622408D01*
X154813000Y-111897592D01*
X154866686Y-112167490D01*
X154971995Y-112421727D01*
X155124880Y-112650535D01*
X155319465Y-112845120D01*
X155548273Y-112998005D01*
X155802510Y-113103314D01*
X156072408Y-113157000D01*
X156170160Y-113157000D01*
X159044001Y-116030842D01*
X159044000Y-121964471D01*
X158828850Y-122179621D01*
X158810000Y-122207832D01*
X158791150Y-122179621D01*
X158570379Y-121958850D01*
X158310779Y-121785391D01*
X158022327Y-121665911D01*
X157716109Y-121605000D01*
X157403891Y-121605000D01*
X157097673Y-121665911D01*
X156809221Y-121785391D01*
X156549621Y-121958850D01*
X156334471Y-122174000D01*
X139170841Y-122174000D01*
X132381841Y-115385000D01*
X148136928Y-115385000D01*
X148149188Y-115509482D01*
X148185498Y-115629180D01*
X148244463Y-115739494D01*
X148323815Y-115836185D01*
X148420506Y-115915537D01*
X148530820Y-115974502D01*
X148650518Y-116010812D01*
X148775000Y-116023072D01*
X149574250Y-116020000D01*
X149733000Y-115861250D01*
X149733000Y-114427000D01*
X149987000Y-114427000D01*
X149987000Y-115861250D01*
X150145750Y-116020000D01*
X150945000Y-116023072D01*
X151069482Y-116010812D01*
X151189180Y-115974502D01*
X151299494Y-115915537D01*
X151396185Y-115836185D01*
X151475537Y-115739494D01*
X151534502Y-115629180D01*
X151570812Y-115509482D01*
X151583072Y-115385000D01*
X151580000Y-114585750D01*
X151421250Y-114427000D01*
X149987000Y-114427000D01*
X149733000Y-114427000D01*
X148298750Y-114427000D01*
X148140000Y-114585750D01*
X148136928Y-115385000D01*
X132381841Y-115385000D01*
X131701448Y-114704608D01*
X131745000Y-114485656D01*
X131745000Y-114114344D01*
X131672561Y-113750166D01*
X131530466Y-113407118D01*
X131402097Y-113215000D01*
X148136928Y-113215000D01*
X148140000Y-114014250D01*
X148298750Y-114173000D01*
X149733000Y-114173000D01*
X149733000Y-112738750D01*
X149987000Y-112738750D01*
X149987000Y-114173000D01*
X151421250Y-114173000D01*
X151580000Y-114014250D01*
X151583072Y-113215000D01*
X151570812Y-113090518D01*
X151534502Y-112970820D01*
X151475537Y-112860506D01*
X151396185Y-112763815D01*
X151299494Y-112684463D01*
X151189180Y-112625498D01*
X151069482Y-112589188D01*
X150945000Y-112576928D01*
X150145750Y-112580000D01*
X149987000Y-112738750D01*
X149733000Y-112738750D01*
X149574250Y-112580000D01*
X148775000Y-112576928D01*
X148650518Y-112589188D01*
X148530820Y-112625498D01*
X148420506Y-112684463D01*
X148323815Y-112763815D01*
X148244463Y-112860506D01*
X148185498Y-112970820D01*
X148149188Y-113090518D01*
X148136928Y-113215000D01*
X131402097Y-113215000D01*
X131324175Y-113098382D01*
X131061618Y-112835825D01*
X130752882Y-112629534D01*
X130409834Y-112487439D01*
X130045656Y-112415000D01*
X129674344Y-112415000D01*
X129310166Y-112487439D01*
X128967118Y-112629534D01*
X128658382Y-112835825D01*
X128609710Y-112884497D01*
X128609710Y-105237130D01*
X133658175Y-100188665D01*
X145885000Y-100188665D01*
X145885000Y-100471335D01*
X145940147Y-100748574D01*
X146048320Y-101009727D01*
X146205363Y-101244759D01*
X146405241Y-101444637D01*
X146640273Y-101601680D01*
X146901426Y-101709853D01*
X147178665Y-101765000D01*
X147461335Y-101765000D01*
X147738574Y-101709853D01*
X147999727Y-101601680D01*
X148234759Y-101444637D01*
X148434637Y-101244759D01*
X148591680Y-101009727D01*
X148699853Y-100748574D01*
X148755000Y-100471335D01*
X148755000Y-100188665D01*
X148699853Y-99911426D01*
X148591680Y-99650273D01*
X148434637Y-99415241D01*
X148234759Y-99215363D01*
X147999727Y-99058320D01*
X147738574Y-98950147D01*
X147461335Y-98895000D01*
X147178665Y-98895000D01*
X146901426Y-98950147D01*
X146640273Y-99058320D01*
X146405241Y-99215363D01*
X146205363Y-99415241D01*
X146048320Y-99650273D01*
X145940147Y-99911426D01*
X145885000Y-100188665D01*
X133658175Y-100188665D01*
X164898769Y-68948072D01*
X166100000Y-68948072D01*
X166224482Y-68935812D01*
X166344180Y-68899502D01*
X166454494Y-68840537D01*
X166551185Y-68761185D01*
X166630537Y-68664494D01*
X166689502Y-68554180D01*
X166725812Y-68434482D01*
X166738072Y-68310000D01*
X166738072Y-66310000D01*
X166725812Y-66185518D01*
X166689502Y-66065820D01*
X166630537Y-65955506D01*
X166551185Y-65858815D01*
X166454494Y-65779463D01*
X166408370Y-65754809D01*
X166548918Y-65544463D01*
X166672168Y-65246912D01*
X166735000Y-64931033D01*
X166735000Y-64608967D01*
X166672168Y-64293088D01*
X166548918Y-63995537D01*
X166369987Y-63727748D01*
X166142252Y-63500013D01*
X165874463Y-63321082D01*
X165576912Y-63197832D01*
X165261033Y-63135000D01*
X164938967Y-63135000D01*
X164623088Y-63197832D01*
X164325537Y-63321082D01*
X164057748Y-63500013D01*
X163830013Y-63727748D01*
X163651082Y-63995537D01*
X163527832Y-64293088D01*
X163465000Y-64608967D01*
X163465000Y-64931033D01*
X163527832Y-65246912D01*
X163651082Y-65544463D01*
X163791630Y-65754809D01*
X163745506Y-65779463D01*
X163648815Y-65858815D01*
X163569463Y-65955506D01*
X163510498Y-66065820D01*
X163474188Y-66185518D01*
X163463504Y-66294000D01*
X145146496Y-66294000D01*
X145135812Y-66185518D01*
X145099502Y-66065820D01*
X145040537Y-65955506D01*
X144961185Y-65858815D01*
X144864494Y-65779463D01*
X144818370Y-65754809D01*
X144958918Y-65544463D01*
X145082168Y-65246912D01*
X145145000Y-64931033D01*
X145145000Y-64608967D01*
X145082168Y-64293088D01*
X144958918Y-63995537D01*
X144779987Y-63727748D01*
X144552252Y-63500013D01*
X144284463Y-63321082D01*
X143986912Y-63197832D01*
X143671033Y-63135000D01*
X143348967Y-63135000D01*
X143033088Y-63197832D01*
X142735537Y-63321082D01*
X142467748Y-63500013D01*
X142240013Y-63727748D01*
X142061082Y-63995537D01*
X141937832Y-64293088D01*
X141875000Y-64608967D01*
X141875000Y-64931033D01*
X141937832Y-65246912D01*
X142061082Y-65544463D01*
X142201630Y-65754809D01*
X142155506Y-65779463D01*
X142058815Y-65858815D01*
X141979463Y-65955506D01*
X141920498Y-66065820D01*
X141884188Y-66185518D01*
X141871928Y-66310000D01*
X141871928Y-68310000D01*
X141884188Y-68434482D01*
X141920498Y-68554180D01*
X141979463Y-68664494D01*
X142058815Y-68761185D01*
X142155506Y-68840537D01*
X142265820Y-68899502D01*
X142385518Y-68935812D01*
X142510000Y-68948072D01*
X144510000Y-68948072D01*
X144634482Y-68935812D01*
X144754180Y-68899502D01*
X144864494Y-68840537D01*
X144961185Y-68761185D01*
X145040537Y-68664494D01*
X145099502Y-68554180D01*
X145135812Y-68434482D01*
X145146496Y-68326000D01*
X162647159Y-68326000D01*
X127647700Y-103325460D01*
X127647700Y-45963216D01*
X146025386Y-45963216D01*
X146029488Y-46021803D01*
X146032769Y-46080391D01*
X146034214Y-46089308D01*
X146034215Y-46089317D01*
X146034217Y-46089325D01*
X146096803Y-46459141D01*
X146112197Y-46515781D01*
X146126803Y-46572647D01*
X146129954Y-46581114D01*
X146129957Y-46581125D01*
X146129962Y-46581135D01*
X146263183Y-46931745D01*
X146289296Y-46984338D01*
X146314661Y-47037266D01*
X146319400Y-47044968D01*
X146518193Y-47363036D01*
X146554027Y-47409559D01*
X146589184Y-47456545D01*
X146595329Y-47463180D01*
X146852114Y-47736578D01*
X146896281Y-47775236D01*
X146939919Y-47814521D01*
X146947231Y-47819831D01*
X146947234Y-47819834D01*
X146947236Y-47819835D01*
X147252235Y-48038149D01*
X147303122Y-48067522D01*
X147353504Y-48097550D01*
X147361713Y-48101343D01*
X147703308Y-48256259D01*
X147758918Y-48275184D01*
X147814187Y-48294859D01*
X147822977Y-48296985D01*
X148167918Y-48377856D01*
X148209029Y-48390327D01*
X148304191Y-48399700D01*
X158882514Y-48399700D01*
X158964365Y-48408302D01*
X158966193Y-48408664D01*
X158967809Y-48408664D01*
X158999400Y-48411984D01*
X159008615Y-48411984D01*
X159035214Y-48411798D01*
X159065028Y-48408664D01*
X159095003Y-48408664D01*
X159104167Y-48407701D01*
X159473641Y-48366258D01*
X159532130Y-48353825D01*
X159590833Y-48342202D01*
X159599636Y-48339477D01*
X159954023Y-48227059D01*
X160008991Y-48203499D01*
X160064311Y-48180698D01*
X160072417Y-48176315D01*
X160398220Y-47997203D01*
X160447589Y-47963399D01*
X160497401Y-47930305D01*
X160504502Y-47924431D01*
X160789309Y-47685449D01*
X160831137Y-47642735D01*
X160873609Y-47600559D01*
X160879433Y-47593418D01*
X161112399Y-47303667D01*
X161145159Y-47253604D01*
X161178604Y-47204020D01*
X161182930Y-47195883D01*
X161355179Y-46866402D01*
X161377581Y-46810956D01*
X161400769Y-46755793D01*
X161403432Y-46746971D01*
X161508404Y-46390306D01*
X161519608Y-46331575D01*
X161531642Y-46272951D01*
X161532541Y-46263780D01*
X161566238Y-45893520D01*
X161565820Y-45833702D01*
X161566238Y-45773883D01*
X161565338Y-45764712D01*
X161526475Y-45394958D01*
X161514449Y-45336371D01*
X161503238Y-45277601D01*
X161500574Y-45268779D01*
X161390633Y-44913615D01*
X161367449Y-44858464D01*
X161345044Y-44803008D01*
X161340717Y-44794872D01*
X161163885Y-44467827D01*
X161130469Y-44418285D01*
X161097680Y-44368178D01*
X161091855Y-44361037D01*
X160854866Y-44074568D01*
X160812451Y-44032448D01*
X160770569Y-43989679D01*
X160763468Y-43983805D01*
X160475351Y-43748822D01*
X160425540Y-43715728D01*
X160376168Y-43681922D01*
X160368062Y-43677539D01*
X160039790Y-43502994D01*
X159984489Y-43480201D01*
X159929504Y-43456634D01*
X159920700Y-43453909D01*
X159564778Y-43346449D01*
X159506078Y-43334826D01*
X159447584Y-43322393D01*
X159438422Y-43321430D01*
X159438420Y-43321430D01*
X159068404Y-43285150D01*
X158939594Y-43285150D01*
X158893385Y-43294300D01*
X148862188Y-43294300D01*
X148839921Y-43291331D01*
X148830881Y-43291080D01*
X148455882Y-43283260D01*
X148397309Y-43287772D01*
X148338762Y-43291461D01*
X148329857Y-43292968D01*
X148329846Y-43292969D01*
X148329836Y-43292972D01*
X148322307Y-43294300D01*
X148304191Y-43294300D01*
X148209029Y-43303673D01*
X148125418Y-43329036D01*
X147960469Y-43358137D01*
X147903945Y-43373924D01*
X147847174Y-43388929D01*
X147838727Y-43392140D01*
X147838719Y-43392142D01*
X147838712Y-43392145D01*
X147489036Y-43527813D01*
X147436617Y-43554298D01*
X147383880Y-43580025D01*
X147376215Y-43584815D01*
X147376210Y-43584818D01*
X147376206Y-43584821D01*
X147059538Y-43785826D01*
X147013242Y-43822003D01*
X146966525Y-43857470D01*
X146959939Y-43863655D01*
X146959933Y-43863660D01*
X146959928Y-43863666D01*
X146688334Y-44122350D01*
X146649989Y-44166782D01*
X146611008Y-44210695D01*
X146605745Y-44218049D01*
X146389565Y-44524565D01*
X146360557Y-44575639D01*
X146330872Y-44626247D01*
X146327139Y-44634478D01*
X146327136Y-44634483D01*
X146327134Y-44634488D01*
X146174610Y-44977150D01*
X146156073Y-45032892D01*
X146136785Y-45088295D01*
X146134722Y-45097096D01*
X146134720Y-45097101D01*
X146134719Y-45097106D01*
X146051656Y-45462866D01*
X146044302Y-45521114D01*
X146036138Y-45579243D01*
X146035824Y-45588269D01*
X146035823Y-45588280D01*
X146035824Y-45588291D01*
X146025386Y-45963216D01*
X127647700Y-45963216D01*
X127647700Y-42303700D01*
X180200300Y-42303700D01*
X180200301Y-115948684D01*
G37*
X180200301Y-115948684D02*
X180184637Y-115925241D01*
X179984759Y-115725363D01*
X179749727Y-115568320D01*
X179488574Y-115460147D01*
X179211335Y-115405000D01*
X178928665Y-115405000D01*
X178651426Y-115460147D01*
X178390273Y-115568320D01*
X178155241Y-115725363D01*
X177955363Y-115925241D01*
X177798320Y-116160273D01*
X177690147Y-116421426D01*
X177635000Y-116698665D01*
X177635000Y-116981335D01*
X177690147Y-117258574D01*
X177798320Y-117519727D01*
X177955363Y-117754759D01*
X178155241Y-117954637D01*
X178390273Y-118111680D01*
X178651426Y-118219853D01*
X178928665Y-118275000D01*
X179211335Y-118275000D01*
X179488574Y-118219853D01*
X179749727Y-118111680D01*
X179984759Y-117954637D01*
X180184637Y-117754759D01*
X180200301Y-117731316D01*
X180200301Y-123568684D01*
X180184637Y-123545241D01*
X179984759Y-123345363D01*
X179749727Y-123188320D01*
X179488574Y-123080147D01*
X179211335Y-123025000D01*
X179071841Y-123025000D01*
X174908956Y-118862115D01*
X174945778Y-118831896D01*
X174977594Y-118793128D01*
X176784134Y-116986589D01*
X176822897Y-116954777D01*
X176949861Y-116800071D01*
X177044203Y-116623568D01*
X177102299Y-116432052D01*
X177117001Y-116282783D01*
X177121916Y-116232882D01*
X177117001Y-116182980D01*
X177117001Y-114957021D01*
X177121916Y-114907119D01*
X177102299Y-114707948D01*
X177077682Y-114626798D01*
X177044203Y-114516432D01*
X176949861Y-114339929D01*
X176822897Y-114185223D01*
X176784134Y-114153411D01*
X174244000Y-111613278D01*
X174244000Y-105967902D01*
X174248915Y-105918000D01*
X174229298Y-105718829D01*
X174171202Y-105527313D01*
X174147684Y-105483314D01*
X174076860Y-105350810D01*
X173949896Y-105196104D01*
X173911133Y-105164292D01*
X172885000Y-104138160D01*
X172885000Y-103998665D01*
X172840509Y-103774999D01*
X175139491Y-103774999D01*
X175095000Y-103998665D01*
X175095000Y-104281335D01*
X175150147Y-104558574D01*
X175258320Y-104819727D01*
X175415363Y-105054759D01*
X175615241Y-105254637D01*
X175850273Y-105411680D01*
X176111426Y-105519853D01*
X176388665Y-105575000D01*
X176671335Y-105575000D01*
X176948574Y-105519853D01*
X177209727Y-105411680D01*
X177444759Y-105254637D01*
X177583999Y-105115397D01*
X177584000Y-109269159D01*
X176528160Y-110325000D01*
X176388665Y-110325000D01*
X176111426Y-110380147D01*
X175850273Y-110488320D01*
X175615241Y-110645363D01*
X175415363Y-110845241D01*
X175258320Y-111080273D01*
X175150147Y-111341426D01*
X175095000Y-111618665D01*
X175095000Y-111901335D01*
X175150147Y-112178574D01*
X175258320Y-112439727D01*
X175415363Y-112674759D01*
X175615241Y-112874637D01*
X175850273Y-113031680D01*
X176111426Y-113139853D01*
X176388665Y-113195000D01*
X176671335Y-113195000D01*
X176948574Y-113139853D01*
X177209727Y-113031680D01*
X177444759Y-112874637D01*
X177644637Y-112674759D01*
X177801680Y-112439727D01*
X177909853Y-112178574D01*
X177965000Y-111901335D01*
X177965000Y-111761840D01*
X179283132Y-110443709D01*
X179321895Y-110411897D01*
X179448859Y-110257191D01*
X179543201Y-110080688D01*
X179601297Y-109889172D01*
X179615999Y-109739903D01*
X179620914Y-109690001D01*
X179615999Y-109640099D01*
X179615999Y-101179892D01*
X179620913Y-101129998D01*
X179615999Y-101080104D01*
X179615999Y-101080097D01*
X179601297Y-100930828D01*
X179543201Y-100739312D01*
X179448859Y-100562809D01*
X179321895Y-100408103D01*
X179283132Y-100376291D01*
X179235000Y-100328159D01*
X179235000Y-100188665D01*
X179179853Y-99911426D01*
X179071680Y-99650273D01*
X178914637Y-99415241D01*
X178714759Y-99215363D01*
X178479727Y-99058320D01*
X178218574Y-98950147D01*
X177941335Y-98895000D01*
X177658665Y-98895000D01*
X177381426Y-98950147D01*
X177120273Y-99058320D01*
X176885241Y-99215363D01*
X176685363Y-99415241D01*
X176528320Y-99650273D01*
X176420147Y-99911426D01*
X176365000Y-100188665D01*
X176365000Y-100328159D01*
X174950161Y-101742999D01*
X170431940Y-101742999D01*
X170598574Y-101709853D01*
X170859727Y-101601680D01*
X171094759Y-101444637D01*
X171294637Y-101244759D01*
X171451680Y-101009727D01*
X171559853Y-100748574D01*
X171615000Y-100471335D01*
X171615000Y-100188665D01*
X171559853Y-99911426D01*
X171451680Y-99650273D01*
X171294637Y-99415241D01*
X171094759Y-99215363D01*
X170859727Y-99058320D01*
X170598574Y-98950147D01*
X170321335Y-98895000D01*
X170038665Y-98895000D01*
X169761426Y-98950147D01*
X169500273Y-99058320D01*
X169265241Y-99215363D01*
X169065363Y-99415241D01*
X168961957Y-99570000D01*
X167588043Y-99570000D01*
X167484637Y-99415241D01*
X167284759Y-99215363D01*
X167049727Y-99058320D01*
X166788574Y-98950147D01*
X166511335Y-98895000D01*
X166228665Y-98895000D01*
X165951426Y-98950147D01*
X165690273Y-99058320D01*
X165455241Y-99215363D01*
X165255363Y-99415241D01*
X165098320Y-99650273D01*
X164990147Y-99911426D01*
X164935000Y-100188665D01*
X164935000Y-100471335D01*
X164990147Y-100748574D01*
X165098320Y-101009727D01*
X165255363Y-101244759D01*
X165455241Y-101444637D01*
X165690273Y-101601680D01*
X165951426Y-101709853D01*
X166118060Y-101742999D01*
X165260894Y-101742999D01*
X165211000Y-101738085D01*
X165161106Y-101742999D01*
X165161099Y-101742999D01*
X165031178Y-101755795D01*
X165011829Y-101757701D01*
X164953733Y-101775325D01*
X164820314Y-101815797D01*
X164643811Y-101910139D01*
X164489105Y-102037103D01*
X164457294Y-102075865D01*
X163830000Y-102703159D01*
X162154713Y-101027873D01*
X162122897Y-100989105D01*
X161968191Y-100862141D01*
X161791688Y-100767799D01*
X161600172Y-100709703D01*
X161450903Y-100695001D01*
X161401001Y-100690086D01*
X161351099Y-100695001D01*
X160140509Y-100695001D01*
X160185000Y-100471335D01*
X160185000Y-100188665D01*
X160129853Y-99911426D01*
X160021680Y-99650273D01*
X159864637Y-99415241D01*
X159664759Y-99215363D01*
X159429727Y-99058320D01*
X159168574Y-98950147D01*
X158891335Y-98895000D01*
X158608665Y-98895000D01*
X158331426Y-98950147D01*
X158070273Y-99058320D01*
X157835241Y-99215363D01*
X157635363Y-99415241D01*
X157478320Y-99650273D01*
X157370147Y-99911426D01*
X157315000Y-100188665D01*
X157315000Y-100471335D01*
X157359491Y-100695001D01*
X156741842Y-100695001D01*
X156375000Y-100328159D01*
X156375000Y-100188665D01*
X156319853Y-99911426D01*
X156211680Y-99650273D01*
X156054637Y-99415241D01*
X155854759Y-99215363D01*
X155619727Y-99058320D01*
X155358574Y-98950147D01*
X155081335Y-98895000D01*
X154798665Y-98895000D01*
X154521426Y-98950147D01*
X154260273Y-99058320D01*
X154025241Y-99215363D01*
X153825363Y-99415241D01*
X153668320Y-99650273D01*
X153560147Y-99911426D01*
X153505000Y-100188665D01*
X153505000Y-100471335D01*
X153560147Y-100748574D01*
X153668320Y-101009727D01*
X153825363Y-101244759D01*
X154025241Y-101444637D01*
X154260273Y-101601680D01*
X154521426Y-101709853D01*
X154798665Y-101765000D01*
X154938159Y-101765000D01*
X155567293Y-102394134D01*
X155599105Y-102432897D01*
X155753811Y-102559861D01*
X155930314Y-102654203D01*
X156063733Y-102694675D01*
X156121829Y-102712299D01*
X156141178Y-102714205D01*
X156271099Y-102727001D01*
X156271106Y-102727001D01*
X156321000Y-102731915D01*
X156370894Y-102727001D01*
X160980161Y-102727001D01*
X162393159Y-104140000D01*
X157581077Y-108952083D01*
X157553314Y-108812510D01*
X157448005Y-108558273D01*
X157295120Y-108329465D01*
X157100535Y-108134880D01*
X156871727Y-107981995D01*
X156794485Y-107950000D01*
X156871727Y-107918005D01*
X157100535Y-107765120D01*
X157295120Y-107570535D01*
X157448005Y-107341727D01*
X157553314Y-107087490D01*
X157607000Y-106817592D01*
X157607000Y-106542408D01*
X157553314Y-106272510D01*
X157448005Y-106018273D01*
X157295120Y-105789465D01*
X157100535Y-105594880D01*
X156871727Y-105441995D01*
X156794485Y-105410000D01*
X156871727Y-105378005D01*
X157100535Y-105225120D01*
X157295120Y-105030535D01*
X157448005Y-104801727D01*
X157553314Y-104547490D01*
X157607000Y-104277592D01*
X157607000Y-104002408D01*
X157553314Y-103732510D01*
X157448005Y-103478273D01*
X157295120Y-103249465D01*
X157100535Y-103054880D01*
X156871727Y-102901995D01*
X156617490Y-102796686D01*
X156347592Y-102743000D01*
X156072408Y-102743000D01*
X155802510Y-102796686D01*
X155548273Y-102901995D01*
X155319465Y-103054880D01*
X155124880Y-103249465D01*
X154971995Y-103478273D01*
X154866686Y-103732510D01*
X154813000Y-104002408D01*
X154813000Y-104277592D01*
X154866686Y-104547490D01*
X154971995Y-104801727D01*
X155124880Y-105030535D01*
X155319465Y-105225120D01*
X155548273Y-105378005D01*
X155625515Y-105410000D01*
X155548273Y-105441995D01*
X155319465Y-105594880D01*
X155124880Y-105789465D01*
X154971995Y-106018273D01*
X154866686Y-106272510D01*
X154813000Y-106542408D01*
X154813000Y-106817592D01*
X154866686Y-107087490D01*
X154971995Y-107341727D01*
X155124880Y-107570535D01*
X155319465Y-107765120D01*
X155548273Y-107918005D01*
X155625515Y-107950000D01*
X155548273Y-107981995D01*
X155319465Y-108134880D01*
X155124880Y-108329465D01*
X154971995Y-108558273D01*
X154866686Y-108812510D01*
X154813000Y-109082408D01*
X154813000Y-109357592D01*
X154866686Y-109627490D01*
X154971995Y-109881727D01*
X155124880Y-110110535D01*
X155319465Y-110305120D01*
X155548273Y-110458005D01*
X155625515Y-110490000D01*
X155548273Y-110521995D01*
X155319465Y-110674880D01*
X155124880Y-110869465D01*
X154971995Y-111098273D01*
X154866686Y-111352510D01*
X154813000Y-111622408D01*
X154813000Y-111897592D01*
X154866686Y-112167490D01*
X154971995Y-112421727D01*
X155124880Y-112650535D01*
X155319465Y-112845120D01*
X155548273Y-112998005D01*
X155802510Y-113103314D01*
X156072408Y-113157000D01*
X156170160Y-113157000D01*
X159044001Y-116030842D01*
X159044000Y-121964471D01*
X158828850Y-122179621D01*
X158810000Y-122207832D01*
X158791150Y-122179621D01*
X158570379Y-121958850D01*
X158310779Y-121785391D01*
X158022327Y-121665911D01*
X157716109Y-121605000D01*
X157403891Y-121605000D01*
X157097673Y-121665911D01*
X156809221Y-121785391D01*
X156549621Y-121958850D01*
X156334471Y-122174000D01*
X139170841Y-122174000D01*
X132381841Y-115385000D01*
X148136928Y-115385000D01*
X148149188Y-115509482D01*
X148185498Y-115629180D01*
X148244463Y-115739494D01*
X148323815Y-115836185D01*
X148420506Y-115915537D01*
X148530820Y-115974502D01*
X148650518Y-116010812D01*
X148775000Y-116023072D01*
X149574250Y-116020000D01*
X149733000Y-115861250D01*
X149733000Y-114427000D01*
X149987000Y-114427000D01*
X149987000Y-115861250D01*
X150145750Y-116020000D01*
X150945000Y-116023072D01*
X151069482Y-116010812D01*
X151189180Y-115974502D01*
X151299494Y-115915537D01*
X151396185Y-115836185D01*
X151475537Y-115739494D01*
X151534502Y-115629180D01*
X151570812Y-115509482D01*
X151583072Y-115385000D01*
X151580000Y-114585750D01*
X151421250Y-114427000D01*
X149987000Y-114427000D01*
X149733000Y-114427000D01*
X148298750Y-114427000D01*
X148140000Y-114585750D01*
X148136928Y-115385000D01*
X132381841Y-115385000D01*
X131701448Y-114704608D01*
X131745000Y-114485656D01*
X131745000Y-114114344D01*
X131672561Y-113750166D01*
X131530466Y-113407118D01*
X131402097Y-113215000D01*
X148136928Y-113215000D01*
X148140000Y-114014250D01*
X148298750Y-114173000D01*
X149733000Y-114173000D01*
X149733000Y-112738750D01*
X149987000Y-112738750D01*
X149987000Y-114173000D01*
X151421250Y-114173000D01*
X151580000Y-114014250D01*
X151583072Y-113215000D01*
X151570812Y-113090518D01*
X151534502Y-112970820D01*
X151475537Y-112860506D01*
X151396185Y-112763815D01*
X151299494Y-112684463D01*
X151189180Y-112625498D01*
X151069482Y-112589188D01*
X150945000Y-112576928D01*
X150145750Y-112580000D01*
X149987000Y-112738750D01*
X149733000Y-112738750D01*
X149574250Y-112580000D01*
X148775000Y-112576928D01*
X148650518Y-112589188D01*
X148530820Y-112625498D01*
X148420506Y-112684463D01*
X148323815Y-112763815D01*
X148244463Y-112860506D01*
X148185498Y-112970820D01*
X148149188Y-113090518D01*
X148136928Y-113215000D01*
X131402097Y-113215000D01*
X131324175Y-113098382D01*
X131061618Y-112835825D01*
X130752882Y-112629534D01*
X130409834Y-112487439D01*
X130045656Y-112415000D01*
X129674344Y-112415000D01*
X129310166Y-112487439D01*
X128967118Y-112629534D01*
X128658382Y-112835825D01*
X128609710Y-112884497D01*
X128609710Y-105237130D01*
X133658175Y-100188665D01*
X145885000Y-100188665D01*
X145885000Y-100471335D01*
X145940147Y-100748574D01*
X146048320Y-101009727D01*
X146205363Y-101244759D01*
X146405241Y-101444637D01*
X146640273Y-101601680D01*
X146901426Y-101709853D01*
X147178665Y-101765000D01*
X147461335Y-101765000D01*
X147738574Y-101709853D01*
X147999727Y-101601680D01*
X148234759Y-101444637D01*
X148434637Y-101244759D01*
X148591680Y-101009727D01*
X148699853Y-100748574D01*
X148755000Y-100471335D01*
X148755000Y-100188665D01*
X148699853Y-99911426D01*
X148591680Y-99650273D01*
X148434637Y-99415241D01*
X148234759Y-99215363D01*
X147999727Y-99058320D01*
X147738574Y-98950147D01*
X147461335Y-98895000D01*
X147178665Y-98895000D01*
X146901426Y-98950147D01*
X146640273Y-99058320D01*
X146405241Y-99215363D01*
X146205363Y-99415241D01*
X146048320Y-99650273D01*
X145940147Y-99911426D01*
X145885000Y-100188665D01*
X133658175Y-100188665D01*
X164898769Y-68948072D01*
X166100000Y-68948072D01*
X166224482Y-68935812D01*
X166344180Y-68899502D01*
X166454494Y-68840537D01*
X166551185Y-68761185D01*
X166630537Y-68664494D01*
X166689502Y-68554180D01*
X166725812Y-68434482D01*
X166738072Y-68310000D01*
X166738072Y-66310000D01*
X166725812Y-66185518D01*
X166689502Y-66065820D01*
X166630537Y-65955506D01*
X166551185Y-65858815D01*
X166454494Y-65779463D01*
X166408370Y-65754809D01*
X166548918Y-65544463D01*
X166672168Y-65246912D01*
X166735000Y-64931033D01*
X166735000Y-64608967D01*
X166672168Y-64293088D01*
X166548918Y-63995537D01*
X166369987Y-63727748D01*
X166142252Y-63500013D01*
X165874463Y-63321082D01*
X165576912Y-63197832D01*
X165261033Y-63135000D01*
X164938967Y-63135000D01*
X164623088Y-63197832D01*
X164325537Y-63321082D01*
X164057748Y-63500013D01*
X163830013Y-63727748D01*
X163651082Y-63995537D01*
X163527832Y-64293088D01*
X163465000Y-64608967D01*
X163465000Y-64931033D01*
X163527832Y-65246912D01*
X163651082Y-65544463D01*
X163791630Y-65754809D01*
X163745506Y-65779463D01*
X163648815Y-65858815D01*
X163569463Y-65955506D01*
X163510498Y-66065820D01*
X163474188Y-66185518D01*
X163463504Y-66294000D01*
X145146496Y-66294000D01*
X145135812Y-66185518D01*
X145099502Y-66065820D01*
X145040537Y-65955506D01*
X144961185Y-65858815D01*
X144864494Y-65779463D01*
X144818370Y-65754809D01*
X144958918Y-65544463D01*
X145082168Y-65246912D01*
X145145000Y-64931033D01*
X145145000Y-64608967D01*
X145082168Y-64293088D01*
X144958918Y-63995537D01*
X144779987Y-63727748D01*
X144552252Y-63500013D01*
X144284463Y-63321082D01*
X143986912Y-63197832D01*
X143671033Y-63135000D01*
X143348967Y-63135000D01*
X143033088Y-63197832D01*
X142735537Y-63321082D01*
X142467748Y-63500013D01*
X142240013Y-63727748D01*
X142061082Y-63995537D01*
X141937832Y-64293088D01*
X141875000Y-64608967D01*
X141875000Y-64931033D01*
X141937832Y-65246912D01*
X142061082Y-65544463D01*
X142201630Y-65754809D01*
X142155506Y-65779463D01*
X142058815Y-65858815D01*
X141979463Y-65955506D01*
X141920498Y-66065820D01*
X141884188Y-66185518D01*
X141871928Y-66310000D01*
X141871928Y-68310000D01*
X141884188Y-68434482D01*
X141920498Y-68554180D01*
X141979463Y-68664494D01*
X142058815Y-68761185D01*
X142155506Y-68840537D01*
X142265820Y-68899502D01*
X142385518Y-68935812D01*
X142510000Y-68948072D01*
X144510000Y-68948072D01*
X144634482Y-68935812D01*
X144754180Y-68899502D01*
X144864494Y-68840537D01*
X144961185Y-68761185D01*
X145040537Y-68664494D01*
X145099502Y-68554180D01*
X145135812Y-68434482D01*
X145146496Y-68326000D01*
X162647159Y-68326000D01*
X127647700Y-103325460D01*
X127647700Y-45963216D01*
X146025386Y-45963216D01*
X146029488Y-46021803D01*
X146032769Y-46080391D01*
X146034214Y-46089308D01*
X146034215Y-46089317D01*
X146034217Y-46089325D01*
X146096803Y-46459141D01*
X146112197Y-46515781D01*
X146126803Y-46572647D01*
X146129954Y-46581114D01*
X146129957Y-46581125D01*
X146129962Y-46581135D01*
X146263183Y-46931745D01*
X146289296Y-46984338D01*
X146314661Y-47037266D01*
X146319400Y-47044968D01*
X146518193Y-47363036D01*
X146554027Y-47409559D01*
X146589184Y-47456545D01*
X146595329Y-47463180D01*
X146852114Y-47736578D01*
X146896281Y-47775236D01*
X146939919Y-47814521D01*
X146947231Y-47819831D01*
X146947234Y-47819834D01*
X146947236Y-47819835D01*
X147252235Y-48038149D01*
X147303122Y-48067522D01*
X147353504Y-48097550D01*
X147361713Y-48101343D01*
X147703308Y-48256259D01*
X147758918Y-48275184D01*
X147814187Y-48294859D01*
X147822977Y-48296985D01*
X148167918Y-48377856D01*
X148209029Y-48390327D01*
X148304191Y-48399700D01*
X158882514Y-48399700D01*
X158964365Y-48408302D01*
X158966193Y-48408664D01*
X158967809Y-48408664D01*
X158999400Y-48411984D01*
X159008615Y-48411984D01*
X159035214Y-48411798D01*
X159065028Y-48408664D01*
X159095003Y-48408664D01*
X159104167Y-48407701D01*
X159473641Y-48366258D01*
X159532130Y-48353825D01*
X159590833Y-48342202D01*
X159599636Y-48339477D01*
X159954023Y-48227059D01*
X160008991Y-48203499D01*
X160064311Y-48180698D01*
X160072417Y-48176315D01*
X160398220Y-47997203D01*
X160447589Y-47963399D01*
X160497401Y-47930305D01*
X160504502Y-47924431D01*
X160789309Y-47685449D01*
X160831137Y-47642735D01*
X160873609Y-47600559D01*
X160879433Y-47593418D01*
X161112399Y-47303667D01*
X161145159Y-47253604D01*
X161178604Y-47204020D01*
X161182930Y-47195883D01*
X161355179Y-46866402D01*
X161377581Y-46810956D01*
X161400769Y-46755793D01*
X161403432Y-46746971D01*
X161508404Y-46390306D01*
X161519608Y-46331575D01*
X161531642Y-46272951D01*
X161532541Y-46263780D01*
X161566238Y-45893520D01*
X161565820Y-45833702D01*
X161566238Y-45773883D01*
X161565338Y-45764712D01*
X161526475Y-45394958D01*
X161514449Y-45336371D01*
X161503238Y-45277601D01*
X161500574Y-45268779D01*
X161390633Y-44913615D01*
X161367449Y-44858464D01*
X161345044Y-44803008D01*
X161340717Y-44794872D01*
X161163885Y-44467827D01*
X161130469Y-44418285D01*
X161097680Y-44368178D01*
X161091855Y-44361037D01*
X160854866Y-44074568D01*
X160812451Y-44032448D01*
X160770569Y-43989679D01*
X160763468Y-43983805D01*
X160475351Y-43748822D01*
X160425540Y-43715728D01*
X160376168Y-43681922D01*
X160368062Y-43677539D01*
X160039790Y-43502994D01*
X159984489Y-43480201D01*
X159929504Y-43456634D01*
X159920700Y-43453909D01*
X159564778Y-43346449D01*
X159506078Y-43334826D01*
X159447584Y-43322393D01*
X159438422Y-43321430D01*
X159438420Y-43321430D01*
X159068404Y-43285150D01*
X158939594Y-43285150D01*
X158893385Y-43294300D01*
X148862188Y-43294300D01*
X148839921Y-43291331D01*
X148830881Y-43291080D01*
X148455882Y-43283260D01*
X148397309Y-43287772D01*
X148338762Y-43291461D01*
X148329857Y-43292968D01*
X148329846Y-43292969D01*
X148329836Y-43292972D01*
X148322307Y-43294300D01*
X148304191Y-43294300D01*
X148209029Y-43303673D01*
X148125418Y-43329036D01*
X147960469Y-43358137D01*
X147903945Y-43373924D01*
X147847174Y-43388929D01*
X147838727Y-43392140D01*
X147838719Y-43392142D01*
X147838712Y-43392145D01*
X147489036Y-43527813D01*
X147436617Y-43554298D01*
X147383880Y-43580025D01*
X147376215Y-43584815D01*
X147376210Y-43584818D01*
X147376206Y-43584821D01*
X147059538Y-43785826D01*
X147013242Y-43822003D01*
X146966525Y-43857470D01*
X146959939Y-43863655D01*
X146959933Y-43863660D01*
X146959928Y-43863666D01*
X146688334Y-44122350D01*
X146649989Y-44166782D01*
X146611008Y-44210695D01*
X146605745Y-44218049D01*
X146389565Y-44524565D01*
X146360557Y-44575639D01*
X146330872Y-44626247D01*
X146327139Y-44634478D01*
X146327136Y-44634483D01*
X146327134Y-44634488D01*
X146174610Y-44977150D01*
X146156073Y-45032892D01*
X146136785Y-45088295D01*
X146134722Y-45097096D01*
X146134720Y-45097101D01*
X146134719Y-45097106D01*
X146051656Y-45462866D01*
X146044302Y-45521114D01*
X146036138Y-45579243D01*
X146035824Y-45588269D01*
X146035823Y-45588280D01*
X146035824Y-45588291D01*
X146025386Y-45963216D01*
X127647700Y-45963216D01*
X127647700Y-42303700D01*
X180200300Y-42303700D01*
X180200301Y-115948684D01*
G36*
X174913748Y-115555858D02*
G01*
X174899605Y-115570000D01*
X174913748Y-115584143D01*
X174734143Y-115763748D01*
X174720000Y-115749605D01*
X174705858Y-115763748D01*
X174526253Y-115584143D01*
X174540395Y-115570000D01*
X174526253Y-115555858D01*
X174705858Y-115376253D01*
X174720000Y-115390395D01*
X174734143Y-115376253D01*
X174913748Y-115555858D01*
G37*
X174913748Y-115555858D02*
X174899605Y-115570000D01*
X174913748Y-115584143D01*
X174734143Y-115763748D01*
X174720000Y-115749605D01*
X174705858Y-115763748D01*
X174526253Y-115584143D01*
X174540395Y-115570000D01*
X174526253Y-115555858D01*
X174705858Y-115376253D01*
X174720000Y-115390395D01*
X174734143Y-115376253D01*
X174913748Y-115555858D01*
G36*
X166205000Y-103998665D02*
G01*
X166205000Y-104281335D01*
X166260147Y-104558574D01*
X166368320Y-104819727D01*
X166525363Y-105054759D01*
X166725241Y-105254637D01*
X166960273Y-105411680D01*
X167221426Y-105519853D01*
X167498665Y-105575000D01*
X167781335Y-105575000D01*
X168058574Y-105519853D01*
X168319727Y-105411680D01*
X168554759Y-105254637D01*
X168754637Y-105054759D01*
X168911680Y-104819727D01*
X169019853Y-104558574D01*
X169075000Y-104281335D01*
X169075000Y-103998665D01*
X169030509Y-103774999D01*
X170059491Y-103774999D01*
X170015000Y-103998665D01*
X170015000Y-104281335D01*
X170070147Y-104558574D01*
X170178320Y-104819727D01*
X170335363Y-105054759D01*
X170535241Y-105254637D01*
X170770273Y-105411680D01*
X171031426Y-105519853D01*
X171308665Y-105575000D01*
X171448160Y-105575000D01*
X172212000Y-106338841D01*
X172212001Y-110593152D01*
X172191514Y-110523329D01*
X171936004Y-110402429D01*
X171661816Y-110333700D01*
X171379488Y-110319783D01*
X171099870Y-110361213D01*
X170833708Y-110456397D01*
X170708486Y-110523329D01*
X170636903Y-110767298D01*
X171450000Y-111580395D01*
X171464143Y-111566253D01*
X171643748Y-111745858D01*
X171629605Y-111760000D01*
X172280614Y-112411009D01*
X172284799Y-112424805D01*
X172379141Y-112601308D01*
X172506105Y-112756014D01*
X172544868Y-112787826D01*
X174051398Y-114294357D01*
X173981691Y-114331616D01*
X173971185Y-114318815D01*
X173874494Y-114239463D01*
X173764180Y-114180498D01*
X173644482Y-114144188D01*
X173520000Y-114131928D01*
X171920000Y-114131928D01*
X171795518Y-114144188D01*
X171675820Y-114180498D01*
X171565506Y-114239463D01*
X171468815Y-114318815D01*
X171389463Y-114415506D01*
X171330498Y-114525820D01*
X171321950Y-114554000D01*
X169826959Y-114554000D01*
X168309058Y-113036099D01*
X168319727Y-113031680D01*
X168554759Y-112874637D01*
X168676694Y-112752702D01*
X170636903Y-112752702D01*
X170708486Y-112996671D01*
X170963996Y-113117571D01*
X171238184Y-113186300D01*
X171520512Y-113200217D01*
X171800130Y-113158787D01*
X172066292Y-113063603D01*
X172191514Y-112996671D01*
X172263097Y-112752702D01*
X171450000Y-111939605D01*
X170636903Y-112752702D01*
X168676694Y-112752702D01*
X168754637Y-112674759D01*
X168911680Y-112439727D01*
X169019853Y-112178574D01*
X169075000Y-111901335D01*
X169075000Y-111830512D01*
X170009783Y-111830512D01*
X170051213Y-112110130D01*
X170146397Y-112376292D01*
X170213329Y-112501514D01*
X170457298Y-112573097D01*
X171270395Y-111760000D01*
X170457298Y-110946903D01*
X170213329Y-111018486D01*
X170092429Y-111273996D01*
X170023700Y-111548184D01*
X170009783Y-111830512D01*
X169075000Y-111830512D01*
X169075000Y-111618665D01*
X169019853Y-111341426D01*
X168911680Y-111080273D01*
X168754637Y-110845241D01*
X168554759Y-110645363D01*
X168319727Y-110488320D01*
X168058574Y-110380147D01*
X167781335Y-110325000D01*
X167498665Y-110325000D01*
X167221426Y-110380147D01*
X166960273Y-110488320D01*
X166725241Y-110645363D01*
X166708722Y-110661882D01*
X165227000Y-109180160D01*
X165227000Y-109082408D01*
X165173314Y-108812510D01*
X165068005Y-108558273D01*
X164915120Y-108329465D01*
X164720535Y-108134880D01*
X164491727Y-107981995D01*
X164414485Y-107950000D01*
X164491727Y-107918005D01*
X164720535Y-107765120D01*
X164915120Y-107570535D01*
X165068005Y-107341727D01*
X165173314Y-107087490D01*
X165227000Y-106817592D01*
X165227000Y-106542408D01*
X165173314Y-106272510D01*
X165068005Y-106018273D01*
X164915120Y-105789465D01*
X164720535Y-105594880D01*
X164491727Y-105441995D01*
X164414485Y-105410000D01*
X164491727Y-105378005D01*
X164720535Y-105225120D01*
X164915120Y-105030535D01*
X165068005Y-104801727D01*
X165173314Y-104547490D01*
X165227000Y-104277592D01*
X165227000Y-104179840D01*
X165631842Y-103774999D01*
X166249491Y-103774999D01*
X166205000Y-103998665D01*
G37*
X166205000Y-103998665D02*
X166205000Y-104281335D01*
X166260147Y-104558574D01*
X166368320Y-104819727D01*
X166525363Y-105054759D01*
X166725241Y-105254637D01*
X166960273Y-105411680D01*
X167221426Y-105519853D01*
X167498665Y-105575000D01*
X167781335Y-105575000D01*
X168058574Y-105519853D01*
X168319727Y-105411680D01*
X168554759Y-105254637D01*
X168754637Y-105054759D01*
X168911680Y-104819727D01*
X169019853Y-104558574D01*
X169075000Y-104281335D01*
X169075000Y-103998665D01*
X169030509Y-103774999D01*
X170059491Y-103774999D01*
X170015000Y-103998665D01*
X170015000Y-104281335D01*
X170070147Y-104558574D01*
X170178320Y-104819727D01*
X170335363Y-105054759D01*
X170535241Y-105254637D01*
X170770273Y-105411680D01*
X171031426Y-105519853D01*
X171308665Y-105575000D01*
X171448160Y-105575000D01*
X172212000Y-106338841D01*
X172212001Y-110593152D01*
X172191514Y-110523329D01*
X171936004Y-110402429D01*
X171661816Y-110333700D01*
X171379488Y-110319783D01*
X171099870Y-110361213D01*
X170833708Y-110456397D01*
X170708486Y-110523329D01*
X170636903Y-110767298D01*
X171450000Y-111580395D01*
X171464143Y-111566253D01*
X171643748Y-111745858D01*
X171629605Y-111760000D01*
X172280614Y-112411009D01*
X172284799Y-112424805D01*
X172379141Y-112601308D01*
X172506105Y-112756014D01*
X172544868Y-112787826D01*
X174051398Y-114294357D01*
X173981691Y-114331616D01*
X173971185Y-114318815D01*
X173874494Y-114239463D01*
X173764180Y-114180498D01*
X173644482Y-114144188D01*
X173520000Y-114131928D01*
X171920000Y-114131928D01*
X171795518Y-114144188D01*
X171675820Y-114180498D01*
X171565506Y-114239463D01*
X171468815Y-114318815D01*
X171389463Y-114415506D01*
X171330498Y-114525820D01*
X171321950Y-114554000D01*
X169826959Y-114554000D01*
X168309058Y-113036099D01*
X168319727Y-113031680D01*
X168554759Y-112874637D01*
X168676694Y-112752702D01*
X170636903Y-112752702D01*
X170708486Y-112996671D01*
X170963996Y-113117571D01*
X171238184Y-113186300D01*
X171520512Y-113200217D01*
X171800130Y-113158787D01*
X172066292Y-113063603D01*
X172191514Y-112996671D01*
X172263097Y-112752702D01*
X171450000Y-111939605D01*
X170636903Y-112752702D01*
X168676694Y-112752702D01*
X168754637Y-112674759D01*
X168911680Y-112439727D01*
X169019853Y-112178574D01*
X169075000Y-111901335D01*
X169075000Y-111830512D01*
X170009783Y-111830512D01*
X170051213Y-112110130D01*
X170146397Y-112376292D01*
X170213329Y-112501514D01*
X170457298Y-112573097D01*
X171270395Y-111760000D01*
X170457298Y-110946903D01*
X170213329Y-111018486D01*
X170092429Y-111273996D01*
X170023700Y-111548184D01*
X170009783Y-111830512D01*
X169075000Y-111830512D01*
X169075000Y-111618665D01*
X169019853Y-111341426D01*
X168911680Y-111080273D01*
X168754637Y-110845241D01*
X168554759Y-110645363D01*
X168319727Y-110488320D01*
X168058574Y-110380147D01*
X167781335Y-110325000D01*
X167498665Y-110325000D01*
X167221426Y-110380147D01*
X166960273Y-110488320D01*
X166725241Y-110645363D01*
X166708722Y-110661882D01*
X165227000Y-109180160D01*
X165227000Y-109082408D01*
X165173314Y-108812510D01*
X165068005Y-108558273D01*
X164915120Y-108329465D01*
X164720535Y-108134880D01*
X164491727Y-107981995D01*
X164414485Y-107950000D01*
X164491727Y-107918005D01*
X164720535Y-107765120D01*
X164915120Y-107570535D01*
X165068005Y-107341727D01*
X165173314Y-107087490D01*
X165227000Y-106817592D01*
X165227000Y-106542408D01*
X165173314Y-106272510D01*
X165068005Y-106018273D01*
X164915120Y-105789465D01*
X164720535Y-105594880D01*
X164491727Y-105441995D01*
X164414485Y-105410000D01*
X164491727Y-105378005D01*
X164720535Y-105225120D01*
X164915120Y-105030535D01*
X165068005Y-104801727D01*
X165173314Y-104547490D01*
X165227000Y-104277592D01*
X165227000Y-104179840D01*
X165631842Y-103774999D01*
X166249491Y-103774999D01*
X166205000Y-103998665D01*
%TD*%
M02*
