%TF.GenerationSoftware,KiCad,Pcbnew,(5.1.6)-1*%
%TF.CreationDate,2020-09-04T19:50:29+05:30*%
%TF.ProjectId,555_badge,3535355f-6261-4646-9765-2e6b69636164,v01*%
%TF.SameCoordinates,Original*%
%TF.FileFunction,Legend,Top*%
%TF.FilePolarity,Positive*%
%FSLAX46Y46*%
G04 Gerber Fmt 4.6, Leading zero omitted, Abs format (unit mm)*
G04 Created by KiCad (PCBNEW (5.1.6)-1) date 2020-09-04 19:50:29*
%MOMM*%
%LPD*%
G01*
G04 APERTURE LIST*
%ADD10C,0.100000*%
%ADD11C,0.120000*%
%ADD12C,0.150000*%
%ADD13C,0.000102*%
%ADD14C,0.000203*%
G04 APERTURE END LIST*
D10*
G36*
X175260000Y-53086000D02*
G01*
X176276000Y-92456000D01*
X133858000Y-92202000D01*
X133350000Y-52832000D01*
X175260000Y-53086000D01*
G37*
X175260000Y-53086000D02*
X176276000Y-92456000D01*
X133858000Y-92202000D01*
X133350000Y-52832000D01*
X175260000Y-53086000D01*
%TO.C,BAT1*%
X129082800Y-110388400D02*
X129082800Y-113233200D01*
X129082800Y-118211600D02*
X129082800Y-115366800D01*
X131826000Y-110388400D02*
X129082800Y-110388400D01*
X131826000Y-118211600D02*
X129082800Y-118211600D01*
X153619200Y-114300000D02*
G75*
G03*
X153619200Y-114300000I-11226800J0D01*
G01*
D11*
%TO.C,C1*%
X176340000Y-115570000D02*
G75*
G03*
X176340000Y-115570000I-2620000J0D01*
G01*
X173720000Y-116610000D02*
X173720000Y-118150000D01*
X173720000Y-112990000D02*
X173720000Y-114530000D01*
X173760000Y-116610000D02*
X173760000Y-118150000D01*
X173760000Y-112990000D02*
X173760000Y-114530000D01*
X173800000Y-112991000D02*
X173800000Y-114530000D01*
X173800000Y-116610000D02*
X173800000Y-118149000D01*
X173840000Y-112992000D02*
X173840000Y-114530000D01*
X173840000Y-116610000D02*
X173840000Y-118148000D01*
X173880000Y-112994000D02*
X173880000Y-114530000D01*
X173880000Y-116610000D02*
X173880000Y-118146000D01*
X173920000Y-112997000D02*
X173920000Y-114530000D01*
X173920000Y-116610000D02*
X173920000Y-118143000D01*
X173960000Y-113001000D02*
X173960000Y-114530000D01*
X173960000Y-116610000D02*
X173960000Y-118139000D01*
X174000000Y-113005000D02*
X174000000Y-114530000D01*
X174000000Y-116610000D02*
X174000000Y-118135000D01*
X174040000Y-113009000D02*
X174040000Y-114530000D01*
X174040000Y-116610000D02*
X174040000Y-118131000D01*
X174080000Y-113014000D02*
X174080000Y-114530000D01*
X174080000Y-116610000D02*
X174080000Y-118126000D01*
X174120000Y-113020000D02*
X174120000Y-114530000D01*
X174120000Y-116610000D02*
X174120000Y-118120000D01*
X174160000Y-113027000D02*
X174160000Y-114530000D01*
X174160000Y-116610000D02*
X174160000Y-118113000D01*
X174200000Y-113034000D02*
X174200000Y-114530000D01*
X174200000Y-116610000D02*
X174200000Y-118106000D01*
X174240000Y-113042000D02*
X174240000Y-114530000D01*
X174240000Y-116610000D02*
X174240000Y-118098000D01*
X174280000Y-113050000D02*
X174280000Y-114530000D01*
X174280000Y-116610000D02*
X174280000Y-118090000D01*
X174320000Y-113059000D02*
X174320000Y-114530000D01*
X174320000Y-116610000D02*
X174320000Y-118081000D01*
X174360000Y-113069000D02*
X174360000Y-114530000D01*
X174360000Y-116610000D02*
X174360000Y-118071000D01*
X174400000Y-113079000D02*
X174400000Y-114530000D01*
X174400000Y-116610000D02*
X174400000Y-118061000D01*
X174441000Y-113090000D02*
X174441000Y-114530000D01*
X174441000Y-116610000D02*
X174441000Y-118050000D01*
X174481000Y-113102000D02*
X174481000Y-114530000D01*
X174481000Y-116610000D02*
X174481000Y-118038000D01*
X174521000Y-113115000D02*
X174521000Y-114530000D01*
X174521000Y-116610000D02*
X174521000Y-118025000D01*
X174561000Y-113128000D02*
X174561000Y-114530000D01*
X174561000Y-116610000D02*
X174561000Y-118012000D01*
X174601000Y-113142000D02*
X174601000Y-114530000D01*
X174601000Y-116610000D02*
X174601000Y-117998000D01*
X174641000Y-113156000D02*
X174641000Y-114530000D01*
X174641000Y-116610000D02*
X174641000Y-117984000D01*
X174681000Y-113172000D02*
X174681000Y-114530000D01*
X174681000Y-116610000D02*
X174681000Y-117968000D01*
X174721000Y-113188000D02*
X174721000Y-114530000D01*
X174721000Y-116610000D02*
X174721000Y-117952000D01*
X174761000Y-113205000D02*
X174761000Y-114530000D01*
X174761000Y-116610000D02*
X174761000Y-117935000D01*
X174801000Y-113222000D02*
X174801000Y-114530000D01*
X174801000Y-116610000D02*
X174801000Y-117918000D01*
X174841000Y-113241000D02*
X174841000Y-114530000D01*
X174841000Y-116610000D02*
X174841000Y-117899000D01*
X174881000Y-113260000D02*
X174881000Y-114530000D01*
X174881000Y-116610000D02*
X174881000Y-117880000D01*
X174921000Y-113280000D02*
X174921000Y-114530000D01*
X174921000Y-116610000D02*
X174921000Y-117860000D01*
X174961000Y-113302000D02*
X174961000Y-114530000D01*
X174961000Y-116610000D02*
X174961000Y-117838000D01*
X175001000Y-113323000D02*
X175001000Y-114530000D01*
X175001000Y-116610000D02*
X175001000Y-117817000D01*
X175041000Y-113346000D02*
X175041000Y-114530000D01*
X175041000Y-116610000D02*
X175041000Y-117794000D01*
X175081000Y-113370000D02*
X175081000Y-114530000D01*
X175081000Y-116610000D02*
X175081000Y-117770000D01*
X175121000Y-113395000D02*
X175121000Y-114530000D01*
X175121000Y-116610000D02*
X175121000Y-117745000D01*
X175161000Y-113421000D02*
X175161000Y-114530000D01*
X175161000Y-116610000D02*
X175161000Y-117719000D01*
X175201000Y-113448000D02*
X175201000Y-114530000D01*
X175201000Y-116610000D02*
X175201000Y-117692000D01*
X175241000Y-113475000D02*
X175241000Y-114530000D01*
X175241000Y-116610000D02*
X175241000Y-117665000D01*
X175281000Y-113505000D02*
X175281000Y-114530000D01*
X175281000Y-116610000D02*
X175281000Y-117635000D01*
X175321000Y-113535000D02*
X175321000Y-114530000D01*
X175321000Y-116610000D02*
X175321000Y-117605000D01*
X175361000Y-113566000D02*
X175361000Y-114530000D01*
X175361000Y-116610000D02*
X175361000Y-117574000D01*
X175401000Y-113599000D02*
X175401000Y-114530000D01*
X175401000Y-116610000D02*
X175401000Y-117541000D01*
X175441000Y-113633000D02*
X175441000Y-114530000D01*
X175441000Y-116610000D02*
X175441000Y-117507000D01*
X175481000Y-113669000D02*
X175481000Y-114530000D01*
X175481000Y-116610000D02*
X175481000Y-117471000D01*
X175521000Y-113706000D02*
X175521000Y-114530000D01*
X175521000Y-116610000D02*
X175521000Y-117434000D01*
X175561000Y-113744000D02*
X175561000Y-114530000D01*
X175561000Y-116610000D02*
X175561000Y-117396000D01*
X175601000Y-113785000D02*
X175601000Y-114530000D01*
X175601000Y-116610000D02*
X175601000Y-117355000D01*
X175641000Y-113827000D02*
X175641000Y-114530000D01*
X175641000Y-116610000D02*
X175641000Y-117313000D01*
X175681000Y-113871000D02*
X175681000Y-114530000D01*
X175681000Y-116610000D02*
X175681000Y-117269000D01*
X175721000Y-113917000D02*
X175721000Y-114530000D01*
X175721000Y-116610000D02*
X175721000Y-117223000D01*
X175761000Y-113965000D02*
X175761000Y-117175000D01*
X175801000Y-114016000D02*
X175801000Y-117124000D01*
X175841000Y-114070000D02*
X175841000Y-117070000D01*
X175881000Y-114127000D02*
X175881000Y-117013000D01*
X175921000Y-114187000D02*
X175921000Y-116953000D01*
X175961000Y-114251000D02*
X175961000Y-116889000D01*
X176001000Y-114319000D02*
X176001000Y-116821000D01*
X176041000Y-114392000D02*
X176041000Y-116748000D01*
X176081000Y-114472000D02*
X176081000Y-116668000D01*
X176121000Y-114559000D02*
X176121000Y-116581000D01*
X176161000Y-114655000D02*
X176161000Y-116485000D01*
X176201000Y-114765000D02*
X176201000Y-116375000D01*
X176241000Y-114893000D02*
X176241000Y-116247000D01*
X176281000Y-115052000D02*
X176281000Y-116088000D01*
X176321000Y-115286000D02*
X176321000Y-115854000D01*
X170915225Y-114095000D02*
X171415225Y-114095000D01*
X171165225Y-113845000D02*
X171165225Y-114345000D01*
%TO.C,C2*%
X165830000Y-116860000D02*
G75*
G03*
X165830000Y-116860000I-3270000J0D01*
G01*
X159330000Y-116860000D02*
X165790000Y-116860000D01*
X159330000Y-116820000D02*
X165790000Y-116820000D01*
X159330000Y-116780000D02*
X165790000Y-116780000D01*
X159332000Y-116740000D02*
X165788000Y-116740000D01*
X159333000Y-116700000D02*
X165787000Y-116700000D01*
X159336000Y-116660000D02*
X165784000Y-116660000D01*
X159338000Y-116620000D02*
X161520000Y-116620000D01*
X163600000Y-116620000D02*
X165782000Y-116620000D01*
X159342000Y-116580000D02*
X161520000Y-116580000D01*
X163600000Y-116580000D02*
X165778000Y-116580000D01*
X159345000Y-116540000D02*
X161520000Y-116540000D01*
X163600000Y-116540000D02*
X165775000Y-116540000D01*
X159349000Y-116500000D02*
X161520000Y-116500000D01*
X163600000Y-116500000D02*
X165771000Y-116500000D01*
X159354000Y-116460000D02*
X161520000Y-116460000D01*
X163600000Y-116460000D02*
X165766000Y-116460000D01*
X159359000Y-116420000D02*
X161520000Y-116420000D01*
X163600000Y-116420000D02*
X165761000Y-116420000D01*
X159365000Y-116380000D02*
X161520000Y-116380000D01*
X163600000Y-116380000D02*
X165755000Y-116380000D01*
X159371000Y-116340000D02*
X161520000Y-116340000D01*
X163600000Y-116340000D02*
X165749000Y-116340000D01*
X159378000Y-116300000D02*
X161520000Y-116300000D01*
X163600000Y-116300000D02*
X165742000Y-116300000D01*
X159385000Y-116260000D02*
X161520000Y-116260000D01*
X163600000Y-116260000D02*
X165735000Y-116260000D01*
X159393000Y-116220000D02*
X161520000Y-116220000D01*
X163600000Y-116220000D02*
X165727000Y-116220000D01*
X159401000Y-116180000D02*
X161520000Y-116180000D01*
X163600000Y-116180000D02*
X165719000Y-116180000D01*
X159410000Y-116139000D02*
X161520000Y-116139000D01*
X163600000Y-116139000D02*
X165710000Y-116139000D01*
X159419000Y-116099000D02*
X161520000Y-116099000D01*
X163600000Y-116099000D02*
X165701000Y-116099000D01*
X159429000Y-116059000D02*
X161520000Y-116059000D01*
X163600000Y-116059000D02*
X165691000Y-116059000D01*
X159439000Y-116019000D02*
X161520000Y-116019000D01*
X163600000Y-116019000D02*
X165681000Y-116019000D01*
X159450000Y-115979000D02*
X161520000Y-115979000D01*
X163600000Y-115979000D02*
X165670000Y-115979000D01*
X159462000Y-115939000D02*
X161520000Y-115939000D01*
X163600000Y-115939000D02*
X165658000Y-115939000D01*
X159474000Y-115899000D02*
X161520000Y-115899000D01*
X163600000Y-115899000D02*
X165646000Y-115899000D01*
X159486000Y-115859000D02*
X161520000Y-115859000D01*
X163600000Y-115859000D02*
X165634000Y-115859000D01*
X159499000Y-115819000D02*
X161520000Y-115819000D01*
X163600000Y-115819000D02*
X165621000Y-115819000D01*
X159513000Y-115779000D02*
X161520000Y-115779000D01*
X163600000Y-115779000D02*
X165607000Y-115779000D01*
X159527000Y-115739000D02*
X161520000Y-115739000D01*
X163600000Y-115739000D02*
X165593000Y-115739000D01*
X159542000Y-115699000D02*
X161520000Y-115699000D01*
X163600000Y-115699000D02*
X165578000Y-115699000D01*
X159558000Y-115659000D02*
X161520000Y-115659000D01*
X163600000Y-115659000D02*
X165562000Y-115659000D01*
X159574000Y-115619000D02*
X161520000Y-115619000D01*
X163600000Y-115619000D02*
X165546000Y-115619000D01*
X159590000Y-115579000D02*
X161520000Y-115579000D01*
X163600000Y-115579000D02*
X165530000Y-115579000D01*
X159608000Y-115539000D02*
X161520000Y-115539000D01*
X163600000Y-115539000D02*
X165512000Y-115539000D01*
X159626000Y-115499000D02*
X161520000Y-115499000D01*
X163600000Y-115499000D02*
X165494000Y-115499000D01*
X159644000Y-115459000D02*
X161520000Y-115459000D01*
X163600000Y-115459000D02*
X165476000Y-115459000D01*
X159664000Y-115419000D02*
X161520000Y-115419000D01*
X163600000Y-115419000D02*
X165456000Y-115419000D01*
X159684000Y-115379000D02*
X161520000Y-115379000D01*
X163600000Y-115379000D02*
X165436000Y-115379000D01*
X159704000Y-115339000D02*
X161520000Y-115339000D01*
X163600000Y-115339000D02*
X165416000Y-115339000D01*
X159726000Y-115299000D02*
X161520000Y-115299000D01*
X163600000Y-115299000D02*
X165394000Y-115299000D01*
X159748000Y-115259000D02*
X161520000Y-115259000D01*
X163600000Y-115259000D02*
X165372000Y-115259000D01*
X159770000Y-115219000D02*
X161520000Y-115219000D01*
X163600000Y-115219000D02*
X165350000Y-115219000D01*
X159794000Y-115179000D02*
X161520000Y-115179000D01*
X163600000Y-115179000D02*
X165326000Y-115179000D01*
X159818000Y-115139000D02*
X161520000Y-115139000D01*
X163600000Y-115139000D02*
X165302000Y-115139000D01*
X159844000Y-115099000D02*
X161520000Y-115099000D01*
X163600000Y-115099000D02*
X165276000Y-115099000D01*
X159870000Y-115059000D02*
X161520000Y-115059000D01*
X163600000Y-115059000D02*
X165250000Y-115059000D01*
X159896000Y-115019000D02*
X161520000Y-115019000D01*
X163600000Y-115019000D02*
X165224000Y-115019000D01*
X159924000Y-114979000D02*
X161520000Y-114979000D01*
X163600000Y-114979000D02*
X165196000Y-114979000D01*
X159953000Y-114939000D02*
X161520000Y-114939000D01*
X163600000Y-114939000D02*
X165167000Y-114939000D01*
X159982000Y-114899000D02*
X161520000Y-114899000D01*
X163600000Y-114899000D02*
X165138000Y-114899000D01*
X160012000Y-114859000D02*
X161520000Y-114859000D01*
X163600000Y-114859000D02*
X165108000Y-114859000D01*
X160044000Y-114819000D02*
X161520000Y-114819000D01*
X163600000Y-114819000D02*
X165076000Y-114819000D01*
X160076000Y-114779000D02*
X161520000Y-114779000D01*
X163600000Y-114779000D02*
X165044000Y-114779000D01*
X160110000Y-114739000D02*
X161520000Y-114739000D01*
X163600000Y-114739000D02*
X165010000Y-114739000D01*
X160144000Y-114699000D02*
X161520000Y-114699000D01*
X163600000Y-114699000D02*
X164976000Y-114699000D01*
X160180000Y-114659000D02*
X161520000Y-114659000D01*
X163600000Y-114659000D02*
X164940000Y-114659000D01*
X160217000Y-114619000D02*
X161520000Y-114619000D01*
X163600000Y-114619000D02*
X164903000Y-114619000D01*
X160255000Y-114579000D02*
X161520000Y-114579000D01*
X163600000Y-114579000D02*
X164865000Y-114579000D01*
X160295000Y-114539000D02*
X164825000Y-114539000D01*
X160336000Y-114499000D02*
X164784000Y-114499000D01*
X160378000Y-114459000D02*
X164742000Y-114459000D01*
X160423000Y-114419000D02*
X164697000Y-114419000D01*
X160468000Y-114379000D02*
X164652000Y-114379000D01*
X160516000Y-114339000D02*
X164604000Y-114339000D01*
X160565000Y-114299000D02*
X164555000Y-114299000D01*
X160616000Y-114259000D02*
X164504000Y-114259000D01*
X160670000Y-114219000D02*
X164450000Y-114219000D01*
X160726000Y-114179000D02*
X164394000Y-114179000D01*
X160784000Y-114139000D02*
X164336000Y-114139000D01*
X160846000Y-114099000D02*
X164274000Y-114099000D01*
X160910000Y-114059000D02*
X164210000Y-114059000D01*
X160979000Y-114019000D02*
X164141000Y-114019000D01*
X161051000Y-113979000D02*
X164069000Y-113979000D01*
X161128000Y-113939000D02*
X163992000Y-113939000D01*
X161210000Y-113899000D02*
X163910000Y-113899000D01*
X161298000Y-113859000D02*
X163822000Y-113859000D01*
X161395000Y-113819000D02*
X163725000Y-113819000D01*
X161501000Y-113779000D02*
X163619000Y-113779000D01*
X161620000Y-113739000D02*
X163500000Y-113739000D01*
X161758000Y-113699000D02*
X163362000Y-113699000D01*
X161927000Y-113659000D02*
X163193000Y-113659000D01*
X162158000Y-113619000D02*
X162962000Y-113619000D01*
X160721000Y-120360241D02*
X160721000Y-119730241D01*
X160406000Y-120045241D02*
X161036000Y-120045241D01*
D10*
%TO.C,D1*%
X142160000Y-64440000D02*
X142410000Y-64440000D01*
X144860000Y-64440000D02*
X144610000Y-64440000D01*
X145360000Y-67040000D02*
G75*
G02*
X144510000Y-67890000I-1850000J1000000D01*
G01*
X142510000Y-67890000D02*
G75*
G02*
X141660000Y-67040000I1000000J1850000D01*
G01*
X144866147Y-64432715D02*
G75*
G02*
X145360000Y-65040000I-1356147J-1607285D01*
G01*
X141668385Y-65044533D02*
G75*
G02*
X142160000Y-64440000I1841615J-995467D01*
G01*
%TO.C,D2*%
X166450000Y-64440000D02*
X166200000Y-64440000D01*
X163750000Y-64440000D02*
X164000000Y-64440000D01*
X163258385Y-65044533D02*
G75*
G02*
X163750000Y-64440000I1841615J-995467D01*
G01*
X166456147Y-64432715D02*
G75*
G02*
X166950000Y-65040000I-1356147J-1607285D01*
G01*
X164100000Y-67890000D02*
G75*
G02*
X163250000Y-67040000I1000000J1850000D01*
G01*
X166950000Y-67040000D02*
G75*
G02*
X166100000Y-67890000I-1850000J1000000D01*
G01*
%TO.C,Q1*%
X172530000Y-124790000D02*
X172680000Y-124490000D01*
X172530000Y-124790000D02*
X172230000Y-124790000D01*
X168130000Y-124790000D02*
X167830000Y-124790000D01*
X167830000Y-124790000D02*
X167680000Y-124490000D01*
D12*
X172130000Y-121640000D02*
G75*
G03*
X168280000Y-121590000I-1950000J-1900000D01*
G01*
D11*
%TO.C,R1*%
X177260000Y-101370000D02*
X177260000Y-101700000D01*
X177260000Y-101700000D02*
X170720000Y-101700000D01*
X170720000Y-101700000D02*
X170720000Y-101370000D01*
X177260000Y-99290000D02*
X177260000Y-98960000D01*
X177260000Y-98960000D02*
X170720000Y-98960000D01*
X170720000Y-98960000D02*
X170720000Y-99290000D01*
%TO.C,R2*%
X159290000Y-98960000D02*
X159290000Y-99290000D01*
X165830000Y-98960000D02*
X159290000Y-98960000D01*
X165830000Y-99290000D02*
X165830000Y-98960000D01*
X159290000Y-101700000D02*
X159290000Y-101370000D01*
X165830000Y-101700000D02*
X159290000Y-101700000D01*
X165830000Y-101370000D02*
X165830000Y-101700000D01*
%TO.C,R3*%
X166270000Y-111220000D02*
X166600000Y-111220000D01*
X166270000Y-104680000D02*
X166270000Y-111220000D01*
X166600000Y-104680000D02*
X166270000Y-104680000D01*
X169010000Y-111220000D02*
X168680000Y-111220000D01*
X169010000Y-104680000D02*
X169010000Y-111220000D01*
X168680000Y-104680000D02*
X169010000Y-104680000D01*
%TO.C,R4*%
X170410000Y-111220000D02*
X170080000Y-111220000D01*
X170080000Y-111220000D02*
X170080000Y-104680000D01*
X170080000Y-104680000D02*
X170410000Y-104680000D01*
X172490000Y-111220000D02*
X172820000Y-111220000D01*
X172820000Y-111220000D02*
X172820000Y-104680000D01*
X172820000Y-104680000D02*
X172490000Y-104680000D01*
%TO.C,R5*%
X180110000Y-117380000D02*
X180440000Y-117380000D01*
X180440000Y-117380000D02*
X180440000Y-123920000D01*
X180440000Y-123920000D02*
X180110000Y-123920000D01*
X178030000Y-117380000D02*
X177700000Y-117380000D01*
X177700000Y-117380000D02*
X177700000Y-123920000D01*
X177700000Y-123920000D02*
X178030000Y-123920000D01*
%TO.C,R6*%
X154400000Y-101700000D02*
X154400000Y-101370000D01*
X147860000Y-101700000D02*
X154400000Y-101700000D01*
X147860000Y-101370000D02*
X147860000Y-101700000D01*
X154400000Y-98960000D02*
X154400000Y-99290000D01*
X147860000Y-98960000D02*
X154400000Y-98960000D01*
X147860000Y-99290000D02*
X147860000Y-98960000D01*
%TO.C,R7*%
X175490000Y-111220000D02*
X175160000Y-111220000D01*
X175160000Y-111220000D02*
X175160000Y-104680000D01*
X175160000Y-104680000D02*
X175490000Y-104680000D01*
X177570000Y-111220000D02*
X177900000Y-111220000D01*
X177900000Y-111220000D02*
X177900000Y-104680000D01*
X177900000Y-104680000D02*
X177570000Y-104680000D01*
D10*
%TO.C,S1*%
X154260000Y-121090000D02*
X154760000Y-121090000D01*
X154260000Y-121090000D02*
X154260000Y-121590000D01*
X166160000Y-121090000D02*
X165660000Y-121090000D01*
X166160000Y-121090000D02*
X166160000Y-121590000D01*
X166160000Y-125290000D02*
X165660000Y-125290000D01*
X166160000Y-125290000D02*
X166160000Y-124790000D01*
X154260000Y-125290000D02*
X154260000Y-124790000D01*
X154260000Y-125290000D02*
X154760000Y-125290000D01*
D13*
%TO.C,U1*%
X163576000Y-113030000D02*
X156464000Y-113030000D01*
D14*
X163576000Y-113030000D02*
X156464000Y-113030000D01*
X156464000Y-102870000D02*
X163576000Y-102870000D01*
X163576000Y-102870000D02*
X163576000Y-113030000D01*
X156464000Y-113030000D02*
X156464000Y-102870000D01*
D11*
X164338000Y-113030000D02*
G75*
G03*
X164338000Y-113030000I-254000J0D01*
G01*
%TO.C,BAT1*%
D12*
X141117154Y-126534871D02*
X141260011Y-126582490D01*
X141307630Y-126630109D01*
X141355249Y-126725347D01*
X141355249Y-126868204D01*
X141307630Y-126963442D01*
X141260011Y-127011061D01*
X141164773Y-127058680D01*
X140783820Y-127058680D01*
X140783820Y-126058680D01*
X141117154Y-126058680D01*
X141212392Y-126106300D01*
X141260011Y-126153919D01*
X141307630Y-126249157D01*
X141307630Y-126344395D01*
X141260011Y-126439633D01*
X141212392Y-126487252D01*
X141117154Y-126534871D01*
X140783820Y-126534871D01*
X141736201Y-126772966D02*
X142212392Y-126772966D01*
X141640963Y-127058680D02*
X141974297Y-126058680D01*
X142307630Y-127058680D01*
X142498106Y-126058680D02*
X143069535Y-126058680D01*
X142783820Y-127058680D02*
X142783820Y-126058680D01*
X143926678Y-127058680D02*
X143355249Y-127058680D01*
X143640963Y-127058680D02*
X143640963Y-126058680D01*
X143545725Y-126201538D01*
X143450487Y-126296776D01*
X143355249Y-126344395D01*
%TO.C,C1*%
X173553333Y-112177142D02*
X173505714Y-112224761D01*
X173362857Y-112272380D01*
X173267619Y-112272380D01*
X173124761Y-112224761D01*
X173029523Y-112129523D01*
X172981904Y-112034285D01*
X172934285Y-111843809D01*
X172934285Y-111700952D01*
X172981904Y-111510476D01*
X173029523Y-111415238D01*
X173124761Y-111320000D01*
X173267619Y-111272380D01*
X173362857Y-111272380D01*
X173505714Y-111320000D01*
X173553333Y-111367619D01*
X174505714Y-112272380D02*
X173934285Y-112272380D01*
X174220000Y-112272380D02*
X174220000Y-111272380D01*
X174124761Y-111415238D01*
X174029523Y-111510476D01*
X173934285Y-111558095D01*
%TO.C,C2*%
X158517142Y-117026666D02*
X158564761Y-117074285D01*
X158612380Y-117217142D01*
X158612380Y-117312380D01*
X158564761Y-117455238D01*
X158469523Y-117550476D01*
X158374285Y-117598095D01*
X158183809Y-117645714D01*
X158040952Y-117645714D01*
X157850476Y-117598095D01*
X157755238Y-117550476D01*
X157660000Y-117455238D01*
X157612380Y-117312380D01*
X157612380Y-117217142D01*
X157660000Y-117074285D01*
X157707619Y-117026666D01*
X157707619Y-116645714D02*
X157660000Y-116598095D01*
X157612380Y-116502857D01*
X157612380Y-116264761D01*
X157660000Y-116169523D01*
X157707619Y-116121904D01*
X157802857Y-116074285D01*
X157898095Y-116074285D01*
X158040952Y-116121904D01*
X158612380Y-116693333D01*
X158612380Y-116074285D01*
%TO.C,D1*%
X138882380Y-65508095D02*
X137882380Y-65508095D01*
X137882380Y-65270000D01*
X137930000Y-65127142D01*
X138025238Y-65031904D01*
X138120476Y-64984285D01*
X138310952Y-64936666D01*
X138453809Y-64936666D01*
X138644285Y-64984285D01*
X138739523Y-65031904D01*
X138834761Y-65127142D01*
X138882380Y-65270000D01*
X138882380Y-65508095D01*
X138882380Y-63984285D02*
X138882380Y-64555714D01*
X138882380Y-64270000D02*
X137882380Y-64270000D01*
X138025238Y-64365238D01*
X138120476Y-64460476D01*
X138168095Y-64555714D01*
%TO.C,D2*%
X160472380Y-65508095D02*
X159472380Y-65508095D01*
X159472380Y-65270000D01*
X159520000Y-65127142D01*
X159615238Y-65031904D01*
X159710476Y-64984285D01*
X159900952Y-64936666D01*
X160043809Y-64936666D01*
X160234285Y-64984285D01*
X160329523Y-65031904D01*
X160424761Y-65127142D01*
X160472380Y-65270000D01*
X160472380Y-65508095D01*
X159567619Y-64555714D02*
X159520000Y-64508095D01*
X159472380Y-64412857D01*
X159472380Y-64174761D01*
X159520000Y-64079523D01*
X159567619Y-64031904D01*
X159662857Y-63984285D01*
X159758095Y-63984285D01*
X159900952Y-64031904D01*
X160472380Y-64603333D01*
X160472380Y-63984285D01*
%TO.C,Q1*%
X170084761Y-120387619D02*
X169989523Y-120340000D01*
X169894285Y-120244761D01*
X169751428Y-120101904D01*
X169656190Y-120054285D01*
X169560952Y-120054285D01*
X169608571Y-120292380D02*
X169513333Y-120244761D01*
X169418095Y-120149523D01*
X169370476Y-119959047D01*
X169370476Y-119625714D01*
X169418095Y-119435238D01*
X169513333Y-119340000D01*
X169608571Y-119292380D01*
X169799047Y-119292380D01*
X169894285Y-119340000D01*
X169989523Y-119435238D01*
X170037142Y-119625714D01*
X170037142Y-119959047D01*
X169989523Y-120149523D01*
X169894285Y-120244761D01*
X169799047Y-120292380D01*
X169608571Y-120292380D01*
X170989523Y-120292380D02*
X170418095Y-120292380D01*
X170703809Y-120292380D02*
X170703809Y-119292380D01*
X170608571Y-119435238D01*
X170513333Y-119530476D01*
X170418095Y-119578095D01*
%TO.C,R1*%
X173823333Y-103152380D02*
X173490000Y-102676190D01*
X173251904Y-103152380D02*
X173251904Y-102152380D01*
X173632857Y-102152380D01*
X173728095Y-102200000D01*
X173775714Y-102247619D01*
X173823333Y-102342857D01*
X173823333Y-102485714D01*
X173775714Y-102580952D01*
X173728095Y-102628571D01*
X173632857Y-102676190D01*
X173251904Y-102676190D01*
X174775714Y-103152380D02*
X174204285Y-103152380D01*
X174490000Y-103152380D02*
X174490000Y-102152380D01*
X174394761Y-102295238D01*
X174299523Y-102390476D01*
X174204285Y-102438095D01*
%TO.C,R2*%
X162393333Y-103152380D02*
X162060000Y-102676190D01*
X161821904Y-103152380D02*
X161821904Y-102152380D01*
X162202857Y-102152380D01*
X162298095Y-102200000D01*
X162345714Y-102247619D01*
X162393333Y-102342857D01*
X162393333Y-102485714D01*
X162345714Y-102580952D01*
X162298095Y-102628571D01*
X162202857Y-102676190D01*
X161821904Y-102676190D01*
X162774285Y-102247619D02*
X162821904Y-102200000D01*
X162917142Y-102152380D01*
X163155238Y-102152380D01*
X163250476Y-102200000D01*
X163298095Y-102247619D01*
X163345714Y-102342857D01*
X163345714Y-102438095D01*
X163298095Y-102580952D01*
X162726666Y-103152380D01*
X163345714Y-103152380D01*
%TO.C,R3*%
X170462380Y-108116666D02*
X169986190Y-108450000D01*
X170462380Y-108688095D02*
X169462380Y-108688095D01*
X169462380Y-108307142D01*
X169510000Y-108211904D01*
X169557619Y-108164285D01*
X169652857Y-108116666D01*
X169795714Y-108116666D01*
X169890952Y-108164285D01*
X169938571Y-108211904D01*
X169986190Y-108307142D01*
X169986190Y-108688095D01*
X169462380Y-107783333D02*
X169462380Y-107164285D01*
X169843333Y-107497619D01*
X169843333Y-107354761D01*
X169890952Y-107259523D01*
X169938571Y-107211904D01*
X170033809Y-107164285D01*
X170271904Y-107164285D01*
X170367142Y-107211904D01*
X170414761Y-107259523D01*
X170462380Y-107354761D01*
X170462380Y-107640476D01*
X170414761Y-107735714D01*
X170367142Y-107783333D01*
%TO.C,R4*%
X169532380Y-108116666D02*
X169056190Y-108450000D01*
X169532380Y-108688095D02*
X168532380Y-108688095D01*
X168532380Y-108307142D01*
X168580000Y-108211904D01*
X168627619Y-108164285D01*
X168722857Y-108116666D01*
X168865714Y-108116666D01*
X168960952Y-108164285D01*
X169008571Y-108211904D01*
X169056190Y-108307142D01*
X169056190Y-108688095D01*
X168865714Y-107259523D02*
X169532380Y-107259523D01*
X168484761Y-107497619D02*
X169199047Y-107735714D01*
X169199047Y-107116666D01*
%TO.C,R5*%
X181892380Y-120816666D02*
X181416190Y-121150000D01*
X181892380Y-121388095D02*
X180892380Y-121388095D01*
X180892380Y-121007142D01*
X180940000Y-120911904D01*
X180987619Y-120864285D01*
X181082857Y-120816666D01*
X181225714Y-120816666D01*
X181320952Y-120864285D01*
X181368571Y-120911904D01*
X181416190Y-121007142D01*
X181416190Y-121388095D01*
X180892380Y-119911904D02*
X180892380Y-120388095D01*
X181368571Y-120435714D01*
X181320952Y-120388095D01*
X181273333Y-120292857D01*
X181273333Y-120054761D01*
X181320952Y-119959523D01*
X181368571Y-119911904D01*
X181463809Y-119864285D01*
X181701904Y-119864285D01*
X181797142Y-119911904D01*
X181844761Y-119959523D01*
X181892380Y-120054761D01*
X181892380Y-120292857D01*
X181844761Y-120388095D01*
X181797142Y-120435714D01*
%TO.C,R6*%
X150963333Y-98412380D02*
X150630000Y-97936190D01*
X150391904Y-98412380D02*
X150391904Y-97412380D01*
X150772857Y-97412380D01*
X150868095Y-97460000D01*
X150915714Y-97507619D01*
X150963333Y-97602857D01*
X150963333Y-97745714D01*
X150915714Y-97840952D01*
X150868095Y-97888571D01*
X150772857Y-97936190D01*
X150391904Y-97936190D01*
X151820476Y-97412380D02*
X151630000Y-97412380D01*
X151534761Y-97460000D01*
X151487142Y-97507619D01*
X151391904Y-97650476D01*
X151344285Y-97840952D01*
X151344285Y-98221904D01*
X151391904Y-98317142D01*
X151439523Y-98364761D01*
X151534761Y-98412380D01*
X151725238Y-98412380D01*
X151820476Y-98364761D01*
X151868095Y-98317142D01*
X151915714Y-98221904D01*
X151915714Y-97983809D01*
X151868095Y-97888571D01*
X151820476Y-97840952D01*
X151725238Y-97793333D01*
X151534761Y-97793333D01*
X151439523Y-97840952D01*
X151391904Y-97888571D01*
X151344285Y-97983809D01*
%TO.C,R7*%
X174612380Y-108116666D02*
X174136190Y-108450000D01*
X174612380Y-108688095D02*
X173612380Y-108688095D01*
X173612380Y-108307142D01*
X173660000Y-108211904D01*
X173707619Y-108164285D01*
X173802857Y-108116666D01*
X173945714Y-108116666D01*
X174040952Y-108164285D01*
X174088571Y-108211904D01*
X174136190Y-108307142D01*
X174136190Y-108688095D01*
X173612380Y-107783333D02*
X173612380Y-107116666D01*
X174612380Y-107545238D01*
%TO.C,S1*%
X159308095Y-126614761D02*
X159450952Y-126662380D01*
X159689047Y-126662380D01*
X159784285Y-126614761D01*
X159831904Y-126567142D01*
X159879523Y-126471904D01*
X159879523Y-126376666D01*
X159831904Y-126281428D01*
X159784285Y-126233809D01*
X159689047Y-126186190D01*
X159498571Y-126138571D01*
X159403333Y-126090952D01*
X159355714Y-126043333D01*
X159308095Y-125948095D01*
X159308095Y-125852857D01*
X159355714Y-125757619D01*
X159403333Y-125710000D01*
X159498571Y-125662380D01*
X159736666Y-125662380D01*
X159879523Y-125710000D01*
X160831904Y-126662380D02*
X160260476Y-126662380D01*
X160546190Y-126662380D02*
X160546190Y-125662380D01*
X160450952Y-125805238D01*
X160355714Y-125900476D01*
X160260476Y-125948095D01*
%TO.C,U1*%
X154138380Y-108457904D02*
X154947904Y-108457904D01*
X155043142Y-108410285D01*
X155090761Y-108362666D01*
X155138380Y-108267428D01*
X155138380Y-108076952D01*
X155090761Y-107981714D01*
X155043142Y-107934095D01*
X154947904Y-107886476D01*
X154138380Y-107886476D01*
X155138380Y-106886476D02*
X155138380Y-107457904D01*
X155138380Y-107172190D02*
X154138380Y-107172190D01*
X154281238Y-107267428D01*
X154376476Y-107362666D01*
X154424095Y-107457904D01*
%TD*%
M02*
